<?xml version="1.0" encoding="utf-8"?><svg xmlns="http://www.w3.org/2000/svg" xmlns:xlink="http://www.w3.org/1999/xlink" width="1920" height="1089" preserveAspectRatio="xMidYMid" viewBox="0 0 1920 1089" style="z-index:1;margin-right:-2px;display:block;background-repeat-y:initial;background-repeat-x:initial;animation-play-state:paused" ><g transform="translate(960,544.5) scale(1,1) translate(-960,-544.5)" style="transform:matrix(1, 0, 0, 1, 0, 0);animation-play-state:paused" ><defs style="animation-play-state:paused" ><linearGradient id="ldbk-photon-osjmmjwm4eh-lg" x1="935" x2="1920" y1="0" y2="0" gradientUnits="userSpaceOnUse" style="animation-play-state:paused" ><stop stop-color="#215d38" offset="0" style="animation-play-state:paused" ></stop>

    
<stop stop-color="#14a651" offset="1" style="animation-play-state:paused" ></stop></linearGradient>

  
<mask id="ldbk-photon-osjmmjwm4eh-mask" style="animation-play-state:paused" ><g style="animation-play-state:paused" ><path d="M2220 -0.5 L953.5014567405678 -0.5 A15.5 15.5 0 0 1 953.5014567405678 31.5 L2220 31.5" fill="#fff" transform="matrix(1,0,0,1,25.53624153137207,0)" style="transform:matrix(1, 0, 0, 1, 25.5362, 0);animation-play-state:paused" ></path>
<path d="M1972.81401208555 -0.5 L1994.6280241711002 -0.5 A15.5 15.5 0 0 1 1994.6280241711002 31.5 L1972.81401208555 31.5 A15.5 15.5 0 0 1 1972.81401208555 -0.5" fill="#000" transform="matrix(1,0,0,1,0,0)" opacity="1" style="transform:matrix(1, 0, 0, 1, 0, 0);animation-play-state:paused" ></path>
<path d="M2220 30.5 L891.9698295982773 30.5 A15.5 15.5 0 0 0 891.9698295982773 62.5 L2220 62.5" fill="#fff" transform="matrix(1,0,0,1,-30.00508689880371,0)" style="transform:matrix(1, 0, 0, 1, -30.0051, 0);animation-play-state:paused" ></path>
<path d="M1030.5316947407134 30.5 L1063.4591180165603 30.5 A15.5 15.5 0 0 1 1063.4591180165603 62.5 L1030.5316947407134 62.5 A15.5 15.5 0 0 1 1030.5316947407134 30.5" fill="#fff" transform="matrix(1,0,0,1,0,0)" opacity="1" style="transform:matrix(1, 0, 0, 1, 0, 0);animation-play-state:paused" ></path>
<path d="M2220 61.5 L914.3064888963708 61.5 A15.5 15.5 0 0 1 914.3064888963708 93.5 L2220 93.5" fill="#fff" transform="matrix(1,0,0,1,23.44879150390625,0)" style="transform:matrix(1, 0, 0, 1, 23.4488, 0);animation-play-state:paused" ></path>
<path d="M1971.4267115826108 61.5 L1991.8534231652216 61.5 A15.5 15.5 0 0 1 1991.8534231652216 93.5 L1971.4267115826108 93.5 A15.5 15.5 0 0 1 1971.4267115826108 61.5" fill="#000" transform="matrix(1,0,0,1,-247.21697998046875,0)" opacity="1" style="transform:matrix(1, 0, 0, 1, -247.217, 0);animation-play-state:paused" ></path>
<path d="M2220 92.5 L873.5746290463485 92.5 A15.5 15.5 0 0 0 873.5746290463485 124.5 L2220 124.5" fill="#fff" transform="matrix(1,0,0,1,-23.267173767089844,0)" style="transform:matrix(1, 0, 0, 1, -23.2672, 0);animation-play-state:paused" ></path>
<path d="M1012.0060711010034 92.5 L1033.1301201666117 92.5 A15.5 15.5 0 0 1 1033.1301201666117 124.5 L1012.0060711010034 124.5 A15.5 15.5 0 0 1 1012.0060711010034 92.5" fill="#fff" transform="matrix(1,0,0,1,0,0)" opacity="0.357143" style="transform:matrix(1, 0, 0, 1, 0, 0);opacity:0.357143;animation-play-state:paused" ></path>
<path d="M2220 123.5 L949.2869317287688 123.5 A15.5 15.5 0 0 1 949.2869317287688 155.5 L2220 155.5" fill="#fff" transform="matrix(1,0,0,1,6.457294940948486,0)" style="transform:matrix(1, 0, 0, 1, 6.45729, 0);animation-play-state:paused" ></path>
<path d="M1961.6519484017322 123.5 L1972.3038968034643 123.5 A15.5 15.5 0 0 1 1972.3038968034643 155.5 L1961.6519484017322 155.5 A15.5 15.5 0 0 1 1961.6519484017322 123.5" fill="#000" transform="matrix(1,0,0,1,-1187.8187255859375,0)" opacity="0.476191" style="transform:matrix(1, 0, 0, 1, -1187.82, 0);opacity:0.476191;animation-play-state:paused" ></path>
<path d="M2220 154.5 L887.0928456151346 154.5 A15.5 15.5 0 0 0 887.0928456151346 186.5 L2220 186.5" fill="#fff" transform="matrix(1,0,0,1,-1.9214668273925781,0)" style="transform:matrix(1, 0, 0, 1, -1.92147, 0);animation-play-state:paused" ></path>
<path d="M1016.4562883978144 154.5 L1047.611327714901 154.5 A15.5 15.5 0 0 1 1047.611327714901 186.5 L1016.4562883978144 186.5 A15.5 15.5 0 0 1 1016.4562883978144 154.5" fill="#fff" transform="matrix(1,0,0,1,0,0)" opacity="0.833333" style="transform:matrix(1, 0, 0, 1, 0, 0);opacity:0.833333;animation-play-state:paused" ></path>
<path d="M2220 185.5 L888.8188417070605 185.5 A15.5 15.5 0 0 1 888.8188417070605 217.5 L2220 217.5" fill="#fff" transform="matrix(1,0,0,1,48.54573440551758,0)" style="transform:matrix(1, 0, 0, 1, 48.5457, 0);animation-play-state:paused" ></path>
<path d="M1981.8986614416756 185.5 L2012.7973228833512 185.5 A15.5 15.5 0 0 1 2012.7973228833512 217.5 L1981.8986614416756 217.5 A15.5 15.5 0 0 1 1981.8986614416756 185.5" fill="#000" transform="matrix(1,0,0,1,-813.092041015625,0)" opacity="0.714285" style="transform:matrix(1, 0, 0, 1, -813.092, 0);opacity:0.714285;animation-play-state:paused" ></path>
<path d="M2220 216.5 L859.8879298723657 216.5 A15.5 15.5 0 0 0 859.8879298723657 248.5 L2220 248.5" fill="#fff" transform="matrix(1,0,0,1,-16.27398109436035,0)" style="transform:matrix(1, 0, 0, 1, -16.274, 0);animation-play-state:paused" ></path>
<path d="M985.9954551780422 216.5 L1013.7990732669032 216.5 A15.5 15.5 0 0 1 1013.7990732669032 248.5 L985.9954551780422 248.5 A15.5 15.5 0 0 1 985.9954551780422 216.5" fill="#fff" transform="matrix(1,0,0,1,0,0)" opacity="1" style="transform:matrix(1, 0, 0, 1, 0, 0);animation-play-state:paused" ></path>
<path d="M2220 247.5 L938.3808000643232 247.5 A15.5 15.5 0 0 1 938.3808000643232 279.5 L2220 279.5" fill="#fff" transform="matrix(1,0,0,1,8.970240592956543,0)" style="transform:matrix(1, 0, 0, 1, 8.97024, 0);animation-play-state:paused" ></path>
<path d="M1966.2914758896559 247.5 L1981.5829517793118 247.5 A15.5 15.5 0 0 1 1981.5829517793118 279.5 L1966.2914758896559 279.5 A15.5 15.5 0 0 1 1966.2914758896559 247.5" fill="#000" transform="matrix(1,0,0,1,0,0)" opacity="1" style="transform:matrix(1, 0, 0, 1, 0, 0);animation-play-state:paused" ></path>
<path d="M2220 278.5 L865.5223770481396 278.5 A15.5 15.5 0 0 0 865.5223770481396 310.5 L2220 310.5" fill="#fff" transform="matrix(1,0,0,1,-14.010416984558105,0)" style="transform:matrix(1, 0, 0, 1, -14.0104, 0);animation-play-state:paused" ></path>
<path d="M986.0344043456885 278.5 L1019.0675359597798 278.5 A15.5 15.5 0 0 1 1019.0675359597798 310.5 L986.0344043456885 310.5 A15.5 15.5 0 0 1 986.0344043456885 278.5" fill="#fff" transform="matrix(1,0,0,1,0,0)" opacity="1" style="transform:matrix(1, 0, 0, 1, 0, 0);animation-play-state:paused" ></path>
<path d="M2220 309.5 L892.9440570137479 309.5 A15.5 15.5 0 0 1 892.9440570137479 341.5 L2220 341.5" fill="#fff" transform="matrix(1,0,0,1,38.101478576660156,0)" style="transform:matrix(1, 0, 0, 1, 38.1015, 0);animation-play-state:paused" ></path>
<path d="M1980.966534471514 309.5 L2010.933068943028 309.5 A15.5 15.5 0 0 1 2010.933068943028 341.5 L1980.966534471514 341.5 A15.5 15.5 0 0 1 1980.966534471514 309.5" fill="#000" transform="matrix(1,0,0,1,-1227.23193359375,0)" opacity="0.238095" style="transform:matrix(1, 0, 0, 1, -1227.23, 0);opacity:0.238095;animation-play-state:paused" ></path>
<path d="M2220 340.5 L859.7262840638284 340.5 A15.5 15.5 0 0 0 859.7262840638284 372.5 L2220 372.5" fill="#fff" transform="matrix(1,0,0,1,-37.42628860473633,0)" style="transform:matrix(1, 0, 0, 1, -37.4263, 0);animation-play-state:paused" ></path>
<path d="M991.9917928258693 340.5 L1026.9778964606778 340.5 A15.5 15.5 0 0 1 1026.9778964606778 372.5 L991.9917928258693 372.5 A15.5 15.5 0 0 1 991.9917928258693 340.5" fill="#fff" transform="matrix(1,0,0,1,0,0)" opacity="0.238095" style="transform:matrix(1, 0, 0, 1, 0, 0);opacity:0.238095;animation-play-state:paused" ></path>
<path d="M2220 371.5 L901.6504887867274 371.5 A15.5 15.5 0 0 1 901.6504887867274 403.5 L2220 403.5" fill="#fff" transform="matrix(1,0,0,1,40.36746597290039,0)" style="transform:matrix(1, 0, 0, 1, 40.3675, 0);animation-play-state:paused" ></path>
<path d="M1987.121268587494 371.5 L2023.2425371749878 371.5 A15.5 15.5 0 0 1 2023.2425371749878 403.5 L1987.121268587494 403.5 A15.5 15.5 0 0 1 1987.121268587494 371.5" fill="#000" transform="matrix(1,0,0,1,0,0)" opacity="1" style="transform:matrix(1, 0, 0, 1, 0, 0);animation-play-state:paused" ></path>
<path d="M2220 402.5 L902.4089743290223 402.5 A15.5 15.5 0 0 0 902.4089743290223 434.5 L2220 434.5" fill="#fff" transform="matrix(1,0,0,1,-23.092374801635742,0)" style="transform:matrix(1, 0, 0, 1, -23.0924, 0);animation-play-state:paused" ></path>
<path d="M1000.0755348747672 402.5 L1015.9994268356919 402.5 A15.5 15.5 0 0 1 1015.9994268356919 434.5 L1000.0755348747672 434.5 A15.5 15.5 0 0 1 1000.0755348747672 402.5" fill="#fff" transform="matrix(1,0,0,1,0,0)" opacity="1" style="transform:matrix(1, 0, 0, 1, 0, 0);animation-play-state:paused" ></path>
<path d="M2220 433.5 L933.4418575565415 433.5 A15.5 15.5 0 0 1 933.4418575565415 465.5 L2220 465.5" fill="#fff" transform="matrix(1,0,0,1,5.381191253662109,0)" style="transform:matrix(1, 0, 0, 1, 5.38119, 0);animation-play-state:paused" ></path>
<path d="M1972.8183942179573 433.5 L1994.6367884359147 433.5 A15.5 15.5 0 0 1 1994.6367884359147 465.5 L1972.8183942179573 465.5 A15.5 15.5 0 0 1 1972.8183942179573 433.5" fill="#000" transform="matrix(1,0,0,1,-807.3961791992188,0)" opacity="0.714285" style="transform:matrix(1, 0, 0, 1, -807.396, 0);opacity:0.714285;animation-play-state:paused" ></path>
<path d="M2220 464.5 L921.5707599237211 464.5 A15.5 15.5 0 0 0 921.5707599237211 496.5 L2220 496.5" fill="#fff" transform="matrix(1,0,0,1,-23.259971618652344,0)" style="transform:matrix(1, 0, 0, 1, -23.26, 0);animation-play-state:paused" ></path>
<path d="M975.2533257123067 464.5 L1013.2681853566658 464.5 A15.5 15.5 0 0 1 1013.2681853566658 496.5 L975.2533257123067 496.5 A15.5 15.5 0 0 1 975.2533257123067 464.5" fill="#fff" transform="matrix(1,0,0,1,0,0)" opacity="0.714286" style="transform:matrix(1, 0, 0, 1, 0, 0);opacity:0.714286;animation-play-state:paused" ></path>
<path d="M2220 495.5 L962.7268890134918 495.5 A15.5 15.5 0 0 1 962.7268890134918 527.5 L2220 527.5" fill="#fff" transform="matrix(1,0,0,1,10.078392028808594,0)" style="transform:matrix(1, 0, 0, 1, 10.0784, 0);animation-play-state:paused" ></path>
<path d="M1985.959182393188 495.5 L2020.918364786376 495.5 A15.5 15.5 0 0 1 2020.918364786376 527.5 L1985.959182393188 527.5 A15.5 15.5 0 0 1 1985.959182393188 495.5" fill="#000" transform="matrix(1,0,0,1,-1262.7598876953125,0)" opacity="0.476191" style="transform:matrix(1, 0, 0, 1, -1262.76, 0);opacity:0.476191;animation-play-state:paused" ></path>
<path d="M2220 526.5 L891.9850232348035 526.5 A15.5 15.5 0 0 0 891.9850232348035 558.5 L2220 558.5" fill="#fff" transform="matrix(1,0,0,1,-1.8100128173828125,0)" style="transform:matrix(1, 0, 0, 1, -1.81001, 0);animation-play-state:paused" ></path>
<path d="M1023.7846812098055 526.5 L1062.9058264003488 526.5 A15.5 15.5 0 0 1 1062.9058264003488 558.5 L1023.7846812098055 558.5 A15.5 15.5 0 0 1 1023.7846812098055 526.5" fill="#fff" transform="matrix(1,0,0,1,0,0)" opacity="1" style="transform:matrix(1, 0, 0, 1, 0, 0);animation-play-state:paused" ></path>
<path d="M2220 557.5 L964.582967211479 557.5 A15.5 15.5 0 0 1 964.582967211479 589.5 L2220 589.5" fill="#fff" transform="matrix(1,0,0,1,48.778690338134766,0)" style="transform:matrix(1, 0, 0, 1, 48.7787, 0);animation-play-state:paused" ></path>
<path d="M1987.4527881164613 557.5 L2023.9055762329226 557.5 A15.5 15.5 0 0 1 2023.9055762329226 589.5 L1987.4527881164613 589.5 A15.5 15.5 0 0 1 1987.4527881164613 557.5" fill="#000" transform="matrix(1,0,0,1,-851.9349365234375,0)" opacity="0.714286" style="transform:matrix(1, 0, 0, 1, -851.935, 0);opacity:0.714286;animation-play-state:paused" ></path>
<path d="M2220 588.5 L928.3519810891064 588.5 A15.5 15.5 0 0 0 928.3519810891064 620.5 L2220 620.5" fill="#fff" transform="matrix(1,0,0,1,-2.021136522293091,0)" style="transform:matrix(1, 0, 0, 1, -2.02114, 0);animation-play-state:paused" ></path>
<path d="M987.2732858931629 588.5 L1006.5493744717573 588.5 A15.5 15.5 0 0 1 1006.5493744717573 620.5 L987.2732858931629 620.5 A15.5 15.5 0 0 1 987.2732858931629 588.5" fill="#fff" transform="matrix(1,0,0,1,0,0)" opacity="1" style="transform:matrix(1, 0, 0, 1, 0, 0);animation-play-state:paused" ></path>
<path d="M2220 619.5 L961.011291982238 619.5 A15.5 15.5 0 0 1 961.011291982238 651.5 L2220 651.5" fill="#fff" transform="matrix(1,0,0,1,6.383371353149414,0)" style="transform:matrix(1, 0, 0, 1, 6.38337, 0);animation-play-state:paused" ></path>
<path d="M1990.9474115241092 619.5 L2030.8948230482183 619.5 A15.5 15.5 0 0 1 2030.8948230482183 651.5 L1990.9474115241092 651.5 A15.5 15.5 0 0 1 1990.9474115241092 619.5" fill="#000" transform="matrix(1,0,0,1,-0.00047432081191800535,0)" opacity="1" style="transform:matrix(1, 0, 0, 1, -0.000474321, 0);animation-play-state:paused" ></path>
<path d="M2220 650.5 L941.6133263969555 650.5 A15.5 15.5 0 0 0 941.6133263969555 682.5 L2220 682.5" fill="#fff" transform="matrix(1,0,0,1,-18.031414031982422,0)" style="transform:matrix(1, 0, 0, 1, -18.0314, 0);animation-play-state:paused" ></path>
<path d="M1012.5937651695899 650.5 L1040.4175548915039 650.5 A15.5 15.5 0 0 1 1040.4175548915039 682.5 L1012.5937651695899 682.5 A15.5 15.5 0 0 1 1012.5937651695899 650.5" fill="#fff" transform="matrix(1,0,0,1,0,0)" opacity="1" style="transform:matrix(1, 0, 0, 1, 0, 0);animation-play-state:paused" ></path>
<path d="M2220 681.5 L971.8990324853964 681.5 A15.5 15.5 0 0 1 971.8990324853964 713.5 L2220 713.5" fill="#fff" transform="matrix(1,0,0,1,30.323902130126953,0)" style="transform:matrix(1, 0, 0, 1, 30.3239, 0);animation-play-state:paused" ></path>
<path d="M1964.3117135457758 681.5 L1977.6234270915515 681.5 A15.5 15.5 0 0 1 1977.6234270915515 713.5 L1964.3117135457758 713.5 A15.5 15.5 0 0 1 1964.3117135457758 681.5" fill="#000" transform="matrix(1,0,0,1,-1544.9393310546875,0)" opacity="0.238095" style="transform:matrix(1, 0, 0, 1, -1544.94, 0);opacity:0.238095;animation-play-state:paused" ></path>
<path d="M2220 712.5 L962.6325843920152 712.5 A15.5 15.5 0 0 0 962.6325843920152 744.5 L2220 744.5" fill="#fff" transform="matrix(1,0,0,1,-46.771114349365234,0)" style="transform:matrix(1, 0, 0, 1, -46.7711, 0);animation-play-state:paused" ></path>
<path d="M1024.9331183126853 712.5 L1043.49843567333 712.5 A15.5 15.5 0 0 1 1043.49843567333 744.5 L1024.9331183126853 744.5 A15.5 15.5 0 0 1 1024.9331183126853 712.5" fill="#fff" transform="matrix(1,0,0,1,0,0)" opacity="0.238095" style="transform:matrix(1, 0, 0, 1, 0, 0);opacity:0.238095;animation-play-state:paused" ></path>
<path d="M2220 743.5 L980.3369318911788 743.5 A15.5 15.5 0 0 1 980.3369318911788 775.5 L2220 775.5" fill="#fff" transform="matrix(1,0,0,1,41.59663772583008,0)" style="transform:matrix(1, 0, 0, 1, 41.5966, 0);animation-play-state:paused" ></path>
<path d="M1970.6711560841595 743.5 L1990.342312168319 743.5 A15.5 15.5 0 0 1 1990.342312168319 775.5 L1970.6711560841595 775.5 A15.5 15.5 0 0 1 1970.6711560841595 743.5" fill="#000" transform="matrix(1,0,0,1,0,0)" opacity="1" style="transform:matrix(1, 0, 0, 1, 0, 0);animation-play-state:paused" ></path>
<path d="M2220 774.5 L959.3701288061499 774.5 A15.5 15.5 0 0 0 959.3701288061499 806.5 L2220 806.5" fill="#fff" transform="matrix(1,0,0,1,-38.904598236083984,0)" style="transform:matrix(1, 0, 0, 1, -38.9046, 0);animation-play-state:paused" ></path>
<path d="M1033.0027577276853 774.5 L1067.6878626759071 774.5 A15.5 15.5 0 0 1 1067.6878626759071 806.5 L1033.0027577276853 806.5 A15.5 15.5 0 0 1 1033.0027577276853 774.5" fill="#fff" transform="matrix(1,0,0,1,0,0)" opacity="1" style="transform:matrix(1, 0, 0, 1, 0, 0);animation-play-state:paused" ></path>
<path d="M2220 805.5 L970.6588881918249 805.5 A15.5 15.5 0 0 1 970.6588881918249 837.5 L2220 837.5" fill="#fff" transform="matrix(1,0,0,1,6.77814054883541e-11,0)" style="transform:matrix(1, 0, 0, 1, 6.77814e-11, 0);animation-play-state:paused" ></path>
<path d="M1985.8119917118659 805.5 L2020.6239834237317 805.5 A15.5 15.5 0 0 1 2020.6239834237317 837.5 L1985.8119917118659 837.5 A15.5 15.5 0 0 1 1985.8119917118659 805.5" fill="#000" transform="matrix(1,0,0,1,-1130.314453125,0)" opacity="0.714285" style="transform:matrix(1, 0, 0, 1, -1130.31, 0);opacity:0.714285;animation-play-state:paused" ></path>
<path d="M2220 836.5 L941.3936550473119 836.5 A15.5 15.5 0 0 0 941.3936550473119 868.5 L2220 868.5" fill="#fff" transform="matrix(1,0,0,1,-21.671279907226562,0)" style="transform:matrix(1, 0, 0, 1, -21.6713, 0);animation-play-state:paused" ></path>
<path d="M1023.0323679132966 836.5 L1048.1535651343138 836.5 A15.5 15.5 0 0 1 1048.1535651343138 868.5 L1023.0323679132966 868.5 A15.5 15.5 0 0 1 1023.0323679132966 836.5" fill="#fff" transform="matrix(1,0,0,1,0,0)" opacity="0.714286" style="transform:matrix(1, 0, 0, 1, 0, 0);opacity:0.714286;animation-play-state:paused" ></path>
<path d="M2220 867.5 L981.3396356944903 867.5 A15.5 15.5 0 0 1 981.3396356944903 899.5 L2220 899.5" fill="#fff" transform="matrix(1,0,0,1,9.609816551208496,0)" style="transform:matrix(1, 0, 0, 1, 9.60982, 0);animation-play-state:paused" ></path>
<path d="M1963.4830733605008 867.5 L1975.9661467210017 867.5 A15.5 15.5 0 0 1 1975.9661467210017 899.5 L1963.4830733605008 899.5 A15.5 15.5 0 0 1 1963.4830733605008 867.5" fill="#000" transform="matrix(1,0,0,1,-0.001067728502675891,0)" opacity="1" style="transform:matrix(1, 0, 0, 1, -0.00106773, 0);animation-play-state:paused" ></path>
<path d="M2220 898.5 L928.506266089265 898.5 A15.5 15.5 0 0 0 928.506266089265 930.5 L2220 930.5" fill="#fff" transform="matrix(1,0,0,1,-1.1310749053955078,0)" style="transform:matrix(1, 0, 0, 1, -1.13107, 0);animation-play-state:paused" ></path>
<path d="M1035.9343013940415 898.5 L1069.3828365843447 898.5 A15.5 15.5 0 0 1 1069.3828365843447 930.5 L1035.9343013940415 930.5 A15.5 15.5 0 0 1 1035.9343013940415 898.5" fill="#fff" transform="matrix(1,0,0,1,0,0)" opacity="1" style="transform:matrix(1, 0, 0, 1, 0, 0);animation-play-state:paused" ></path>
<path d="M2220 929.5 L988.3072497274127 929.5 A15.5 15.5 0 0 1 988.3072497274127 961.5 L2220 961.5" fill="#fff" transform="matrix(1,0,0,1,1.2071185717665855e-10,0)" style="transform:matrix(1, 0, 0, 1, 1.20712e-10, 0);animation-play-state:paused" ></path>
<path d="M1966.5527811158572 929.5 L1982.1055622317144 929.5 A15.5 15.5 0 0 1 1982.1055622317144 961.5 L1966.5527811158572 961.5 A15.5 15.5 0 0 1 1966.5527811158572 929.5" fill="#000" transform="matrix(1,0,0,1,-794.0902099609375,0)" opacity="0.714286" style="transform:matrix(1, 0, 0, 1, -794.09, 0);opacity:0.714286;animation-play-state:paused" ></path>
<path d="M2220 960.5 L940.7501241880126 960.5 A15.5 15.5 0 0 0 940.7501241880126 992.5 L2220 992.5" fill="#fff" transform="matrix(1,0,0,1,-1.8439892530441284,0)" style="transform:matrix(1, 0, 0, 1, -1.84399, 0);animation-play-state:paused" ></path>
<path d="M1012.5870823423309 960.5 L1035.3368507994905 960.5 A15.5 15.5 0 0 1 1035.3368507994905 992.5 L1012.5870823423309 992.5 A15.5 15.5 0 0 1 1012.5870823423309 960.5" fill="#fff" transform="matrix(1,0,0,1,0,0)" opacity="0.595238" style="transform:matrix(1, 0, 0, 1, 0, 0);opacity:0.595238;animation-play-state:paused" ></path>
<path d="M2220 991.5 L969.3600916709852 991.5 A15.5 15.5 0 0 1 969.3600916709852 1023.5 L2220 1023.5" fill="#fff" transform="matrix(1,0,0,1,7.440338134765625,0)" style="transform:matrix(1, 0, 0, 1, 7.44034, 0);animation-play-state:paused" ></path>
<path d="M1987.243020894089 991.5 L2023.4860417881782 991.5 A15.5 15.5 0 0 1 2023.4860417881782 1023.5 L1987.243020894089 1023.5 A15.5 15.5 0 0 1 1987.243020894089 991.5" fill="#000" transform="matrix(1,0,0,1,-1240.1695556640625,0)" opacity="0.476191" style="transform:matrix(1, 0, 0, 1, -1240.17, 0);opacity:0.476191;animation-play-state:paused" ></path>
<path d="M2220 1022.5 L898.771329988513 1022.5 A15.5 15.5 0 0 0 898.771329988513 1054.5 L2220 1054.5" fill="#fff" transform="matrix(1,0,0,1,-21.67555046081543,0)" style="transform:matrix(1, 0, 0, 1, -21.6756, 0);animation-play-state:paused" ></path>
<path d="M1034.9072308545276 1022.5 L1066.8491150474206 1022.5 A15.5 15.5 0 0 1 1066.8491150474206 1054.5 L1034.9072308545276 1054.5 A15.5 15.5 0 0 1 1034.9072308545276 1022.5" fill="#fff" transform="matrix(1,0,0,1,0,0)" opacity="0.357143" style="transform:matrix(1, 0, 0, 1, 0, 0);opacity:0.357143;animation-play-state:paused" ></path>
<path d="M2220 1053.5 L920.6165293248007 1053.5 A15.5 15.5 0 0 1 920.6165293248007 1085.5 L2220 1085.5" fill="#fff" transform="matrix(1,0,0,1,8.106318473815918,0)" style="transform:matrix(1, 0, 0, 1, 8.10632, 0);animation-play-state:paused" ></path>
<path d="M1964.294976413543 1053.5 L1977.589952827086 1053.5 A15.5 15.5 0 0 1 1977.589952827086 1085.5 L1964.294976413543 1085.5 A15.5 15.5 0 0 1 1964.294976413543 1053.5" fill="#000" transform="matrix(1,0,0,1,-1334.8470458984375,0)" opacity="0.238095" style="transform:matrix(1, 0, 0, 1, -1334.85, 0);opacity:0.238095;animation-play-state:paused" ></path>
<path d="M2220 1084.5 L902.9892598189946 1084.5 A15.5 15.5 0 0 0 902.9892598189946 1116.5 L2220 1116.5" fill="#fff" transform="matrix(1,0,0,1,-21.630624771118164,0)" style="transform:matrix(1, 0, 0, 1, -21.6306, 0);animation-play-state:paused" ></path>
<path d="M1052.957048547889 1084.5 L1066.959069149597 1084.5 A15.5 15.5 0 0 1 1066.959069149597 1116.5 L1052.957048547889 1116.5 A15.5 15.5 0 0 1 1052.957048547889 1084.5" fill="#fff" transform="matrix(1,0,0,1,0,0)" opacity="0.357142" style="transform:matrix(1, 0, 0, 1, 0, 0);opacity:0.357142;animation-play-state:paused" ></path></g></mask></defs>


<rect x="0" y="0" width="1920" height="1089" fill="url(#ldbk-photon-osjmmjwm4eh-lg)" mask="url(#ldbk-photon-osjmmjwm4eh-mask)" style="animation-play-state:paused" ></rect></g></svg>