<?xml version="1.0" encoding="utf-8"?><svg xmlns="http://www.w3.org/2000/svg" xmlns:xlink="http://www.w3.org/1999/xlink" width="1920" height="1089" preserveAspectRatio="xMidYMid" viewBox="0 0 1920 1089" style="z-index:1;margin-right:-2px;display:block;background-repeat-y:initial;background-repeat-x:initial;background-color:rgb(24, 31, 43);animation-play-state:paused" ><g transform="translate(960,544.5) scale(1,1) translate(-960,-544.5)" style="transform:matrix(1, 0, 0, 1, 0, 0);animation-play-state:paused" ><linearGradient id="lg-0.9138924980938394" x1="0" x2="1" y1="0" y2="0" style="animation-play-state:paused" ><stop stop-color="#008fd4" offset="0" style="animation-play-state:paused" ></stop>

  
<stop stop-color="#001f2d" offset="1" style="animation-play-state:paused" ></stop></linearGradient>
<path d="M 0 0 L 0 922.354 Q 192 1013.74 384 967.17 T 768 681.569 T 1152 704.887 T 1536 650.221 T 1920 428.956 L 1920 0 Z" fill="url(#lg-0.9138924980938394)" opacity="0.4" style="opacity:0.4;animation-play-state:paused" ></path>
<path d="M 0 0 L 0 1008.59 Q 192 854.393 384 808.849 T 768 747.507 T 1152 698.578 T 1536 633.729 T 1920 437.116 L 1920 0 Z" fill="url(#lg-0.9138924980938394)" opacity="0.4" style="opacity:0.4;animation-play-state:paused" ></path>
<path d="M 0 0 L 0 958.645 Q 192 957.629 384 925.134 T 768 807.651 T 1152 702.954 T 1536 650.598 T 1920 394.183 L 1920 0 Z" fill="url(#lg-0.9138924980938394)" opacity="0.4" style="opacity:0.4;animation-play-state:paused" ></path>
<path d="M 0 0 L 0 918.875 Q 192 944.027 384 918.916 T 768 750.273 T 1152 687.739 T 1536 542.208 T 1920 443.859 L 1920 0 Z" fill="url(#lg-0.9138924980938394)" opacity="0.4" style="opacity:0.4;animation-play-state:paused" ></path>
<path d="M 0 0 L 0 963.071 Q 192 860.022 384 820.454 T 768 840.113 T 1152 640.31 T 1536 577.38 T 1920 409.001 L 1920 0 Z" fill="url(#lg-0.9138924980938394)" opacity="0.4" style="opacity:0.4;animation-play-state:paused" ></path></g></svg>