<svg id="visual" viewBox="0 0 900 600" width="900" height="600" xmlns="http://www.w3.org/2000/svg" xmlns:xlink="http://www.w3.org/1999/xlink" version="1.1"><rect x="0" y="0" width="900" height="600" fill="#001220"></rect><defs><linearGradient id="grad1_0" x1="33.3%" y1="0%" x2="100%" y2="100%"><stop offset="20%" stop-color="#001220" stop-opacity="1"></stop><stop offset="80%" stop-color="#001220" stop-opacity="1"></stop></linearGradient></defs><defs><linearGradient id="grad2_0" x1="0%" y1="0%" x2="66.7%" y2="100%"><stop offset="20%" stop-color="#001220" stop-opacity="1"></stop><stop offset="80%" stop-color="#001220" stop-opacity="1"></stop></linearGradient></defs><g transform="translate(900, 0)"><path d="M0 486.7C-51.1 449.7 -102.3 412.7 -163.4 394.5C-224.5 376.3 -295.6 377.1 -344.2 344.2C-392.8 311.3 -418.8 244.7 -438.8 181.8C-458.9 118.8 -472.8 59.4 -486.7 0L0 0Z" fill="#a538f6"></path></g><g transform="translate(0, 600)"><path d="M0 -486.7C72.3 -488 144.5 -489.2 186.3 -449.7C228 -410.2 239.3 -330.1 284.3 -284.3C329.2 -238.4 407.8 -226.9 447.2 -185.2C486.5 -143.6 486.6 -71.8 486.7 0L0 0Z" fill="#a538f6"></path></g></svg>