<svg width="1000" height="1000" viewBox="0 0 1000 1000" fill="none" xmlns="http://www.w3.org/2000/svg">
<path d="M966.48 657.966V668.168C966.496 684.679 963.355 701.041 957.229 716.374C956.484 718.23 955.7 720.062 954.877 721.872C953.57 724.72 952.175 727.513 950.692 730.251C950.202 731.143 949.712 732.025 949.203 732.897C942.526 744.466 934.111 754.941 924.252 763.953C923.801 764.375 923.341 764.786 922.88 765.198L922.743 765.315L921.165 766.687C913.838 772.984 905.827 778.438 897.282 782.945C894.95 784.18 892.569 785.346 890.158 786.434C885.379 788.604 880.47 790.473 875.458 792.03C874.272 792.403 873.076 792.755 871.881 793.089C869 793.902 866.089 794.617 863.129 795.225C854.424 797.022 845.558 797.925 836.669 797.92H784.092C776.992 797.92 770.184 800.741 765.164 805.762C760.145 810.784 757.326 817.594 757.329 824.694V924.565H309.704V824.694C309.715 814.527 303.951 805.237 294.837 800.733C294.139 800.37 293.422 800.043 292.691 799.753C289.571 798.519 286.246 797.891 282.891 797.9H194.387C192.986 797.9 191.604 797.9 190.212 797.841C182.566 797.611 174.953 796.729 167.457 795.205C164.51 794.611 161.6 793.918 158.725 793.128C150.689 790.923 142.877 787.97 135.391 784.308C134.411 783.847 133.519 783.387 132.588 782.897C123.851 778.39 115.635 772.938 108.088 766.638L107.579 766.217C107.206 765.903 106.834 765.59 106.471 765.237L104.913 763.875C102.894 762.101 100.934 760.249 99.0332 758.348C91.3564 750.672 84.631 742.101 79.002 732.819C76.8362 729.251 74.8272 725.576 73.0044 721.794C72.1224 719.99 71.2796 718.148 70.4956 716.296C66.9516 708.096 64.2429 699.559 62.4106 690.816C59.1263 675.078 58.6552 658.884 61.019 642.982C61.2836 641.13 61.607 639.297 61.999 637.474C62.1362 636.72 62.293 635.965 62.4498 635.22C62.6752 634.093 62.93 632.976 63.1946 631.859C63.8871 628.919 64.6809 626.012 65.576 623.137C66.0725 621.53 66.6017 619.932 67.1636 618.345C70.5858 608.581 75.1308 599.247 80.7072 590.532C86.9116 580.827 94.3279 571.951 102.777 564.121C104.825 562.22 106.932 560.378 109.098 558.624C110.078 557.82 111.058 557.046 112.038 556.291C114.932 554.05 117.924 551.927 121.015 549.921C132.649 542.341 145.391 536.615 158.784 532.948C162.645 531.889 166.565 531.004 170.544 530.292C173.503 529.749 176.496 529.315 179.521 528.988C182.931 528.616 186.381 528.361 189.879 528.253C191.388 528.253 192.907 528.175 194.426 528.175H298.306C310.765 528.191 322.29 521.575 328.559 510.809C328.951 510.163 329.314 509.496 329.647 508.849C330.206 507.736 330.707 506.595 331.146 505.429C332.47 501.881 333.208 498.141 333.332 494.355C333.332 494.257 333.332 494.159 333.332 494.061C333.332 493.767 333.332 493.463 333.332 493.16C333.332 493.022 333.332 492.885 333.332 492.758C333.332 492.63 333.332 492.542 333.332 492.434C333.279 490.031 332.973 487.64 332.42 485.3C332.002 483.418 331.415 481.578 330.666 479.802C330.057 478.313 329.343 476.869 328.53 475.48C323.276 466.492 314.299 460.305 304.03 458.595C303.736 458.546 303.451 458.497 303.157 458.468C301.535 458.232 299.897 458.118 298.257 458.125H123.014H120.956C99.9419 457.634 79.9294 449.046 65.0958 434.154C64.1844 433.242 63.2926 432.311 62.4302 431.361C55.7878 424.065 50.513 415.633 46.858 406.469C46.1393 404.666 45.486 402.833 44.898 400.971C37.6812 378.129 40.8065 353.274 53.4534 332.93C54.5771 331.107 55.7825 329.336 57.0696 327.618C58.4612 325.717 59.9377 323.884 61.4992 322.12C61.803 321.767 62.1166 321.415 62.4792 321.072C63.3416 320.092 64.2334 319.19 65.1448 318.279C79.9784 303.386 99.9909 294.798 121.005 294.308H123.063C135.68 294.325 148.05 290.811 158.774 284.165C163.019 281.526 166.962 278.43 170.534 274.933C178.025 267.615 183.726 258.668 187.194 248.787C187.821 246.993 188.38 245.151 188.85 243.289C189.252 241.731 189.605 240.163 189.889 238.565C190.615 234.552 190.979 230.482 190.977 226.404V157.216C190.974 150.116 193.793 143.306 198.812 138.284C203.832 133.263 210.641 130.442 217.741 130.442H841.55C867.873 130.421 892.596 143.074 907.974 164.438C908.778 165.516 909.532 166.624 910.258 167.741C910.728 168.466 911.238 169.191 911.639 169.936C925.044 192.08 927.209 219.252 917.48 243.24C916.726 245.102 915.893 246.935 915.001 248.738C906.443 265.935 892.133 279.593 874.556 287.34C871.62 288.63 868.61 289.743 865.54 290.672C857.754 293.058 849.654 294.267 841.511 294.259H774.871C770.392 294.253 765.935 294.88 761.631 296.121C760.2 296.542 758.789 297.022 757.417 297.561C755.576 298.284 753.782 299.122 752.046 300.07C750.812 300.746 749.606 301.481 748.44 302.265C741.534 306.914 735.958 313.28 732.26 320.738C732.035 321.189 731.819 321.64 731.613 322.101C730.786 323.884 730.079 325.721 729.497 327.598C728.06 332.221 727.34 337.036 727.36 341.877C727.353 357.796 735.309 372.663 748.558 381.489C751.371 383.377 754.381 384.954 757.534 386.193C763.092 388.384 769.014 389.505 774.988 389.495C775.86 389.495 776.723 389.495 777.585 389.554C788.019 389.967 798.174 393.044 807.083 398.492C808.142 399.129 809.171 399.795 810.18 400.501L810.797 400.942C812.628 402.237 814.381 403.638 816.05 405.136C816.53 405.557 817.03 405.998 817.471 406.439C829.788 418.089 836.758 434.301 836.738 451.255V493.395C836.702 511.71 848.258 528.042 865.54 534.104C866.118 534.31 866.706 534.496 867.294 534.672C869.627 535.368 872.038 536.133 874.517 536.995C879.505 538.69 884.748 540.719 890.109 543.12C899.671 547.361 908.773 552.569 917.274 558.663C919.568 560.319 921.841 562.063 924.066 563.906L924.37 564.161C927.31 566.62 930.25 569.266 933.043 572.079C938.651 577.702 943.65 583.9 947.958 590.572C953.517 599.201 957.847 608.561 960.826 618.384C961.309 619.952 961.76 621.549 962.178 623.176C962.913 625.999 963.57 628.909 964.138 631.898C964.478 633.741 964.781 635.612 965.049 637.514C965.304 639.317 965.53 641.159 965.696 643.021C966.212 647.986 966.474 652.974 966.48 657.966Z" fill="#F0F3F9"/>
<path opacity="0.11" d="M911.6 169.887H190.927V164.389H907.974C908.777 165.467 909.532 166.575 910.257 167.692C910.727 168.417 911.188 169.142 911.6 169.887Z" fill="#34629B"/>
<path opacity="0.11" d="M917.48 243.24C916.725 245.102 915.892 246.935 915 248.738H187.145C187.772 246.944 188.33 245.102 188.801 243.24H917.48Z" fill="#34629B"/>
<path opacity="0.11" d="M731.623 322.101C730.796 323.884 730.089 325.721 729.506 327.598H57.04C58.4316 325.697 59.9082 323.865 61.4696 322.101H731.623Z" fill="#34629B"/>
<path opacity="0.11" d="M817.441 406.449H46.8477C46.129 404.646 45.4757 402.813 44.8877 400.951H810.768C812.598 402.247 814.352 403.648 816.02 405.146C816.54 405.567 816.971 406.008 817.441 406.449Z" fill="#34629B"/>
<path opacity="0.11" d="M836.708 479.812V485.3H332.42C332.001 483.418 331.414 481.578 330.666 479.802L836.708 479.812Z" fill="#34629B"/>
<path opacity="0.11" d="M924.408 564.161H102.747C104.795 562.259 106.902 560.417 109.068 558.663H917.313C919.607 560.319 921.88 562.063 924.105 563.906L924.408 564.161Z" fill="#34629B"/>
<path opacity="0.11" d="M965.725 643.021H61.0283C61.2929 641.169 61.6163 639.336 62.0083 637.514H965.078C965.333 639.317 965.558 641.12 965.725 643.021Z" fill="#34629B"/>
<path opacity="0.11" d="M957.219 716.374C956.474 718.23 955.69 720.062 954.867 721.872H73.0137C72.1317 720.069 71.2889 718.226 70.5049 716.374H957.219Z" fill="#34629B"/>
<path opacity="0.11" d="M863.139 795.225C854.434 797.022 845.568 797.925 836.679 797.92H784.092C779.945 797.913 775.854 798.876 772.146 800.733H294.837C294.138 800.37 293.422 800.043 292.691 799.753C289.571 798.52 286.245 797.891 282.891 797.901H194.387C192.986 797.901 191.604 797.901 190.212 797.842C182.566 797.611 174.953 796.729 167.457 795.206L863.139 795.225Z" fill="#34629B"/>
<path opacity="0.11" d="M309.704 874.086H757.328V879.583H309.704L309.704 874.086Z" fill="#34629B"/>
<rect x="158.715" y="941.823" width="72.5788" height="17.2578" rx="8.6289" transform="rotate(-180 158.715 941.823)" fill="#6E8EC8"/>
<rect x="959.482" y="941.823" width="793.741" height="17.2578" rx="8.6289" transform="rotate(-180 959.482 941.823)" fill="#6E8EC8"/>
<path d="M443.993 670.128H718.785V926.016H443.993V670.128Z" fill="#547DBA"/>
<path d="M443.993 736.474H737.748V846.469H443.993V736.474Z" fill="#34629B"/>
<path d="M677.037 430.234H684.691C813.398 430.234 917.735 534.571 917.735 663.278V670.138H443.993V663.278C443.993 534.571 548.331 430.234 677.037 430.234V430.234Z" fill="#547DBA"/>
<path d="M917.734 663.278V670.138H802.82V663.278C802.82 553.038 726.272 460.673 623.421 436.447C641.002 432.305 659.004 430.22 677.066 430.234H684.72C813.404 430.234 917.734 534.574 917.734 663.278Z" fill="#34629B"/>
<path d="M443.993 670.128V926.006H372.6C365.564 926.006 359.86 920.302 359.86 913.266V754.222C359.86 707.773 397.515 670.118 443.964 670.118L443.993 670.128Z" fill="#BBD7FF"/>
<path d="M387.633 175.218V571.138C387.646 575.395 385.966 579.483 382.962 582.5C379.958 585.517 375.877 587.215 371.62 587.22H205.873C201.62 587.223 197.54 585.534 194.533 582.527C191.526 579.52 189.837 575.44 189.84 571.187V528.293C191.349 528.293 192.868 528.214 194.387 528.214H298.267C310.725 528.23 322.25 521.614 328.52 510.849C328.912 510.202 329.274 509.535 329.607 508.889C330.167 507.776 330.668 506.634 331.107 505.468C332.431 501.92 333.169 498.18 333.292 494.394V492.434C332.952 475.572 320.64 461.348 304 458.595C303.706 458.546 303.422 458.497 303.128 458.467C301.505 458.232 299.867 458.118 298.228 458.125H189.84V175.218C189.837 170.965 191.526 166.886 194.533 163.878C197.54 160.871 201.62 159.183 205.873 159.185H371.62C380.467 159.196 387.633 166.371 387.633 175.218Z" fill="#6E8EC8"/>
<path d="M368.18 197.915V548.461C368.175 557.314 361 564.489 352.148 564.494H225.326C216.471 564.494 209.293 557.316 209.293 548.461V528.214H298.316C310.774 528.23 322.3 521.615 328.569 510.849C328.961 510.202 329.323 509.536 329.657 508.889C330.216 507.776 330.717 506.634 331.156 505.469C332.48 501.92 333.218 498.18 333.341 494.395V492.435C333.001 475.572 320.689 461.348 304.049 458.595C303.755 458.546 303.471 458.497 303.177 458.468C301.554 458.233 299.917 458.118 298.277 458.125H209.293V197.915C209.293 193.663 210.982 189.585 213.989 186.578C216.996 183.571 221.074 181.882 225.326 181.882H352.148C361.002 181.882 368.18 189.06 368.18 197.915Z" fill="#E9F1FF"/>
<path d="M368.18 238.242V548.461C368.175 557.313 361 564.488 352.147 564.494H257.146V528.234H298.306C310.764 528.25 322.289 521.634 328.559 510.868C328.951 510.221 329.313 509.555 329.647 508.908C330.206 507.795 330.707 506.654 331.146 505.488C332.47 501.94 333.208 498.199 333.331 494.414V492.454C332.991 475.592 320.679 461.368 304.039 458.615C303.745 458.566 303.461 458.517 303.167 458.487C301.544 458.252 299.906 458.137 298.267 458.144H257.107V408.272C257.107 405.025 259.739 402.392 262.987 402.392H293.563C296.81 402.392 299.443 399.759 299.443 396.512V244.122C299.443 240.875 302.076 238.242 305.323 238.242L368.18 238.242Z" fill="#CDDCF5"/>
<path d="M270.759 423.374H278.128V430.744H270.759V423.374Z" fill="#E9F1FF"/>
<path d="M270.759 456.341H278.128V458.134H270.759V456.341Z" fill="#E9F1FF"/>
<path d="M270.759 528.214H278.128V529.645H270.759V528.214Z" fill="#E9F1FF"/>
<path d="M270.759 555.243H278.128V562.612H270.759V555.243Z" fill="#E9F1FF"/>
<path d="M303.177 455.626V458.478C301.554 458.242 299.916 458.128 298.277 458.135H295.768V455.626H303.177Z" fill="#E9F1FF"/>
<path d="M312.664 249.894H320.033V257.264H312.664V249.894Z" fill="#E9F1FF"/>
<path d="M312.664 296.023H320.033V303.393H312.664V296.023Z" fill="#E9F1FF"/>
<path d="M312.664 342.142H320.033V349.511H312.664V342.142Z" fill="#E9F1FF"/>
<path d="M312.664 388.27H320.033V395.64H312.664V388.27Z" fill="#E9F1FF"/>
<path d="M312.664 434.389H320.033V441.759H312.664V434.389Z" fill="#E9F1FF"/>
<path d="M312.664 526.636H320.033V534.006H312.664V526.636Z" fill="#E9F1FF"/>
<path d="M329.657 274.825H337.026V282.195H329.657V274.825Z" fill="#E9F1FF"/>
<path d="M329.657 320.944H337.026V328.314H329.657V320.944Z" fill="#E9F1FF"/>
<path d="M329.657 367.073H337.026V374.443H329.657V367.073Z" fill="#E9F1FF"/>
<path d="M329.657 413.192H337.026V420.561H329.657V413.192Z" fill="#E9F1FF"/>
<path d="M329.657 459.311H337.026V466.68H329.657V459.311Z" fill="#E9F1FF"/>
<path d="M337.026 505.439V512.809H329.657V508.889C330.216 507.776 330.717 506.634 331.156 505.469L337.026 505.439Z" fill="#E9F1FF"/>
<path d="M329.657 551.558H337.026V558.927H329.657V551.558Z" fill="#E9F1FF"/>
<path d="M350.531 249.473H357.9V256.843H350.531V249.473Z" fill="#E9F1FF"/>
<path d="M350.531 295.592H357.9V302.961H350.531V295.592Z" fill="#E9F1FF"/>
<path d="M350.531 341.72H357.9V349.09H350.531V341.72Z" fill="#E9F1FF"/>
<path d="M350.531 387.839H357.9V395.209H350.531V387.839Z" fill="#E9F1FF"/>
<path d="M350.531 433.958H357.9V441.328H350.531V433.958Z" fill="#E9F1FF"/>
<path d="M350.531 480.086H357.9V487.456H350.531V480.086Z" fill="#E9F1FF"/>
<path d="M350.531 526.205H357.9V533.575H350.531V526.205Z" fill="#E9F1FF"/>
<path d="M333.341 494.365V573.02H328.568V510.849C328.96 510.202 329.323 509.535 329.656 508.889C330.216 507.776 330.716 506.634 331.156 505.468C332.483 501.911 333.221 498.16 333.341 494.365Z" fill="#6E8EC8"/>
<path d="M333.341 173.356V492.444C333.233 486.477 331.59 480.638 328.568 475.49V173.356H333.341Z" fill="#6E8EC8"/>
<path d="M240.182 173.356H244.955V458.134H240.182V173.356Z" fill="#6E8EC8"/>
<path d="M240.182 528.214H244.955V573.02H240.182V528.214Z" fill="#6E8EC8"/>
<path d="M384.526 205.579V210.351H190.643V205.579L384.526 205.579Z" fill="#6E8EC8"/>
<path d="M384.526 370.797V375.569H190.643V370.797H384.526Z" fill="#6E8EC8"/>
<path d="M197.229 315.701H380.234V337.32H197.229V315.701Z" fill="#6E8EC8"/>
<path d="M761.709 296.16C760.278 296.581 758.867 297.062 757.495 297.601C755.654 298.323 753.86 299.161 752.125 300.109C750.89 300.786 749.685 301.521 748.518 302.305C743.989 305.31 740.011 309.073 736.758 313.428H510.545C505.777 313.428 501.911 309.562 501.911 304.794C501.911 300.025 505.777 296.16 510.545 296.16H761.709Z" fill="#6285B7"/>
<path d="M465.788 881.22L475.588 703.429C476.664 684.746 462.392 668.727 443.709 667.649L442.807 667.59C424.124 666.514 408.106 680.786 407.027 699.469L397.227 877.261C397.066 880.104 399.236 882.541 402.078 882.71L460.339 886.071C463.182 886.233 465.62 884.063 465.788 881.22Z" fill="#015D76"/>
<path d="M455.854 879.303L455.078 903.889L404.936 902.305L405.713 877.719L455.854 879.303Z" fill="#015D76"/>
<path d="M447.247 667.986L572.089 674.048C579.619 674.414 585.428 680.815 585.062 688.345L584.503 699.866C583.236 725.956 561.059 746.079 534.97 744.812L443.741 740.382C423.739 739.41 408.311 722.408 409.282 702.406C410.254 682.404 427.256 666.976 447.258 667.947L447.247 667.986Z" fill="#015D76"/>
<path d="M433.605 908.239L384.272 910.944C383.667 902.06 387.89 893.538 395.324 888.638C402.759 883.737 412.255 883.217 420.181 887.275C428.106 891.333 433.235 899.342 433.605 908.239Z" fill="#015D76"/>
<path d="M379.274 916.961L379.186 909.395C379.146 906.115 381.667 903.371 384.939 903.133L449.775 898.36C451.91 898.206 454.014 898.94 455.589 900.389C457.165 901.839 458.071 903.874 458.096 906.014L458.252 920.028L379.274 916.961Z" fill="#015D76"/>
<path d="M458.213 915.853L458.262 920.401C458.278 921.791 457.74 923.131 456.768 924.125C455.796 925.12 454.468 925.687 453.078 925.702L382.92 926.477C380.646 926.503 378.456 925.624 376.831 924.034C375.206 922.444 374.28 920.273 374.256 918C374.23 915.725 375.109 913.534 376.699 911.907C378.288 910.281 380.459 909.352 382.733 909.327L402.382 909.111C406.445 909.073 409.772 912.33 409.821 916.392L458.213 915.853Z" fill="#015D76"/>
<path d="M461.381 616.137C447.889 613.892 438.773 601.134 441.018 587.643C443.264 574.151 456.021 565.035 469.513 567.28L555.491 581.591C568.983 583.837 578.099 596.594 575.854 610.086C573.608 623.577 560.851 632.694 547.359 630.448L461.381 616.137Z" fill="#F9A0B4"/>
<ellipse cx="456.204" cy="590.882" rx="31.5756" ry="25.5584" transform="rotate(-1.9 456.204 590.882)" fill="#F9A0B4"/>
<path d="M475.411 567.835C477.076 568.718 478.322 570.226 478.873 572.028C479.425 573.829 479.237 575.776 478.351 577.439C477.467 579.105 475.957 580.351 474.154 580.902C472.351 581.453 470.402 581.265 468.738 580.379L449.216 569.952C447.551 569.07 446.306 567.562 445.754 565.76C445.203 563.958 445.39 562.011 446.276 560.348C447.158 558.683 448.667 557.438 450.468 556.886C452.27 556.335 454.217 556.523 455.88 557.408" fill="#F9A0B4"/>
<circle cx="548.353" cy="410.114" r="21.8148" fill="#4F182E"/>
<path d="M546.461 431.841C545.962 431.841 545.481 431.743 544.942 431.655C533.035 429.761 524.918 418.572 526.812 406.665C528.707 394.758 539.895 386.641 551.802 388.535C552.312 388.613 552.782 388.701 553.292 388.819C541.895 387.853 531.688 395.854 529.903 407.151C528.118 418.449 535.361 429.207 546.501 431.802L546.461 431.841Z" fill="#622F2B"/>
<path d="M572.912 413.995C571.03 425.894 559.86 434.015 547.961 432.135C547.451 432.057 546.952 431.959 546.462 431.841C535.322 429.246 528.079 418.488 529.864 407.191C531.649 395.893 541.856 387.892 553.253 388.858C553.763 388.858 554.233 388.966 554.772 389.044C566.671 390.926 574.791 402.096 572.912 413.995Z" fill="#512522"/>
<path d="M618.767 509.741L561.554 519.845L554.537 480.096L550.843 459.115L608.055 449.021L610.809 464.632L618.767 509.741Z" fill="#FFB2BF"/>
<path d="M556.437 496.243C555.651 493.539 557.206 490.709 559.911 489.922L610.926 475.091C613.631 474.305 616.461 475.86 617.247 478.565L623.603 500.427C624.389 503.132 622.834 505.962 620.13 506.748L569.114 521.579C566.409 522.365 563.579 520.81 562.793 518.106L556.437 496.243Z" fill="#FFF2EE"/>
<path d="M557.169 576.635L667.38 582.146L661.233 705.077L551.022 699.567L557.169 576.635Z" fill="#FFF2EE"/>
<ellipse cx="596.044" cy="565.55" rx="74.1958" ry="72.3632" transform="rotate(-87.15 596.044 565.55)" fill="#FFF2EE"/>
<path d="M596.187 639.768C594.923 639.768 593.659 639.768 592.385 639.679C552.469 637.719 521.766 602.9 523.785 561.975C525.803 521.05 559.829 489.455 599.744 491.464C600.96 491.523 602.165 491.621 603.361 491.739C565.141 491.876 533.183 522.716 531.213 562.299C529.243 601.881 558.055 635.926 596.187 639.768Z" fill="white"/>
<path d="M660.886 703.624C660.314 716.429 654.639 728.471 645.128 737.062C637.065 744.378 626.614 748.51 615.728 748.685H615.228C614.454 748.685 613.689 748.685 612.905 748.685L524.656 744.392C515.304 743.922 506.547 739.658 500.411 732.583C496.139 727.699 493.244 721.767 492.022 715.394C491.494 712.651 491.277 709.856 491.376 707.064C492.062 686.827 509.27 671.079 528.831 672.029L662.111 678.507L660.886 703.624Z" fill="#007391"/>
<path d="M550.441 729.144L549.275 730.418L536.035 744.912L468.415 818.931L405.92 887.306C403.123 890.356 398.384 890.567 395.327 887.776L355.695 851.516C354.227 850.175 353.351 848.306 353.261 846.319C353.171 844.332 353.874 842.391 355.215 840.922L379.323 814.58L474.285 710.7L499.765 682.839C512.557 668.839 534.276 667.861 548.275 680.653C562.274 693.445 563.253 715.164 550.461 729.163L550.441 729.144Z" fill="#007391"/>
<path d="M394.221 886.764L372.749 910.262L335.339 876.078L356.811 852.581L394.221 886.764Z" fill="#FFB2BF"/>
<path d="M394.223 886.757L387.169 894.477L349.759 860.293L356.813 852.573L394.223 886.757Z" fill="#F9A0B4"/>
<circle cx="620.903" cy="542.287" r="37.6614" fill="#F9CABD"/>
<path d="M594.188 545.597C593.157 530.038 604.934 516.589 620.493 515.559C636.052 514.528 649.501 526.305 650.532 541.864L656.176 627.065C657.206 642.624 645.429 656.073 629.87 657.103C614.311 658.134 600.862 646.357 599.832 630.798L594.188 545.597Z" fill="#329DA3"/>
<circle cx="626.155" cy="626.244" r="31.9382" fill="#F9CABD"/>
<path d="M628.615 605.793C642.283 606.289 652.961 617.772 652.464 631.44C651.968 645.108 640.485 655.786 626.817 655.289L539.714 652.126C526.045 651.629 515.368 640.147 515.864 626.479C516.361 612.81 527.843 602.133 541.511 602.629L628.615 605.793Z" fill="#FFB2BF"/>
<ellipse cx="531.42" cy="627.725" rx="31.5756" ry="25.5584" transform="rotate(-9.27 531.42 627.725)" fill="#FFB2BF"/>
<path d="M525.409 632.784C529.294 632.257 532.871 634.98 533.398 638.866C533.925 642.751 531.202 646.328 527.316 646.855L505.379 649.829C501.493 650.356 497.916 647.633 497.389 643.747C496.862 639.861 499.585 636.284 503.471 635.757L525.409 632.784Z" fill="#FFB2BF"/>
<path d="M511.368 621.199C515.254 620.673 518.831 623.396 519.357 627.282C519.883 631.168 517.159 634.745 513.273 635.271L491.335 638.241C487.45 638.767 483.873 636.043 483.347 632.157C482.821 628.271 485.544 624.695 489.43 624.169L511.368 621.199Z" fill="#FFB2BF"/>
<path d="M520.982 605.672C524.868 605.146 528.445 607.869 528.971 611.754C529.498 615.64 526.775 619.217 522.889 619.744L500.952 622.718C497.066 623.244 493.489 620.521 492.962 616.636C492.436 612.75 495.159 609.173 499.044 608.646L520.982 605.672Z" fill="#FFB2BF"/>
<path d="M547.459 602.46C551.127 603.848 552.974 607.946 551.586 611.614C550.198 615.281 546.1 617.129 542.433 615.741L521.728 607.905C518.06 606.517 516.213 602.419 517.601 598.751C518.989 595.084 523.087 593.236 526.754 594.624L547.459 602.46Z" fill="#FFB2BF"/>
<path d="M607.116 629.554C612.019 629.732 615.85 633.851 615.672 638.754C615.494 643.657 611.375 647.488 606.471 647.309L571.332 646.033C566.429 645.855 562.599 641.736 562.777 636.833C562.955 631.93 567.074 628.099 571.977 628.278L607.116 629.554Z" fill="#FDC3CD"/>
<path d="M610.809 464.632C602.557 476.233 589.064 482.955 574.833 482.556L564.21 482.262C560.874 482.177 557.588 481.438 554.537 480.086L550.843 459.114L608.055 449.04L610.809 464.632Z" fill="#F9A0B4"/>
<path d="M559.532 380.189L593.907 381.131C606.741 381.483 616.859 392.171 616.507 405.005L615.635 436.823C614.984 460.394 595.353 478.977 571.783 478.336L561.144 478.044C546.963 477.656 535.783 465.845 536.171 451.665L537.56 400.988C537.884 389.177 547.721 379.865 559.532 380.189V380.189Z" fill="#FFB2BF"/>
<path d="M601.92 382.772C600.771 382.573 599.608 382.459 598.441 382.429L564.073 381.449C552.26 381.131 542.422 390.442 542.091 402.255L540.651 452.96C540.36 463.764 546.857 473.597 556.909 477.568C544.594 475.159 535.824 464.201 536.172 451.657L537.554 401.02C537.89 389.212 547.726 379.906 559.535 380.224L593.904 381.204C596.648 381.242 599.364 381.773 601.92 382.772Z" fill="#FDC3CD"/>
<path d="M535.1 462.071C535.562 445.242 549.578 431.974 566.407 432.435C583.236 432.896 596.505 446.913 596.043 463.741L595.708 475.967C595.247 492.796 581.23 506.065 564.402 505.604C547.573 505.142 534.304 491.126 534.765 474.297L535.1 462.071Z" fill="#622F2B"/>
<path d="M527.881 462.069C528.342 445.24 542.358 431.972 559.187 432.433C576.016 432.894 589.285 446.911 588.824 463.74L588.488 475.966C588.027 492.794 574.011 506.063 557.182 505.602C540.353 505.141 527.084 491.124 527.546 474.295L527.881 462.069Z" fill="#622F2B"/>
<path d="M560.397 505.557C559.476 505.615 558.545 505.625 557.614 505.606H556.761C540.17 505.152 527.088 491.336 527.538 474.745L527.9 461.662C528.105 453.679 531.478 446.105 537.275 440.611C543.072 435.118 550.816 432.156 558.8 432.38H559.652H560.338C544.85 433.391 532.679 446.029 532.251 461.545L531.899 474.628C531.397 490.975 544.063 504.721 560.397 505.557Z" fill="#774340"/>
<path d="M600.81 395.888L617.003 396.332C621.093 396.444 624.318 399.85 624.206 403.941L623.448 431.586C623.326 436.039 619.618 439.549 615.165 439.427L615.106 439.426C606.552 439.191 599.808 432.067 600.043 423.513L600.8 395.887L600.81 395.888Z" fill="#622F2B"/>
<circle cx="613.268" cy="428.881" r="13.4554" fill="#FFB2BF"/>
<path d="M530.037 388.278C530.36 376.486 540.181 367.189 551.973 367.512L602.434 368.895C614.226 369.218 623.523 379.04 623.2 390.832C622.877 402.623 613.055 411.921 601.264 411.597L550.803 410.214C539.011 409.891 529.714 400.07 530.037 388.278Z" fill="#622F2B"/>
<path d="M548.454 388.773C548.649 381.645 554.586 376.025 561.714 376.22L592.24 377.057C599.368 377.252 604.988 383.189 604.793 390.317C604.597 397.445 598.66 403.065 591.532 402.87L561.007 402.033C553.879 401.838 548.258 395.901 548.454 388.773Z" fill="#774340"/>
<path d="M615.728 374.011C613.704 373.319 611.586 372.939 609.447 372.884L558.986 371.502C553.324 371.347 547.832 373.448 543.718 377.342C539.605 381.237 537.208 386.606 537.054 392.269V392.876C537.055 399.101 539.775 405.015 544.502 409.066C535.85 406.128 530.029 398.006 530.027 388.868C530.027 388.672 530.027 388.456 530.027 388.26C530.358 376.483 540.162 367.197 551.94 367.504L602.4 368.886C607.301 369.007 612.009 370.818 615.728 374.011Z" fill="#774340"/>
<path d="M555.262 440.759C555.247 443.121 556.166 445.393 557.82 447.08C558.026 447.286 558.241 447.482 558.457 447.668C560.043 448.995 562.043 449.726 564.111 449.736H564.474C569.114 449.769 573.003 446.234 573.412 441.612C573.412 441.376 573.412 441.122 573.412 440.877C573.419 440.418 573.242 439.975 572.919 439.648C572.596 439.322 572.156 439.139 571.697 439.142L556.997 439.044C556.539 439.041 556.099 439.221 555.774 439.542C555.449 439.864 555.264 440.302 555.262 440.759Z" fill="#962F4A"/>
<path d="M564.308 448.364C564.305 448.824 564.348 449.284 564.435 449.736C569.074 449.764 572.96 446.232 573.373 441.612C572.736 441.425 572.076 441.326 571.413 441.318C567.512 441.317 564.34 444.463 564.308 448.364Z" fill="#E1617F"/>
<path d="M557.33 439.044C557.389 440.798 560.074 442.209 563.396 442.239C566.718 442.268 569.413 440.877 569.492 439.122L557.33 439.044Z" fill="white"/>
<path d="M567.551 449.207C566.479 448.61 565.27 448.299 564.043 448.305C562.906 448.291 561.782 448.543 560.76 449.04C561.827 449.491 562.972 449.728 564.131 449.736H564.494C565.536 449.741 566.571 449.562 567.551 449.207Z" fill="white"/>
<circle cx="577.273" cy="428.009" r="3.0576" fill="#592702"/>
<circle cx="548.432" cy="427.264" r="3.0576" fill="#592702"/>
<path d="M354.764 900.389L315.691 870.146C321.062 863.072 329.816 859.426 338.62 860.595C347.424 861.764 354.923 867.568 358.262 875.798C361.601 884.028 360.265 893.416 354.764 900.389Z" fill="#007391"/>
<path d="M307.969 871.42L312.869 865.648C314.982 863.139 318.684 862.709 321.316 864.668L373.462 903.486C375.179 904.764 376.291 906.695 376.536 908.822C376.78 910.948 376.136 913.081 374.756 914.716L365.74 925.428L307.969 871.42Z" fill="#FFF2EE"/>
<path d="M368.386 922.243L365.446 925.692C364.544 926.761 363.254 927.427 361.86 927.543C360.466 927.659 359.083 927.215 358.017 926.31L304.48 881.014C300.879 877.945 300.441 872.54 303.5 868.931C306.567 865.325 311.976 864.886 315.583 867.951L330.577 880.691C333.657 883.311 334.042 887.926 331.44 891.02L368.386 922.243Z" fill="#007391"/>
<path d="M618.266 429.097C618.312 431.659 616.817 433.999 614.474 435.036C613.913 435.26 613.278 435.192 612.778 434.854C612.278 434.517 611.977 433.954 611.975 433.35L611.828 425.069C611.814 424.436 612.127 423.84 612.657 423.491C613.186 423.143 613.858 423.091 614.434 423.354C616.725 424.354 618.222 426.598 618.266 429.097Z" fill="#F9A0B4"/>
<path d="M518.222 670.125L505.414 669.96L505.446 667.51C505.476 665.188 507.382 663.33 509.704 663.36L514.104 663.417C516.425 663.447 518.283 665.353 518.253 667.675L518.222 670.125V670.125Z" fill="#D7E2FF"/>
<path d="M531.034 670.293L518.227 670.127L518.258 667.678C518.288 665.356 520.195 663.498 522.516 663.528L526.906 663.585C529.228 663.615 531.086 665.521 531.056 667.843L531.024 670.293L531.034 670.293Z" fill="#D7E2FF"/>
<path d="M543.836 670.451L531.028 670.285L531.06 667.835C531.09 665.514 532.996 663.656 535.318 663.686L539.708 663.743C542.03 663.773 543.888 665.679 543.858 668.001L543.826 670.451L543.836 670.451Z" fill="#D7E2FF"/>
<path d="M556.647 670.609L543.84 670.443L543.872 667.994C543.902 665.672 545.808 663.814 548.13 663.844L552.539 663.901C554.861 663.931 556.719 665.837 556.689 668.159L556.657 670.609L556.647 670.609Z" fill="#D7E2FF"/>
<path d="M569.449 670.786L556.642 670.621L556.673 668.171C556.703 665.849 558.61 663.992 560.931 664.022L565.322 664.078C567.643 664.108 569.501 666.015 569.471 668.336L569.439 670.786L569.449 670.786Z" fill="#D7E2FF"/>
<path d="M582.252 670.944L569.444 670.779L569.476 668.329C569.506 666.007 571.412 664.15 573.734 664.18L578.124 664.236C580.446 664.266 582.304 666.173 582.274 668.494L582.242 670.944L582.252 670.944Z" fill="#D7E2FF"/>
<path d="M595.063 671.102L582.256 670.937L582.288 668.487C582.318 666.165 584.224 664.308 586.546 664.338L590.936 664.394C593.257 664.424 595.115 666.331 595.085 668.652L595.054 671.102L595.063 671.102Z" fill="#D7E2FF"/>
<path d="M612.066 672.945C612.029 675.826 609.663 678.132 606.781 678.095L471.033 676.342C468.151 676.305 465.845 673.938 465.882 671.056C465.919 668.175 468.286 665.869 471.168 665.906L606.916 667.659C609.798 667.696 612.104 670.063 612.066 672.945Z" fill="#64617F"/>
<path d="M506.037 676.841L384.066 675.273C378.952 675.209 374.536 671.675 373.355 666.698L350.815 571.952C350.031 568.609 350.829 565.091 352.977 562.412C355.126 559.734 358.387 558.192 361.82 558.232L469.473 559.613C474.585 559.684 478.997 563.216 480.185 568.188L506.037 676.841Z" fill="#7D7BA3"/>
<path d="M350.795 571.952L373.335 666.698C374.517 671.674 378.932 675.209 384.046 675.273L506.017 676.841L503.528 666.375L407.155 665.13C402.039 665.07 397.622 661.533 396.443 656.555L373.903 561.809C373.634 560.68 373.541 559.516 373.629 558.359L361.82 558.202C358.377 558.155 355.104 559.698 352.949 562.384C350.795 565.071 350 568.601 350.795 571.952Z" fill="#64617F"/>
<circle cx="420.826" cy="620.481" r="6.1054" fill="#D7E2FF"/>
<path d="M412.535 629.517C415.122 633.674 419.982 635.836 424.802 634.973C429.622 634.111 433.43 630.398 434.416 625.602C435.401 620.805 433.364 615.892 429.274 613.2C432.219 617.972 431.458 624.15 427.442 628.065C423.426 631.98 417.231 632.583 412.535 629.517H412.535Z" fill="#D7E2FF"/>
<path d="M592.305 227.832C596.112 237.069 591.71 247.644 582.473 251.452L573.349 255.212C571.516 250.765 571.529 245.771 573.386 241.334C575.243 236.897 578.79 233.382 583.244 231.566L592.305 227.832L592.305 227.832Z" fill="#6E8EC8"/>
<path d="M569.076 210.188C578.314 213.996 582.715 224.57 578.908 233.808L575.147 242.932C565.91 239.124 561.508 228.55 565.316 219.312L569.076 210.188Z" fill="#6285B7"/>
<path d="M573.396 255.172L564.335 251.438C559.888 249.613 556.35 246.094 554.502 241.657C552.654 237.221 552.647 232.23 554.483 227.789L563.607 231.549C572.829 235.374 577.21 245.946 573.396 255.172Z" fill="#6E8EC8"/>
<path d="M605.027 263.742C605.027 281.621 590.533 296.116 572.653 296.116C554.773 296.116 540.278 281.621 540.278 263.742C540.276 262.494 540.348 261.247 540.494 260.008C540.656 258.581 540.915 257.166 541.268 255.774H604.047C604.402 257.166 604.657 258.58 604.811 260.008C604.962 261.247 605.034 262.494 605.027 263.742Z" fill="#6E8EC8"/>
<rect x="536.299" y="247.297" width="74.2154" height="8.477" rx="4.2385" fill="#6285B7"/>
<path d="M604.86 260.008H540.493C540.656 258.581 540.914 257.166 541.267 255.774H604.046C604.417 257.164 604.689 258.579 604.86 260.008Z" fill="#4575AF"/>
<path d="M747.373 242.687C750.351 249.913 746.908 258.185 739.682 261.163L732.552 264.102C729.573 256.876 733.017 248.604 740.242 245.626L747.373 242.687V242.687Z" fill="#6E8EC8"/>
<path d="M729.179 228.898C736.404 231.877 739.848 240.149 736.87 247.374L733.931 254.505C726.705 251.527 723.261 243.255 726.24 236.029L729.179 228.898V228.898Z" fill="#6285B7"/>
<path d="M732.573 264.111L725.443 261.172C718.217 258.193 714.773 249.921 717.752 242.696L724.882 245.635C732.108 248.613 735.551 256.885 732.573 264.111V264.111Z" fill="#6E8EC8"/>
<path d="M757.309 270.788C757.489 279.955 752.701 288.505 744.791 293.142C736.88 297.778 727.081 297.778 719.17 293.142C711.26 288.505 706.472 279.955 706.652 270.788C706.648 269.805 706.703 268.823 706.819 267.848C706.941 266.73 707.144 265.623 707.427 264.535H756.534C757.05 266.573 757.31 268.667 757.309 270.768V270.788Z" fill="#6E8EC8"/>
<rect x="703.536" y="257.93" width="58.0552" height="6.6248" rx="3.3124" fill="#6285B7"/>
<path d="M757.142 267.867H706.78C706.902 266.75 707.105 265.643 707.388 264.555H756.496C756.782 265.644 756.998 266.75 757.142 267.867Z" fill="#4575AF"/>
<path d="M638.523 177.012H653.86C658.618 177.012 662.475 180.868 662.475 185.626V296.16H629.909V185.626C629.909 180.868 633.766 177.012 638.523 177.012Z" fill="#6E8EC8"/>
<circle cx="646.196" cy="236.566" r="10.5056" fill="#4575AF"/>
<path d="M646.196 244.151C645.813 244.203 645.426 244.226 645.04 244.22C640.802 244.22 637.366 240.784 637.366 236.547C637.366 232.309 640.802 228.873 645.04 228.873C645.437 228.871 645.834 228.904 646.225 228.971C642.493 229.558 639.744 232.774 639.744 236.551C639.744 240.329 642.493 243.545 646.225 244.132L646.196 244.151Z" fill="#6E8EC8"/>
<path d="M668.913 207.303H680.32C683.865 207.303 686.739 210.177 686.739 213.722V296.16H662.494V213.722C662.494 210.177 665.368 207.303 668.913 207.303V207.303Z" fill="#6285B7"/>
<circle cx="674.636" cy="251.707" r="7.84" fill="#6E8EC8"/>
<path d="M674.636 257.362C674.342 257.413 674.044 257.439 673.745 257.44C670.584 257.44 668.021 254.878 668.021 251.717C668.021 248.556 670.584 245.994 673.745 245.994C674.043 245.992 674.342 246.014 674.636 246.062C671.865 246.511 669.828 248.904 669.828 251.712C669.828 254.52 671.865 256.913 674.636 257.362Z" fill="#E9F1FF"/>
<path d="M313.006 915.569H301.246V248.62C301.7 210.285 332.905 179.447 371.243 179.447C409.58 179.447 440.785 210.285 441.239 248.62V325.315H429.44V248.62C429.026 216.752 403.075 191.134 371.203 191.134C339.332 191.134 313.38 216.752 312.967 248.62L313.006 915.569Z" fill="#34629B"/>
<circle cx="436.663" cy="373.188" r="36.1228" fill="#BBD7FF"/>
<path d="M472.785 373.188C472.782 384.015 467.925 394.269 459.549 401.13C451.174 407.991 440.163 410.734 429.548 408.605C446.423 405.22 458.566 390.399 458.566 373.188C458.566 355.977 446.423 341.156 429.548 337.771C440.163 335.642 451.174 338.385 459.549 345.246C467.925 352.106 472.782 362.361 472.785 373.188Z" fill="#D4E6FC"/>
<path d="M512.132 373.188H358.586C358.586 320.268 392.974 277.442 435.359 277.442C477.744 277.442 512.132 320.307 512.132 373.188Z" fill="#547DBA"/>
<path d="M512.132 373.188H358.586C358.586 320.268 392.974 277.442 435.359 277.442C477.744 277.442 512.132 320.307 512.132 373.188Z" fill="#547DBA"/>
<path d="M512.122 373.188H486.28C486.28 325.805 458.683 286.458 422.433 278.804C426.668 277.898 430.988 277.441 435.32 277.442C477.763 277.442 512.122 320.307 512.122 373.188Z" fill="#34629B"/>
<rect x="229.726" y="906.563" width="154.801" height="17.9928" rx="8.9964" fill="#547DBA"/>
<path d="M384.526 915.569C384.526 920.538 380.499 924.565 375.53 924.565H349.56C352.847 924.674 355.931 922.982 357.607 920.153C359.282 917.323 359.282 913.805 357.607 910.975C355.931 908.146 352.847 906.454 349.56 906.563H375.54C380.506 906.574 384.526 910.603 384.526 915.569Z" fill="#34629B"/>
<path d="M705.662 670.128V926.006H621.52V754.222C621.522 731.911 630.39 710.515 646.17 694.744C661.951 678.972 683.352 670.118 705.662 670.128V670.128Z" fill="#BBD7FF"/>
<path d="M705.663 670.128H917.735V912.511C917.735 919.97 911.689 926.016 904.231 926.016H705.663V670.128L705.663 670.128Z" fill="#34629B"/>
<rect x="651.204" y="740.159" width="20.1194" height="150.058" rx="10.0597" fill="#D4E6FC"/>
</svg>
