<svg id="visual" viewBox="0 0 900 600" width="900" height="600" xmlns="http://www.w3.org/2000/svg" xmlns:xlink="http://www.w3.org/1999/xlink" version="1.1"><rect width="900" height="600" fill="#121212"></rect><g><g transform="translate(579 246)"><path d="M0 -19.4L16.8 -9.7L16.8 9.7L0 19.4L-16.8 9.7L-16.8 -9.7Z" fill="#a318b6"></path></g><g transform="translate(835 490)"><path d="M0 -17L14.7 -8.5L14.7 8.5L0 17L-14.7 8.5L-14.7 -8.5Z" fill="#a318b6"></path></g><g transform="translate(775 459)"><path d="M0 -16L13.9 -8L13.9 8L0 16L-13.9 8L-13.9 -8Z" fill="#a318b6"></path></g><g transform="translate(319 249)"><path d="M0 -5L4.3 -2.5L4.3 2.5L0 5L-4.3 2.5L-4.3 -2.5Z" fill="#a318b6"></path></g><g transform="translate(12 219)"><path d="M0 -13L11.3 -6.5L11.3 6.5L0 13L-11.3 6.5L-11.3 -6.5Z" fill="#a318b6"></path></g><g transform="translate(275 520)"><path d="M0 -4L3.5 -2L3.5 2L0 4L-3.5 2L-3.5 -2Z" fill="#a318b6"></path></g><g transform="translate(448 492)"><path d="M0 -18L15.6 -9L15.6 9L0 18L-15.6 9L-15.6 -9Z" fill="#a318b6"></path></g><g transform="translate(385 340)"><path d="M0 -17L14.7 -8.5L14.7 8.5L0 17L-14.7 8.5L-14.7 -8.5Z" fill="#a318b6"></path></g><g transform="translate(123 47)"><path d="M0 -9L7.8 -4.5L7.8 4.5L0 9L-7.8 4.5L-7.8 -4.5Z" fill="#a318b6"></path></g><g transform="translate(680 142)"><path d="M0 -6L5.2 -3L5.2 3L0 6L-5.2 3L-5.2 -3Z" fill="#a318b6"></path></g><g transform="translate(478 248)"><path d="M0 -9L7.8 -4.5L7.8 4.5L0 9L-7.8 4.5L-7.8 -4.5Z" fill="#a318b6"></path></g><g transform="translate(155 498)"><path d="M0 -14L12.1 -7L12.1 7L0 14L-12.1 7L-12.1 -7Z" fill="#a318b6"></path></g><g transform="translate(456 334)"><path d="M0 -9L7.8 -4.5L7.8 4.5L0 9L-7.8 4.5L-7.8 -4.5Z" fill="#a318b6"></path></g></g></svg>