<svg width="1214" height="682" viewBox="0 0 1214 682" fill="none" xmlns="http://www.w3.org/2000/svg">
<path d="M1213.51 681.178H0.0469971" stroke="#B1B5BA" stroke-miterlimit="10"/>
<path d="M1080.63 396.78H1158.35C1158.87 396.784 1159.39 396.693 1159.87 396.515C1160.35 396.336 1160.78 396.073 1161.15 395.739C1161.51 395.407 1161.8 395.011 1162 394.575C1162.2 394.139 1162.3 393.672 1162.29 393.201C1162.3 392.73 1162.2 392.263 1162 391.827C1161.8 391.391 1161.51 390.995 1161.15 390.663C1160.78 390.329 1160.35 390.066 1159.87 389.887C1159.39 389.709 1158.87 389.619 1158.35 389.623H1080.63V396.78Z" fill="#B0B4B9"/>
<path d="M1148.26 393.319H1069.85V612.654H1148.26V393.319Z" fill="#B0B4B9"/>
<path d="M1072.28 393.319H832.44V612.654H1072.28V393.319Z" fill="#D8DBDD"/>
<path d="M1060.13 595.922H843.67V423.82L1060.12 424.029V595.922H1060.13ZM845.41 594.342H1058.41V425.592H845.41V594.342Z" fill="#B0B4B9"/>
<path d="M823.524 396.78H1080.74C1081.26 396.784 1081.78 396.693 1082.26 396.515C1082.74 396.336 1083.17 396.073 1083.54 395.739C1083.91 395.407 1084.2 395.011 1084.39 394.575C1084.59 394.139 1084.69 393.672 1084.68 393.201C1084.69 392.73 1084.59 392.263 1084.39 391.827C1084.2 391.391 1083.91 390.995 1083.54 390.663C1083.17 390.329 1082.74 390.066 1082.26 389.887C1081.78 389.709 1081.26 389.619 1080.74 389.623H823.534C823.015 389.619 822.501 389.709 822.021 389.887C821.542 390.066 821.106 390.329 820.739 390.663C820.372 390.995 820.082 391.391 819.886 391.827C819.689 392.263 819.59 392.73 819.594 393.201C819.609 394.144 820.028 395.045 820.761 395.713C821.495 396.381 822.485 396.763 823.524 396.78Z" fill="#D8DBDD"/>
<path d="M1060.12 508.813H843.67V510.394H1060.12V508.813Z" fill="#B0B4B9"/>
<path d="M942.58 451.488C945.91 451.488 948.6 449.04 948.6 446.02C948.6 443 945.91 440.552 942.58 440.552C939.26 440.552 936.56 443 936.56 446.02C936.56 449.04 939.26 451.488 942.58 451.488Z" fill="#B0B4B9"/>
<path opacity="0.15" d="M944.78 446.02C944.79 444.889 944.4 443.786 943.69 442.861C942.97 441.936 941.95 441.238 940.78 440.861C941.42 440.64 942.1 440.532 942.78 440.543C944.37 440.543 945.9 441.117 947.02 442.139C948.15 443.161 948.78 444.547 948.78 445.993C948.78 447.438 948.15 448.824 947.02 449.846C945.9 450.869 944.37 451.443 942.78 451.443C942.1 451.446 941.42 451.341 940.78 451.134C941.94 450.753 942.95 450.06 943.66 449.147C944.38 448.232 944.77 447.141 944.78 446.02Z" fill="black"/>
<path d="M942.58 536.172C945.91 536.172 948.6 533.724 948.6 530.704C948.6 527.684 945.91 525.236 942.58 525.236C939.26 525.236 936.56 527.684 936.56 530.704C936.56 533.724 939.26 536.172 942.58 536.172Z" fill="#B0B4B9"/>
<path opacity="0.15" d="M944.78 530.704C944.79 529.574 944.4 528.469 943.69 527.546C942.97 526.621 941.95 525.922 940.78 525.545C941.42 525.327 942.1 525.223 942.78 525.236C944.37 525.236 945.9 525.811 947.02 526.833C948.15 527.855 948.78 529.241 948.78 530.686C948.78 532.132 948.15 533.518 947.02 534.54C945.9 535.562 944.37 536.136 942.78 536.136C942.1 536.139 941.42 536.035 940.78 535.827C941.94 535.447 942.95 534.752 943.67 533.836C944.38 532.92 944.77 531.828 944.78 530.704Z" fill="black"/>
<path d="M1084.68 404.137L1072.28 396.779H832.44V400.158L1084.68 404.137Z" fill="#B0B4B9"/>
<path d="M1132.85 612.645L1138.85 673.34C1138.96 673.857 1138.95 674.393 1138.81 674.902C1138.66 675.411 1138.4 675.892 1138.04 676.301C1137.67 676.71 1137.22 677.046 1136.7 677.282C1136.17 677.518 1135.6 677.645 1135.02 677.654C1134.21 677.645 1133.41 677.409 1132.75 676.973C1132.09 676.537 1131.6 675.928 1131.33 675.229L1113.84 612.636L1132.85 612.645Z" fill="#D8DBDD"/>
<path d="M1130.66 647.997L1123.36 646.416L1114 612.754H1133L1139 673.448C1139.17 674.257 1139.03 675.083 1138.61 675.81C1138.19 676.537 1137.51 677.109 1136.69 677.445L1130.66 647.997Z" fill="#B0B4B9"/>
<path d="M1064.65 612.645L1070.65 673.34C1070.76 673.857 1070.74 674.393 1070.6 674.902C1070.46 675.411 1070.2 675.892 1069.84 676.301C1069.47 676.71 1069.02 677.046 1068.5 677.282C1067.98 677.509 1067.41 677.636 1066.83 677.654C1066.01 677.645 1065.22 677.4 1064.56 676.964C1063.9 676.537 1063.4 675.928 1063.13 675.229L1045.65 612.636L1064.65 612.645Z" fill="#D8DBDD"/>
<path d="M1058.27 619.385L1047.38 617.486L1045.53 612.654H1064.53L1070.53 673.349C1070.69 674.157 1070.55 674.984 1070.13 675.71C1069.71 676.437 1069.03 677.009 1068.21 677.345L1058.27 619.385Z" fill="#B0B4B9"/>
<path d="M914.32 612.645L908.32 673.34C908.21 673.857 908.23 674.393 908.37 674.902C908.51 675.411 908.77 675.892 909.14 676.301C909.5 676.71 909.96 677.046 910.48 677.282C911 677.518 911.57 677.645 912.15 677.654C912.97 677.645 913.76 677.409 914.42 676.973C915.08 676.537 915.58 675.928 915.84 675.229L933.33 612.636L914.32 612.645Z" fill="#D8DBDD"/>
<path d="M917.68 644.936L911.2 643.464L914.33 612.636H933.33L915.85 675.229C915.58 675.928 915.08 676.537 914.42 676.964C913.76 677.4 912.97 677.645 912.15 677.654H911.92L917.68 644.936Z" fill="#B0B4B9"/>
<path d="M844.26 612.645L838.26 673.34C838.15 673.857 838.17 674.393 838.31 674.902C838.45 675.411 838.71 675.892 839.07 676.301C839.43 676.71 839.89 677.046 840.41 677.282C840.93 677.509 841.5 677.636 842.08 677.654C842.89 677.645 843.69 677.4 844.35 676.964C845.01 676.537 845.51 675.928 845.78 675.229L863.26 612.636L844.26 612.645Z" fill="#D8DBDD"/>
<path d="M851.66 617.904L843.33 616.542L844.26 612.645H863.26L845.78 675.238C845.51 675.937 845.01 676.546 844.35 676.973C843.69 677.409 842.9 677.645 842.08 677.663H841.85L851.66 617.904Z" fill="#B0B4B9"/>
<path d="M998.8 269.122C992.66 265.626 985.72 263.451 978.51 262.764C975.19 262.455 971.51 262.537 968.91 264.372C968.35 264.762 967.79 265.325 967.91 265.952C968.06 266.413 968.39 266.807 968.84 267.06C973.15 269.845 978.22 271.509 983.49 271.871C988.77 272.232 994.05 271.279 998.78 269.113" fill="#D1D3D4"/>
<path d="M998.28 268.595C993.59 265.457 989.21 261.955 985.18 258.131C981.15 254.263 978.32 249.497 976.97 244.316C976.7 243.547 976.62 242.736 976.74 241.938C976.85 241.139 977.16 240.373 977.63 239.692C988.07 247.113 996.33 256.687 998.21 268.577" fill="#D1D3D4"/>
<path d="M998.69 269.059C997.72 263.877 997.81 258.58 998.94 253.426C1000.1 248.229 1003.37 243.617 1008.1 240.51C1009.97 244.352 1009.1 248.766 1007.86 252.772C1005.88 258.975 1002.81 264.846 998.77 270.158" fill="#D1D3D4"/>
<path d="M1008.93 285.764C1002.78 286.656 997.09 289.269 992.65 293.239C987.96 297.098 984.7 302.171 983.29 307.773C989.39 307.427 994.52 303.522 998.29 299.134C1002.06 294.747 1004.65 289.96 1008.77 285.864" fill="#858990"/>
<path d="M1011.15 288.433C1008.71 282.783 1007.85 276.668 1008.66 270.642C1009.47 264.616 1011.92 258.867 1015.79 253.917C1017.65 259.654 1018.2 265.675 1017.4 271.611C1016.6 277.546 1014.48 283.271 1011.15 288.433Z" fill="#D1D3D4"/>
<path d="M1024.7 303.031C1019.02 302.716 1013.35 303.925 1008.42 306.509C1003.48 309.093 999.49 312.937 996.93 317.565C996.72 317.85 996.59 318.182 996.55 318.528C996.52 318.873 996.59 319.221 996.75 319.536C996.99 319.756 997.29 319.919 997.62 320.006C997.94 320.093 998.29 320.103 998.62 320.035C1004.08 319.708 1008.93 316.72 1012.93 313.323C1016.93 309.925 1020.41 305.983 1024.83 303.04" fill="#D1D3D4"/>
<path d="M1024.27 302.231C1021.35 293.714 1021.17 284.616 1023.74 276.007C1024.74 272.61 1026.47 269.077 1029.92 267.514C1030.06 267.43 1030.21 267.373 1030.37 267.345C1030.53 267.319 1030.7 267.324 1030.85 267.36C1031.14 267.489 1031.35 267.714 1031.45 267.987C1032.61 270.346 1033.1 272.925 1032.89 275.499C1032.7 278.07 1032.27 280.623 1031.6 283.129C1030.52 287.788 1029.94 292.784 1027.13 296.754C1026.44 297.721 1025.82 298.725 1025.26 299.76C1024.72 300.778 1024.72 301.132 1024.26 301.949" fill="#B2B6BB"/>
<path d="M1060.09 307.072C1058.89 302.285 1058.86 297.318 1059.98 292.516C1061.11 287.715 1063.38 283.194 1066.62 279.268C1066.82 278.962 1067.09 278.703 1067.42 278.513C1067.74 278.324 1068.12 278.209 1068.5 278.178C1069.66 278.287 1069.97 279.713 1069.92 280.767C1069.44 290.21 1066.04 299.339 1060.11 307.109" fill="#D1D3D4"/>
<path d="M1063.31 309.08C1069.59 310.414 1076.1 310.498 1082.41 309.322C1088.73 308.148 1094.68 305.744 1099.87 302.276C1093.75 299.496 1086.76 298.717 1080.08 300.069C1073.48 301.145 1067.51 304.319 1063.24 309.025" fill="#D1D3D4"/>
<path d="M1066 302.967C1069.63 297.893 1074.52 293.67 1080.29 290.642C1086.06 287.615 1092.53 285.868 1099.18 285.545C1098.28 287.935 1096.85 290.133 1094.98 292.007C1093.11 293.88 1090.85 295.39 1088.32 296.445C1083.25 298.509 1077.89 299.934 1072.4 300.678C1070.29 301.05 1067.4 301.459 1066 302.967Z" fill="#B2B6BB"/>
<path d="M1060.77 273.337C1062.85 267.619 1064.27 261.718 1065 255.733C1065.73 249.667 1064.37 243.544 1061.1 238.212C1057.84 243.675 1056.08 249.776 1055.98 255.993C1055.88 262.21 1057.45 268.355 1060.54 273.9" fill="#D1D3D4"/>
<path d="M1082.38 263.436C1089.86 251.046 1105.2 241.136 1120.69 239.756C1114.69 253.272 1098.41 263.718 1082.38 263.436Z" fill="#858990"/>
<path d="M1077.66 265.861C1088.89 267.405 1098.39 273.9 1108.85 277.76C1111.05 278.722 1113.48 279.147 1115.9 278.996C1117.01 278.939 1118.07 278.588 1118.96 277.985C1119.84 277.382 1120.51 276.554 1120.88 275.607C1121.25 274.659 1121.3 273.634 1121.03 272.659C1120.76 271.685 1120.17 270.805 1119.35 270.13C1117.88 268.887 1116.14 267.926 1114.24 267.306C1102.84 262.991 1090.63 262.891 1078.69 265.489" fill="#D1D3D4"/>
<path d="M1071.19 272.992C1073.71 273.655 1074.58 274.808 1076.6 276.389C1083.43 281.683 1091.52 285.465 1100.24 287.434C1101.14 287.643 1102.32 287.725 1102.77 286.98C1103.22 286.235 1102.77 285.554 1102.15 284.973C1098.35 280.921 1093.42 277.879 1087.88 276.171C1082.41 274.354 1077.7 272.092 1071.19 272.537" fill="#D1D3D4"/>
<path d="M1063.87 229.918C1068.46 233.762 1073.88 236.691 1079.79 238.519C1085.7 240.345 1091.97 241.03 1098.19 240.528C1098.76 240.528 1099.3 240.344 1099.74 240.01C1100.62 239.165 1099.57 237.839 1098.56 237.122C1088.48 229.991 1076.26 227.03 1063.87 229.918Z" fill="#D1D3D4"/>
<path d="M1072.54 227.048C1078.62 222.98 1085.67 220.277 1093.11 219.16C1100.56 218.044 1108.19 218.546 1115.38 220.626C1109.78 225.353 1102.59 228.233 1094.97 228.801C1087.44 229.43 1079.84 228.855 1072.52 227.103" fill="#B2B6BB"/>
<path d="M1069.09 207.246C1068.09 198.109 1068.74 190.896 1068.09 181.759C1068.09 181.032 1067.86 180.142 1067.09 179.869C1066.32 179.597 1065.22 180.687 1064.83 181.686C1063.35 185.95 1062.97 190.463 1063.71 194.881C1064.45 199.299 1066.3 203.504 1069.11 207.174" fill="#D1D3D4"/>
<path d="M1068.36 208.273C1074.94 204.407 1080.61 199.4 1085.05 193.54C1088.35 189.443 1091.11 184.529 1090.37 179.515C1088.05 179.576 1085.78 180.096 1083.71 181.037C1081.63 181.978 1079.81 183.318 1078.37 184.965C1075.49 188.278 1073.4 192.097 1072.23 196.183C1070.9 200.189 1069.97 204.358 1068.49 208.3" fill="#D1D3D4"/>
<path d="M1084.75 204.194C1099.76 199.112 1113.65 191.628 1125.75 182.095C1120.85 180.396 1115.24 181.386 1110.33 183.185C1099.2 187.007 1090.01 194.41 1084.5 203.986" fill="#858990"/>
<path d="M1073 213.269C1080.55 214.242 1088.22 214.275 1095.78 213.369C1103.12 211.981 1110.26 209.826 1117.05 206.947C1117.66 206.791 1118.18 206.431 1118.51 205.938C1118.63 205.642 1118.65 205.318 1118.55 205.013C1118.46 204.708 1118.26 204.437 1117.99 204.24C1117.44 203.85 1116.8 203.589 1116.12 203.477C1108.49 201.792 1100.48 202.225 1093.12 204.721C1086.08 206.9 1079.31 209.746 1072.93 213.214" fill="#D1D3D4"/>
<path d="M1029.71 230.228C1027.26 225.495 1025.96 220.341 1025.9 215.114C1025.84 209.886 1027.01 204.707 1029.34 199.926C1032.48 204.277 1032.87 209.818 1032.34 215.005C1031.81 220.191 1030.02 225.505 1029.91 230.701" fill="#D1D3D4"/>
<path d="M1009.06 220.781C1002.59 220.699 996.17 221.846 990.21 224.149C984.25 226.451 978.89 229.858 974.46 234.151C980.99 234.859 987.59 233.743 993.4 230.954C999.17 228.184 1004.61 224.882 1009.64 221.099" fill="#D1D3D4"/>
<path d="M995.17 216.548C988.85 216.085 982.77 215.376 976.71 217.075C973.64 217.851 970.8 219.221 968.37 221.09C965.94 222.959 963.99 225.282 962.64 227.902C968.62 228.349 974.61 227.326 980 224.941C985.34 222.562 990.43 219.752 995.22 216.548" fill="#D1D3D4"/>
<path d="M1015.74 216.748C1010.12 213.351 1004.21 209.953 997.61 208.527C991.01 207.101 983.31 208.155 978.71 212.687C984.06 215.54 990.55 215.885 996.77 215.867C1002.99 215.848 1010.59 215.867 1016.43 217.683" fill="#D1D3D4"/>
<path d="M1015.75 217.02C1006.04 208.355 1002.36 192.786 1006.27 180.959C1013.94 191.617 1017.29 204.364 1015.75 217.02Z" fill="#858990"/>
<path d="M1042.41 192.486C1044.29 188.607 1045.52 184.547 1047.17 180.587C1048.68 176.605 1050.98 172.909 1053.96 169.687C1057 166.449 1061.3 164.418 1065.96 164.028C1064.47 169.995 1061.62 175.612 1057.6 180.522C1053.58 185.431 1048.48 189.525 1042.61 192.541" fill="#858990"/>
<path d="M1037.63 197.6C1034.63 193.812 1031.1 188.662 1027 185.792C1025.01 184.306 1022.68 183.232 1020.18 182.646C1017.67 182.059 1015.06 181.973 1012.52 182.395C1015.11 186.545 1018.72 190.088 1023.08 192.744C1027.44 195.4 1032.43 197.094 1037.63 197.691" fill="#B2B6BB"/>
<path d="M1038.67 192.786C1036.47 188.271 1034.84 183.545 1033.81 178.698C1032.81 173.811 1033.67 168.76 1036.24 164.373C1041.57 173.52 1043.24 183.339 1038.88 192.886" fill="#D1D3D4"/>
<path d="M1042.51 164.373C1045.51 155.29 1054.69 148.605 1064.57 145.543C1065.79 145.088 1067.11 144.908 1068.42 145.017C1069.07 145.078 1069.7 145.317 1070.2 145.703C1070.71 146.088 1071.08 146.602 1071.26 147.178C1071.64 148.723 1070.26 150.103 1068.91 151.139C1061.18 157.121 1052.2 161.623 1042.51 164.373Z" fill="#D1D3D4"/>
<path d="M1042.62 156.952C1042.72 151.082 1043.69 145.249 1045.5 139.612C1047.6 134.071 1051.64 128.875 1057.5 126.441C1058.5 132.354 1055.63 138.249 1052.17 143.318C1048.71 148.386 1044.54 153.21 1042.46 158.869" fill="#B2B6BB"/>
<path d="M1042.41 160.976C1039.91 154.363 1039.66 145.952 1035.31 140.193C1032.31 136.16 1027.37 133.39 1024.73 129.166C1023.16 133.256 1023.38 137.738 1025.35 141.683C1027.34 145.586 1030.07 149.138 1033.42 152.174C1036.65 155.317 1039.42 157.624 1042.42 160.976" fill="#858990"/>
<path d="M1042.51 355.724C1042.32 355.724 1042.15 311.542 1042.13 257.16C1042.11 202.778 1042.27 158.597 1042.47 158.597C1042.67 158.597 1042.83 202.778 1042.85 257.16C1042.87 311.542 1042.71 355.724 1042.51 355.724Z" fill="#D1D3D4"/>
<path d="M1085 223.579C1084.4 223.834 1083.77 224.041 1083.13 224.197L1078.13 225.741C1073.89 227.049 1068.07 228.957 1061.75 231.3C1055.43 233.644 1049.6 235.715 1046.24 238.367C1044.89 239.373 1043.82 240.656 1043.13 242.109C1042.64 243.145 1042.55 243.808 1042.49 243.808C1042.43 243.808 1042.49 243.635 1042.49 243.345C1042.56 242.904 1042.68 242.472 1042.85 242.055C1043.47 240.517 1044.5 239.144 1045.85 238.058C1047.87 236.503 1050.14 235.221 1052.57 234.252C1055.26 233.117 1058.18 231.927 1061.41 230.755C1067.76 228.393 1073.61 226.559 1077.9 225.305C1080.05 224.696 1081.79 224.251 1083 223.943C1083.65 223.756 1084.32 223.635 1085 223.579Z" fill="#D1D3D4"/>
<path d="M1098.88 192.531C1098.72 192.71 1098.55 192.875 1098.35 193.022L1096.8 194.366L1091.06 199.09L1071.69 214.758C1064.21 220.862 1057.61 226.658 1052.99 231.109C1050.7 233.298 1048.93 235.123 1047.71 236.395L1046.31 237.857C1045.97 238.175 1045.8 238.348 1045.78 238.33C1045.89 238.128 1046.03 237.939 1046.19 237.767C1046.49 237.412 1046.9 236.858 1047.5 236.222C1048.66 234.914 1050.38 233.043 1052.61 230.772C1058.46 224.976 1064.64 219.464 1071.13 214.259C1078.62 208.155 1085.61 202.687 1090.63 198.726L1096.63 194.085L1098.27 192.849C1098.46 192.72 1098.66 192.613 1098.88 192.531Z" fill="#D1D3D4"/>
<path d="M1063.46 221.035C1063.26 221.035 1064.83 217.629 1066.46 213.45C1068.09 209.272 1068.78 205.739 1068.98 205.775C1068.82 208.476 1068.19 211.138 1067.11 213.659C1066.45 215.467 1065.67 217.235 1064.76 218.955C1064.45 219.703 1064.01 220.405 1063.46 221.035Z" fill="#D1D3D4"/>
<path d="M1042.56 247.75C1042.14 247.363 1041.75 246.947 1041.39 246.506L1038.39 243.108C1035.88 240.165 1032.39 236.105 1028.53 231.654C1024.67 227.204 1021.05 223.161 1018.53 220.337L1015.53 216.939C1015.15 216.537 1014.81 216.098 1014.53 215.631C1014.98 215.981 1015.4 216.367 1015.78 216.785C1016.57 217.548 1017.65 218.674 1019.02 220.082C1021.69 222.889 1025.34 226.877 1029.23 231.3C1033.12 235.724 1036.51 239.793 1038.92 242.872C1040.14 244.38 1041.09 245.597 1041.73 246.506C1042.05 246.893 1042.33 247.31 1042.56 247.75Z" fill="#D1D3D4"/>
<path d="M1033.25 236.885C1031.37 235.005 1030.03 232.73 1029.36 230.264C1028.62 228.103 1028.32 225.836 1028.48 223.578H1028.78C1028.65 224.087 1028.53 224.36 1028.48 224.36C1028.43 224.36 1028.48 224.06 1028.48 223.533H1028.78C1028.93 225.73 1029.35 227.906 1030.03 230.018C1030.91 232.379 1031.98 234.675 1033.25 236.885Z" fill="#D1D3D4"/>
<path d="M1021.24 223.161C1020.4 222.586 1019.48 222.105 1018.52 221.725C1016.08 221.075 1013.52 220.901 1011 221.217C1008.43 221.391 1005.89 221.759 1003.39 222.316C1002.36 222.607 1001.32 222.841 1000.26 223.015C1001.19 222.497 1002.2 222.118 1003.26 221.889C1005.76 221.188 1008.34 220.744 1010.95 220.563C1013.58 220.253 1016.26 220.518 1018.76 221.335C1019.79 221.672 1020.66 222.315 1021.24 223.161Z" fill="#D1D3D4"/>
<path d="M1018.39 219.845C1018.39 219.927 1016.8 219.264 1014.22 218.446C1010.85 217.418 1007.36 216.769 1003.82 216.511C1000.28 216.274 996.71 216.439 993.21 217.002C990.52 217.447 988.89 217.91 988.85 217.783C989.2 217.599 989.57 217.459 989.96 217.365C990.99 217.036 992.05 216.769 993.12 216.566C996.65 215.858 1000.27 215.629 1003.87 215.885C1007.48 216.121 1011.02 216.847 1014.39 218.037C1015.42 218.389 1016.42 218.799 1017.39 219.264C1018.09 219.591 1018.41 219.791 1018.39 219.845Z" fill="#D1D3D4"/>
<path d="M1042.41 205.775C1041.19 202.635 1040.19 199.428 1039.41 196.174C1038.39 192.973 1037.6 189.714 1037.05 186.418C1038.27 189.558 1039.27 192.765 1040.05 196.02C1041.06 199.223 1041.85 202.481 1042.41 205.775Z" fill="#D1D3D4"/>
<path d="M1042.66 205.775C1041.69 203.786 1040.57 201.864 1039.29 200.025C1037.85 198.287 1036.17 196.724 1034.29 195.375C1034.99 195.53 1035.63 195.842 1036.16 196.283C1037.57 197.221 1038.8 198.37 1039.79 199.68C1041.32 201.449 1042.3 203.55 1042.66 205.775Z" fill="#D1D3D4"/>
<path d="M1042.51 332.206C1042.51 332.206 1042.3 331.152 1041.74 329.263C1040.94 326.63 1039.85 324.075 1038.5 321.633C1033.83 313.63 1028.05 306.205 1021.29 299.542C1017.44 295.555 1013.72 291.794 1010.53 288.188C1007.71 285.013 1005.14 281.653 1002.86 278.133C1001.34 275.754 1000.04 273.259 998.99 270.675C998.64 269.767 998.37 268.968 998.22 268.532C998.14 268.282 998.07 268.027 998.02 267.769L999.23 270.566C1000.4 273.1 1001.75 275.555 1003.29 277.915C1005.61 281.379 1008.2 284.687 1011.04 287.816C1014.22 291.385 1017.96 295.082 1021.82 299.134C1028.64 305.826 1034.42 313.335 1039 321.451C1040.33 323.937 1041.36 326.548 1042.07 329.236C1042.26 329.963 1042.41 330.701 1042.5 331.443C1042.55 331.695 1042.55 331.953 1042.51 332.206Z" fill="#D1D3D4"/>
<path d="M1080.86 292.866C1080.22 293.237 1079.55 293.576 1078.86 293.883C1077.04 294.811 1075.3 295.855 1073.64 297.008C1071.18 298.761 1068.88 300.683 1066.74 302.758C1064.34 305.065 1061.85 307.735 1059.25 310.606C1054.25 316.365 1049.49 321.506 1046.66 325.53C1045.22 327.546 1044.17 329.254 1043.48 330.435C1043.17 331.066 1042.8 331.674 1042.38 332.251C1042.42 332.073 1042.48 331.9 1042.56 331.734C1042.71 331.397 1042.92 330.907 1043.24 330.289C1044.13 328.539 1045.14 326.838 1046.24 325.194C1050.09 319.96 1054.25 314.929 1058.72 310.124C1061.25 307.236 1063.72 304.565 1066.2 302.249C1068.36 300.205 1070.7 298.324 1073.2 296.627C1074.9 295.495 1076.71 294.495 1078.59 293.638C1079.26 293.329 1079.8 293.148 1080.16 293.011C1080.38 292.915 1080.62 292.865 1080.86 292.866Z" fill="#D1D3D4"/>
<path d="M1081.7 305.628C1080.3 305.907 1078.89 306.095 1077.46 306.191C1074.05 306.509 1070.68 307.118 1067.39 308.008C1064.15 308.973 1061.11 310.425 1058.39 312.304C1056.3 313.767 1055.33 314.975 1055.23 314.911C1055.13 314.848 1055.4 314.548 1055.85 314.003C1056.53 313.264 1057.28 312.577 1058.08 311.95C1060.77 309.92 1063.86 308.378 1067.19 307.408C1070.53 306.489 1073.96 305.92 1077.44 305.71C1078.86 305.557 1080.28 305.529 1081.7 305.628Z" fill="#D1D3D4"/>
<path d="M1056.35 313.476C1056.13 313.358 1058.06 310.706 1059.53 307.118C1061 303.53 1061.25 300.323 1061.53 300.323C1061.67 301.007 1061.67 301.71 1061.53 302.394C1061.34 304.059 1060.92 305.697 1060.29 307.272C1059.67 308.841 1058.84 310.34 1057.84 311.741C1057.47 312.397 1056.96 312.985 1056.35 313.476Z" fill="#D1D3D4"/>
<path d="M1093.28 258.567C1093.08 258.704 1092.85 258.814 1092.61 258.894L1090.61 259.73C1089.73 260.066 1088.74 260.493 1087.48 261.065C1086.22 261.637 1084.88 262.21 1083.42 263.009L1081.11 264.199C1080.3 264.626 1079.5 265.107 1078.65 265.607C1076.95 266.515 1075.23 267.696 1073.42 268.886C1065.61 274.174 1058.78 280.573 1053.21 287.834C1051.96 289.532 1050.74 291.131 1049.77 292.712C1049.26 293.493 1048.77 294.228 1048.31 294.973L1047.07 297.117C1046.25 298.47 1045.65 299.769 1045.07 300.868C1044.49 301.967 1044.07 302.958 1043.71 303.757L1042.86 305.574C1042.79 305.799 1042.68 306.01 1042.53 306.2C1042.57 305.974 1042.64 305.753 1042.73 305.537C1042.92 305.047 1043.16 304.42 1043.44 303.657C1043.81 302.656 1044.24 301.674 1044.72 300.714C1045.28 299.597 1045.82 298.271 1046.59 296.89C1046.98 296.209 1047.37 295.482 1047.8 294.719C1048.23 293.956 1048.74 293.22 1049.23 292.421C1050.23 290.822 1051.4 289.196 1052.63 287.48C1058.18 280.103 1065.07 273.638 1073 268.359C1074.87 267.187 1076.59 266.034 1078.33 265.116C1079.17 264.635 1079.99 264.144 1080.8 263.718L1083.15 262.564C1084.63 261.783 1086.05 261.22 1087.29 260.693C1088.53 260.166 1089.59 259.785 1090.47 259.439L1092.53 258.722C1092.78 258.648 1093.03 258.597 1093.28 258.567Z" fill="#D1D3D4"/>
<path d="M1063 277.061C1063.29 276.17 1063.87 275.381 1064.67 274.799C1066.54 273.329 1068.92 272.499 1071.39 272.456C1073.82 272.448 1076.23 272.874 1078.48 273.709C1079.43 273.982 1080.33 274.383 1081.15 274.899C1080.18 274.718 1079.23 274.463 1078.31 274.136C1076.09 273.452 1073.76 273.102 1071.42 273.101C1069.09 273.138 1066.84 273.855 1064.99 275.144C1064.28 275.741 1063.61 276.382 1063 277.061Z" fill="#D1D3D4"/>
<path d="M1058.39 281.312C1060.39 277.754 1060.9 273.659 1059.83 269.785C1060.21 270.304 1060.48 270.879 1060.64 271.484C1061.04 272.898 1061.15 274.366 1060.97 275.817C1060.78 277.262 1060.3 278.662 1059.55 279.949C1059 280.849 1058.47 281.357 1058.39 281.312Z" fill="#D1D3D4"/>
<path d="M1009 338.528C1010 355.387 1015.65 372.518 1024.25 389.867H1061.67C1069.86 372.699 1075.08 355.586 1076 338.528H1009Z" fill="#858990"/>
<path d="M1069.9 365.805C1069.9 365.987 1057.59 366.123 1042.4 366.123C1027.21 366.123 1014.88 365.987 1014.88 365.805C1014.88 365.623 1027.19 365.496 1042.4 365.496C1057.61 365.496 1069.9 365.642 1069.9 365.805Z" fill="white"/>
<path d="M1069.06 371.919C1069.06 372.092 1057.51 372.246 1043.28 372.246C1029.05 372.246 1017.48 372.092 1017.48 371.919C1017.48 371.747 1029.02 371.601 1043.28 371.601C1057.54 371.601 1069.06 371.737 1069.06 371.919Z" fill="white"/>
<path d="M1024.81 349.591C1025.28 354.805 1025.28 360.046 1024.81 365.26C1024.36 360.045 1024.36 354.806 1024.81 349.591Z" fill="white"/>
<path d="M1044.87 349.591C1045.34 354.988 1045.34 360.409 1044.87 365.805C1044.39 360.41 1044.39 354.987 1044.87 349.591Z" fill="white"/>
<path d="M1063.69 349.455C1064.14 354.958 1064.14 360.483 1063.69 365.987C1063.21 360.485 1063.21 354.957 1063.69 349.455Z" fill="white"/>
<path d="M1074.78 349.591C1074.78 349.782 1060.32 349.918 1042.51 349.918C1024.7 349.918 1010.24 349.782 1010.24 349.591C1010.24 349.401 1024.68 349.283 1042.51 349.283C1060.34 349.283 1074.78 349.419 1074.78 349.591Z" fill="white"/>
<path d="M957.93 0.264587H259.774C250.285 0.264587 242.594 7.25148 242.594 15.8697V487.822C242.594 496.44 250.285 503.427 259.774 503.427H957.93C967.42 503.427 975.11 496.44 975.11 487.822V15.8697C975.11 7.25148 967.42 0.264587 957.93 0.264587Z" fill="#181F2B"/>
<path opacity="0.6" d="M957.93 0.264587H259.774C250.285 0.264587 242.594 7.25148 242.594 15.8697V487.822C242.594 496.44 250.285 503.427 259.774 503.427H957.93C967.42 503.427 975.11 496.44 975.11 487.822V15.8697C975.11 7.25148 967.42 0.264587 957.93 0.264587Z" fill="white"/>
<path d="M949.66 0.264587H251.5C242.012 0.264587 234.32 7.25148 234.32 15.8697V487.822C234.32 496.44 242.012 503.427 251.5 503.427H949.66C959.15 503.427 966.84 496.44 966.84 487.822V15.8697C966.84 7.25148 959.15 0.264587 949.66 0.264587Z" fill="white"/>
<path d="M251.5 0.264587H291.36V503.436H251.5C246.944 503.436 242.574 501.792 239.352 498.865C236.13 495.938 234.32 491.969 234.32 487.831V15.8697C234.32 11.7314 236.13 7.76198 239.352 4.83533C242.574 1.90868 246.944 0.264587 251.5 0.264587Z" fill="#181F2B"/>
<path d="M274.656 20.7566H251.016C249.161 20.7566 247.656 22.1209 247.656 23.8041C247.656 25.4863 249.161 26.8515 251.016 26.8515H274.656C276.512 26.8515 278.016 25.4863 278.016 23.8041C278.016 22.1209 276.512 20.7566 274.656 20.7566Z" fill="white"/>
<path d="M269.043 64.1658H256.633C255.015 64.1658 253.703 65.3567 253.703 66.8272V78.0997C253.703 79.5694 255.015 80.7611 256.633 80.7611H269.043C270.661 80.7611 271.973 79.5694 271.973 78.0997V66.8272C271.973 65.3567 270.661 64.1658 269.043 64.1658Z" fill="#181F2B"/>
<path opacity="0.4" d="M269.043 64.1658H256.633C255.015 64.1658 253.703 65.3567 253.703 66.8272V78.0997C253.703 79.5694 255.015 80.7611 256.633 80.7611H269.043C270.661 80.7611 271.973 79.5694 271.973 78.0997V66.8272C271.973 65.3567 270.661 64.1658 269.043 64.1658Z" fill="white"/>
<path d="M269.043 118.048H256.633C255.015 118.048 253.703 119.24 253.703 120.71V131.982C253.703 133.452 255.015 134.643 256.633 134.643H269.043C270.661 134.643 271.973 133.452 271.973 131.982V120.71C271.973 119.24 270.661 118.048 269.043 118.048Z" fill="#181F2B"/>
<path opacity="0.4" d="M269.043 118.048H256.633C255.015 118.048 253.703 119.24 253.703 120.71V131.982C253.703 133.452 255.015 134.643 256.633 134.643H269.043C270.661 134.643 271.973 133.452 271.973 131.982V120.71C271.973 119.24 270.661 118.048 269.043 118.048Z" fill="white"/>
<path d="M269.043 171.94H256.633C255.015 171.94 253.703 173.131 253.703 174.601V185.873C253.703 187.343 255.015 188.535 256.633 188.535H269.043C270.661 188.535 271.973 187.343 271.973 185.873V174.601C271.973 173.131 270.661 171.94 269.043 171.94Z" fill="#181F2B"/>
<path opacity="0.4" d="M269.043 171.94H256.633C255.015 171.94 253.703 173.131 253.703 174.601V185.873C253.703 187.343 255.015 188.535 256.633 188.535H269.043C270.661 188.535 271.973 187.343 271.973 185.873V174.601C271.973 173.131 270.661 171.94 269.043 171.94Z" fill="white"/>
<path d="M269.043 225.821H256.633C255.015 225.821 253.703 227.013 253.703 228.482V239.755C253.703 241.224 255.015 242.416 256.633 242.416H269.043C270.661 242.416 271.973 241.224 271.973 239.755V228.482C271.973 227.013 270.661 225.821 269.043 225.821Z" fill="#181F2B"/>
<path opacity="0.4" d="M269.043 225.821H256.633C255.015 225.821 253.703 227.013 253.703 228.482V239.755C253.703 241.224 255.015 242.416 256.633 242.416H269.043C270.661 242.416 271.973 241.224 271.973 239.755V228.482C271.973 227.013 270.661 225.821 269.043 225.821Z" fill="white"/>
<path d="M262.573 469.791H256.623C255.583 469.788 254.586 469.411 253.851 468.742C253.116 468.073 252.703 467.166 252.703 466.221V454.949C252.703 454.003 253.116 453.097 253.851 452.427C254.586 451.759 255.583 451.381 256.623 451.379H262.573C262.838 451.379 263.093 451.475 263.28 451.645C263.468 451.815 263.573 452.046 263.573 452.288C263.573 452.528 263.468 452.759 263.28 452.93C263.093 453.1 262.838 453.196 262.573 453.196H256.623C256.113 453.198 255.625 453.384 255.265 453.712C254.905 454.041 254.703 454.486 254.703 454.949V466.221C254.703 466.685 254.905 467.129 255.265 467.458C255.625 467.786 256.113 467.972 256.623 467.974H262.573C262.838 467.974 263.093 468.07 263.28 468.241C263.468 468.41 263.573 468.641 263.573 468.883C263.573 469.124 263.468 469.354 263.28 469.525C263.093 469.695 262.838 469.791 262.573 469.791Z" fill="white"/>
<path d="M268.25 460.698C268.25 460.698 268.25 460.643 268.25 460.607C268.25 460.607 268.25 460.552 268.25 460.525C268.26 460.477 268.26 460.428 268.25 460.38C268.25 460.38 268.25 460.316 268.25 460.28L268.19 460.18C268.19 460.18 268.19 460.126 268.19 460.107L266.19 457.328C266.045 457.127 265.818 456.987 265.56 456.938C265.301 456.888 265.032 456.935 264.81 457.064C264.699 457.13 264.604 457.214 264.529 457.313C264.455 457.412 264.402 457.524 264.375 457.641C264.348 457.758 264.347 457.879 264.372 457.997C264.397 458.115 264.447 458.227 264.52 458.327L265.52 459.699H258.25C257.985 459.699 257.73 459.795 257.543 459.965C257.355 460.136 257.25 460.366 257.25 460.607C257.25 460.848 257.355 461.079 257.543 461.249C257.73 461.42 257.985 461.515 258.25 461.515H265.76L264.76 463.332C264.702 463.439 264.668 463.556 264.66 463.675C264.651 463.795 264.669 463.914 264.712 464.028C264.754 464.14 264.821 464.245 264.909 464.335C264.996 464.424 265.102 464.497 265.22 464.549C265.358 464.606 265.508 464.637 265.66 464.64C265.847 464.641 266.031 464.593 266.19 464.503C266.349 464.413 266.478 464.285 266.56 464.131L268.25 461.007C268.25 461.007 268.25 460.934 268.25 460.898C268.26 460.831 268.26 460.764 268.25 460.698Z" fill="white"/>
<path d="M933.79 63.9841H788.478C785.91 63.9841 783.828 65.8753 783.828 68.2079V115.941C783.828 118.274 785.91 120.165 788.478 120.165H933.79C936.36 120.165 938.44 118.274 938.44 115.941V68.2079C938.44 65.8753 936.36 63.9841 933.79 63.9841Z" fill="#181F2B"/>
<path opacity="0.85" d="M933.79 63.9841H788.478C785.91 63.9841 783.828 65.8753 783.828 68.2079V115.941C783.828 118.274 785.91 120.165 788.478 120.165H933.79C936.36 120.165 938.44 118.274 938.44 115.941V68.2079C938.44 65.8753 936.36 63.9841 933.79 63.9841Z" fill="white"/>
<path d="M893.97 110.227C904.62 110.227 913.25 102.387 913.25 92.7148C913.25 83.0428 904.62 75.2021 893.97 75.2021C883.32 75.2021 874.69 83.0428 874.69 92.7148C874.69 102.387 883.32 110.227 893.97 110.227Z" fill="white"/>
<path d="M894 92.7148C892.57 92.7138 891.19 92.2297 890.14 91.3559C889.08 90.483 888.42 89.2831 888.29 87.9914L887.91 84.2491C887.83 83.5279 887.93 82.8003 888.18 82.1136C888.43 81.4269 888.84 80.7956 889.38 80.2606C889.92 79.7247 890.57 79.2978 891.3 79.0053C892.03 78.7128 892.82 78.5629 893.62 78.5629H894.39C895.18 78.562 895.97 78.7128 896.7 79.0053C897.43 79.2978 898.09 79.7256 898.62 80.2606C899.16 80.7965 899.57 81.4278 899.82 82.1145C900.07 82.8012 900.16 83.5288 900.09 84.2491L899.71 87.9914C899.57 89.2831 898.91 90.483 897.86 91.3559C896.8 92.2297 895.43 92.7138 894 92.7148Z" fill="#181F2B"/>
<path opacity="0.3" d="M894 92.7148C892.57 92.7138 891.19 92.2297 890.14 91.3559C889.08 90.483 888.42 89.2831 888.29 87.9914L887.91 84.2491C887.83 83.5279 887.93 82.8003 888.18 82.1136C888.43 81.4269 888.84 80.7956 889.38 80.2606C889.92 79.7247 890.57 79.2978 891.3 79.0053C892.03 78.7128 892.82 78.5629 893.62 78.5629H894.39C895.18 78.562 895.97 78.7128 896.7 79.0053C897.43 79.2978 898.09 79.7256 898.62 80.2606C899.16 80.7965 899.57 81.4278 899.82 82.1145C900.07 82.8012 900.16 83.5288 900.09 84.2491L899.71 87.9914C899.57 89.2831 898.91 90.483 897.86 91.3559C896.8 92.2297 895.43 92.7138 894 92.7148Z" fill="white"/>
<path d="M910.79 101.789C910 102.938 909.06 103.999 908 104.95C905.89 106.868 903.33 108.329 900.52 109.226C897.7 110.121 894.7 110.429 891.73 110.125C888.77 109.821 885.91 108.914 883.39 107.471C880.86 106.027 878.73 104.085 877.14 101.789C877.63 99.7979 878.85 98.0176 880.6 96.7414C882.35 95.4652 884.53 94.7685 886.77 94.7676H901.15C903.4 94.7649 905.58 95.4597 907.33 96.7368C909.08 98.0131 910.31 99.7961 910.79 101.789Z" fill="#181F2B"/>
<path opacity="0.3" d="M910.79 101.789C910 102.938 909.06 103.999 908 104.95C905.89 106.868 903.33 108.329 900.52 109.226C897.7 110.121 894.7 110.429 891.73 110.125C888.77 109.821 885.91 108.914 883.39 107.471C880.86 106.027 878.73 104.085 877.14 101.789C877.63 99.7979 878.85 98.0176 880.6 96.7414C882.35 95.4652 884.53 94.7685 886.77 94.7676H901.15C903.4 94.7649 905.58 95.4597 907.33 96.7368C909.08 98.0131 910.31 99.7961 910.79 101.789Z" fill="white"/>
<path d="M835.39 92.5331H800.501C799.788 92.5331 799.211 93.0581 799.211 93.7048V95.5397C799.211 96.1873 799.788 96.7114 800.501 96.7114H835.39C836.1 96.7114 836.68 96.1873 836.68 95.5397V93.7048C836.68 93.0581 836.1 92.5331 835.39 92.5331Z" fill="#858990"/>
<path d="M843.86 81.0072H803.061C800.935 81.0072 799.211 82.5723 799.211 84.5043C799.211 86.4354 800.935 88.0014 803.061 88.0014H843.86C845.99 88.0014 847.71 86.4354 847.71 84.5043C847.71 82.5723 845.99 81.0072 843.86 81.0072Z" fill="#61656D"/>
<path d="M840.81 29.3585H764.36C757.948 29.3585 752.75 34.08 752.75 39.9043V39.9133C752.75 45.7376 757.948 50.4591 764.36 50.4591H840.81C847.22 50.4591 852.42 45.7376 852.42 39.9133V39.9043C852.42 34.08 847.22 29.3585 840.81 29.3585Z" fill="#D8DBDD"/>
<path d="M840.51 43.0652L838.58 41.3212C839.08 40.6845 839.33 39.9133 839.29 39.1321C839.24 38.351 838.92 37.6052 838.35 37.0139C837.79 36.4226 837.02 36.0202 836.18 35.8712C835.33 35.7222 834.46 35.8358 833.69 36.1936C832.93 36.5515 832.32 37.1329 831.96 37.8432C831.6 38.5544 831.51 39.3547 831.72 40.1149C831.92 40.8743 832.4 41.551 833.07 42.0352C833.75 42.5193 834.58 42.7827 835.45 42.7836C836.25 42.7818 837.04 42.5529 837.7 42.1296L839.62 43.8736C839.67 43.9254 839.74 43.9672 839.82 43.9954C839.89 44.0235 839.97 44.0371 840.06 44.0371C840.22 44.0362 840.38 43.9781 840.51 43.8736C840.62 43.7656 840.69 43.6202 840.69 43.4694C840.69 43.3186 840.62 43.1733 840.51 43.0652ZM833.62 40.9488C833.26 40.6182 833.01 40.1994 832.91 39.7425C832.81 39.2865 832.86 38.8142 833.06 38.3846C833.25 37.9549 833.59 37.587 834.01 37.3273C834.43 37.0684 834.93 36.9276 835.45 36.9248C835.87 36.9221 836.3 37.0157 836.68 37.1983C837.06 37.3799 837.38 37.6443 837.62 37.9667C837.86 38.2901 838.01 38.6616 838.05 39.0495C838.09 39.4373 838.03 39.8279 837.87 40.1885C837.7 40.5482 837.44 40.8652 837.11 41.1123C836.78 41.3594 836.39 41.5283 835.96 41.6037C835.54 41.6791 835.11 41.6582 834.7 41.5438C834.29 41.4302 833.92 41.2249 833.62 40.9488Z" fill="#858990"/>
<path d="M892.98 29.3585H875.07C873.6 29.3585 872.41 30.4403 872.41 31.7747V48.0429C872.41 49.3773 873.6 50.4591 875.07 50.4591H892.98C894.45 50.4591 895.64 49.3773 895.64 48.0429V31.7747C895.64 30.4403 894.45 29.3585 892.98 29.3585Z" fill="#D8DBDD"/>
<path d="M936.22 29.3585H918.31C916.84 29.3585 915.65 30.4403 915.65 31.7747V48.0429C915.65 49.3773 916.84 50.4591 918.31 50.4591H936.22C937.69 50.4591 938.88 49.3773 938.88 48.0429V31.7747C938.88 30.4403 937.69 29.3585 936.22 29.3585Z" fill="#D8DBDD"/>
<path d="M390.997 34.6268H322.258C319.043 34.6268 316.438 36.994 316.438 39.9133C316.438 42.8327 319.043 45.1998 322.258 45.1998H390.997C394.212 45.1998 396.818 42.8327 396.818 39.9133C396.818 36.994 394.212 34.6268 390.997 34.6268Z" fill="#868A91"/>
<path d="M501.478 147.097H321.158C318.59 147.097 316.508 148.988 316.508 151.32V235.832C316.508 238.165 318.59 240.056 321.158 240.056H501.478C504.046 240.056 506.128 238.165 506.128 235.832V151.32C506.128 148.988 504.046 147.097 501.478 147.097Z" fill="#181F2B"/>
<path d="M501.478 147.097H321.158C318.59 147.097 316.508 148.988 316.508 151.32V235.832C316.508 238.165 318.59 240.056 321.158 240.056H501.478C504.046 240.056 506.128 238.165 506.128 235.832V151.32C506.128 148.988 504.046 147.097 501.478 147.097Z" fill="#181F2B"/>
<path d="M477.767 175.01C483.925 175.01 488.917 170.475 488.917 164.882C488.917 159.288 483.925 154.754 477.767 154.754C471.609 154.754 466.617 159.288 466.617 164.882C466.617 170.475 471.609 175.01 477.767 175.01Z" fill="white"/>
<path d="M463.377 175.01C469.535 175.01 474.527 170.475 474.527 164.882C474.527 159.288 469.535 154.754 463.377 154.754C457.219 154.754 452.227 159.288 452.227 164.882C452.227 170.475 457.219 175.01 463.377 175.01Z" fill="#181F2B"/>
<path opacity="0.3" d="M463.377 175.01C469.535 175.01 474.527 170.475 474.527 164.882C474.527 159.288 469.535 154.754 463.377 154.754C457.219 154.754 452.227 159.288 452.227 164.882C452.227 170.475 457.219 175.01 463.377 175.01Z" fill="white"/>
<path d="M361.898 182.277H340.558C336.979 182.277 334.078 184.912 334.078 188.163V199.2C334.078 202.451 336.979 205.086 340.558 205.086H361.898C365.477 205.086 368.378 202.451 368.378 199.2V188.163C368.378 184.912 365.477 182.277 361.898 182.277Z" fill="white"/>
<path d="M382.898 162.393H336.818C335.305 162.393 334.078 163.508 334.078 164.882C334.078 166.257 335.305 167.371 336.818 167.371H382.898C384.411 167.371 385.638 166.257 385.638 164.882C385.638 163.508 384.411 162.393 382.898 162.393Z" fill="#181F2B"/>
<path d="M356.938 216.393H339.978C336.72 216.393 334.078 218.791 334.078 221.748C334.078 224.706 336.72 227.103 339.978 227.103H356.938C360.197 227.103 362.838 224.706 362.838 221.748C362.838 218.791 360.197 216.393 356.938 216.393Z" fill="#181F2B"/>
<path d="M393.626 216.393H376.666C373.407 216.393 370.766 218.791 370.766 221.748C370.766 224.706 373.407 227.103 376.666 227.103H393.626C396.884 227.103 399.526 224.706 399.526 221.748C399.526 218.791 396.884 216.393 393.626 216.393Z" fill="#181F2B"/>
<path d="M430.321 216.393H413.361C410.102 216.393 407.461 218.791 407.461 221.748C407.461 224.706 410.102 227.103 413.361 227.103H430.321C433.579 227.103 436.221 224.706 436.221 221.748C436.221 218.791 433.579 216.393 430.321 216.393Z" fill="#181F2B"/>
<path d="M467.008 216.393H450.048C446.79 216.393 444.148 218.791 444.148 221.748C444.148 224.706 446.79 227.103 450.048 227.103H467.008C470.267 227.103 472.908 224.706 472.908 221.748C472.908 218.791 470.267 216.393 467.008 216.393Z" fill="#181F2B"/>
<path opacity="0.3" d="M382.898 162.393H336.818C335.305 162.393 334.078 163.508 334.078 164.882C334.078 166.257 335.305 167.371 336.818 167.371H382.898C384.411 167.371 385.638 166.257 385.638 164.882C385.638 163.508 384.411 162.393 382.898 162.393Z" fill="white"/>
<path opacity="0.3" d="M356.938 216.393H339.978C336.72 216.393 334.078 218.791 334.078 221.748C334.078 224.706 336.72 227.103 339.978 227.103H356.938C360.197 227.103 362.838 224.706 362.838 221.748C362.838 218.791 360.197 216.393 356.938 216.393Z" fill="white"/>
<path opacity="0.3" d="M393.626 216.393H376.666C373.407 216.393 370.766 218.791 370.766 221.748C370.766 224.706 373.407 227.103 376.666 227.103H393.626C396.884 227.103 399.526 224.706 399.526 221.748C399.526 218.791 396.884 216.393 393.626 216.393Z" fill="white"/>
<path opacity="0.3" d="M430.321 216.393H413.361C410.102 216.393 407.461 218.791 407.461 221.748C407.461 224.706 410.102 227.103 413.361 227.103H430.321C433.579 227.103 436.221 224.706 436.221 221.748C436.221 218.791 433.579 216.393 430.321 216.393Z" fill="white"/>
<path opacity="0.3" d="M467.008 216.393H450.048C446.79 216.393 444.148 218.791 444.148 221.748C444.148 224.706 446.79 227.103 450.048 227.103H467.008C470.267 227.103 472.908 224.706 472.908 221.748C472.908 218.791 470.267 216.393 467.008 216.393Z" fill="white"/>
<path d="M501.478 262.037H321.158C318.59 262.037 316.508 263.928 316.508 266.261V350.772C316.508 353.106 318.59 354.996 321.158 354.996H501.478C504.046 354.996 506.128 353.106 506.128 350.772V266.261C506.128 263.928 504.046 262.037 501.478 262.037Z" fill="#D8DBDD"/>
<path d="M484.486 273.055H461.156C458.77 273.055 456.836 274.812 456.836 276.979V282.665C456.836 284.833 458.77 286.589 461.156 286.589H484.486C486.872 286.589 488.806 284.833 488.806 282.665V276.979C488.806 274.812 486.872 273.055 484.486 273.055Z" fill="#B1B5BA"/>
<path d="M361.898 297.217H340.558C336.979 297.217 334.078 299.852 334.078 303.103V314.139C334.078 317.39 336.979 320.025 340.558 320.025H361.898C365.477 320.025 368.378 317.39 368.378 314.139V303.103C368.378 299.852 365.477 297.217 361.898 297.217Z" fill="white"/>
<path d="M382.898 277.334H336.818C335.305 277.334 334.078 278.448 334.078 279.822C334.078 281.198 335.305 282.311 336.818 282.311H382.898C384.411 282.311 385.638 281.198 385.638 279.822C385.638 278.448 384.411 277.334 382.898 277.334Z" fill="#B1B5BA"/>
<path d="M356.938 331.343H339.978C336.72 331.343 334.078 333.741 334.078 336.698C334.078 339.655 336.72 342.052 339.978 342.052H356.938C360.197 342.052 362.838 339.655 362.838 336.698C362.838 333.741 360.197 331.343 356.938 331.343Z" fill="#B1B5BA"/>
<path d="M393.626 331.343H376.666C373.407 331.343 370.766 333.741 370.766 336.698C370.766 339.655 373.407 342.052 376.666 342.052H393.626C396.884 342.052 399.526 339.655 399.526 336.698C399.526 333.741 396.884 331.343 393.626 331.343Z" fill="#B1B5BA"/>
<path d="M430.321 331.343H413.361C410.102 331.343 407.461 333.741 407.461 336.698C407.461 339.655 410.102 342.052 413.361 342.052H430.321C433.579 342.052 436.221 339.655 436.221 336.698C436.221 333.741 433.579 331.343 430.321 331.343Z" fill="#B1B5BA"/>
<path d="M467.008 331.343H450.048C446.79 331.343 444.148 333.741 444.148 336.698C444.148 339.655 446.79 342.052 450.048 342.052H467.008C470.267 342.052 472.908 339.655 472.908 336.698C472.908 333.741 470.267 331.343 467.008 331.343Z" fill="#B1B5BA"/>
<path d="M501.478 375.924H321.158C318.59 375.924 316.508 377.815 316.508 380.148V464.659C316.508 466.992 318.59 468.883 321.158 468.883H501.478C504.046 468.883 506.128 466.992 506.128 464.659V380.148C506.128 377.815 504.046 375.924 501.478 375.924Z" fill="#B2B6BB"/>
<path d="M484.486 386.942H461.156C458.77 386.942 456.836 388.699 456.836 390.866V396.552C456.836 398.72 458.77 400.476 461.156 400.476H484.486C486.872 400.476 488.806 398.72 488.806 396.552V390.866C488.806 388.699 486.872 386.942 484.486 386.942Z" fill="#868A91"/>
<path d="M361.898 411.105H340.558C336.979 411.105 334.078 413.74 334.078 416.991V428.027C334.078 431.278 336.979 433.913 340.558 433.913H361.898C365.477 433.913 368.378 431.278 368.378 428.027V416.991C368.378 413.74 365.477 411.105 361.898 411.105Z" fill="white"/>
<path d="M382.898 391.22H336.818C335.305 391.22 334.078 392.335 334.078 393.709C334.078 395.083 335.305 396.198 336.818 396.198H382.898C384.411 396.198 385.638 395.083 385.638 393.709C385.638 392.335 384.411 391.22 382.898 391.22Z" fill="#868A91"/>
<path d="M356.938 445.23H339.978C336.72 445.23 334.078 447.627 334.078 450.585C334.078 453.542 336.72 455.939 339.978 455.939H356.938C360.197 455.939 362.838 453.542 362.838 450.585C362.838 447.627 360.197 445.23 356.938 445.23Z" fill="#868A91"/>
<path d="M393.626 445.23H376.666C373.407 445.23 370.766 447.627 370.766 450.585C370.766 453.542 373.407 455.939 376.666 455.939H393.626C396.884 455.939 399.526 453.542 399.526 450.585C399.526 447.627 396.884 445.23 393.626 445.23Z" fill="#868A91"/>
<path d="M430.321 445.23H413.361C410.102 445.23 407.461 447.627 407.461 450.585C407.461 453.542 410.102 455.939 413.361 455.939H430.321C433.579 455.939 436.221 453.542 436.221 450.585C436.221 447.627 433.579 445.23 430.321 445.23Z" fill="#868A91"/>
<path d="M467.008 445.23H450.048C446.79 445.23 444.148 447.627 444.148 450.585C444.148 453.542 446.79 455.939 450.048 455.939H467.008C470.267 455.939 472.908 453.542 472.908 450.585C472.908 447.627 470.267 445.23 467.008 445.23Z" fill="#868A91"/>
<path d="M934.62 147.36H788.478C785.91 147.36 783.828 149.251 783.828 151.584V276.652C783.828 278.986 785.91 280.876 788.478 280.876H934.62C937.19 280.876 939.27 278.986 939.27 276.652V151.584C939.27 149.251 937.19 147.36 934.62 147.36Z" fill="#181F2B"/>
<path opacity="0.85" d="M934.62 147.36H788.478C785.91 147.36 783.828 149.251 783.828 151.584V276.652C783.828 278.986 785.91 280.876 788.478 280.876H934.62C937.19 280.876 939.27 278.986 939.27 276.652V151.584C939.27 149.251 937.19 147.36 934.62 147.36Z" fill="white"/>
<g opacity="0.2">
<path opacity="0.2" d="M932.08 212.996H791.906V213.451H932.08V212.996Z" fill="#181F2B"/>
</g>
<g opacity="0.2">
<path opacity="0.2" d="M932.3 232.035H792.102V232.49H932.3V232.035Z" fill="#181F2B"/>
</g>
<g opacity="0.2">
<path opacity="0.2" d="M932.53 251.074H791.906V251.529H932.53V251.074Z" fill="#181F2B"/>
</g>
<path d="M928.34 159.668H898.84C897.72 159.668 896.82 160.49 896.82 161.503V164.446C896.82 165.459 897.72 166.281 898.84 166.281H928.34C929.46 166.281 930.36 165.459 930.36 164.446V161.503C930.36 160.49 929.46 159.668 928.34 159.668Z" fill="#858990"/>
<path d="M813.292 266.806H800.372C799.946 266.806 799.602 267.119 799.602 267.505V268.477C799.602 268.864 799.946 269.177 800.372 269.177H813.292C813.717 269.177 814.062 268.864 814.062 268.477V267.505C814.062 267.119 813.717 266.806 813.292 266.806Z" fill="#858990"/>
<path d="M831.16 266.806H819.318C818.594 266.806 818.008 267.337 818.008 267.991C818.008 268.646 818.594 269.177 819.318 269.177H831.16C831.88 269.177 832.47 268.646 832.47 267.991C832.47 267.337 831.88 266.806 831.16 266.806Z" fill="#181F2B"/>
<path d="M879.41 266.806H866.49C866.06 266.806 865.72 267.119 865.72 267.505V268.477C865.72 268.864 866.06 269.177 866.49 269.177H879.41C879.83 269.177 880.18 268.864 880.18 268.477V267.505C880.18 267.119 879.83 266.806 879.41 266.806Z" fill="#858990"/>
<path d="M897.28 266.806H885.43C884.71 266.806 884.12 267.337 884.12 267.991C884.12 268.646 884.71 269.177 885.43 269.177H897.28C898 269.177 898.58 268.646 898.58 267.991C898.58 267.337 898 266.806 897.28 266.806Z" fill="#181F2B"/>
<path opacity="0.37" d="M932.53 251.528H791.906L792.136 227.63C793.576 224.26 795.696 220.672 798.676 220.672C802.206 220.672 803.906 229.691 811.736 229.664C823.956 229.664 827.736 212.551 833.44 212.097C842.05 211.407 845.82 226.085 854.05 226.213C861.49 226.322 864.23 219.682 867.99 215.73C869.4 214.26 871.28 213.227 873.37 212.778C876.11 212.188 876.68 213.005 880.5 211.815C892.24 208.182 889.5 194.248 900.04 195.465C908.15 196.419 908.13 214.649 916.5 215.948C920.9 216.63 928.5 212.606 932.06 212.524L932.53 251.528Z" fill="#181F2B"/>
<path d="M811.72 230.5C806.72 230.5 804.18 227.13 802.1 224.423C800.87 222.806 799.81 221.416 798.68 221.416C796.56 221.416 794.54 223.669 792.68 228.12L791.68 227.766C793.76 222.815 796.07 220.408 798.68 220.408C800.38 220.408 801.6 222.007 803.01 223.851C804.94 226.367 807.33 229.501 811.72 229.501C818.72 229.501 822.99 223.333 826.39 218.401C828.77 214.949 830.82 211.961 833.39 211.761C838.14 211.37 841.39 215.312 844.61 219.109C847.56 222.625 850.34 225.949 854.06 226.004C859.46 226.122 862.24 222.37 864.95 218.819C865.83 217.665 866.66 216.575 867.57 215.603C869.05 214.043 871.03 212.943 873.24 212.46C874.15 212.262 875.09 212.171 876.03 212.188C877.5 212.218 878.95 211.983 880.32 211.497C885.76 209.799 888.01 205.693 890 202.078C892.19 198.081 894.27 194.303 900.11 195.002C904.48 195.52 906.61 200.579 908.67 205.475C910.67 210.189 912.67 215.067 916.59 215.676C919.02 216.057 922.67 214.849 925.89 213.777C927.85 213.007 929.92 212.481 932.04 212.215V213.214C930.04 213.489 928.09 213.996 926.24 214.722C922.89 215.83 919.1 217.084 916.37 216.666C911.86 215.957 909.7 210.807 907.6 205.829C905.6 200.997 903.6 196.437 899.94 195.992C894.87 195.384 893.14 198.536 890.94 202.523C888.86 206.32 886.5 210.616 880.63 212.451C879.15 212.969 877.57 213.222 875.98 213.196C875.13 213.176 874.28 213.255 873.45 213.432C871.47 213.866 869.69 214.854 868.36 216.257C867.45 217.263 866.6 218.308 865.81 219.391C863.07 223.024 859.91 227.103 853.99 227.012C849.74 226.948 846.66 223.269 843.68 219.745C840.54 215.994 837.57 212.478 833.44 212.787C831.44 212.951 829.52 215.739 827.29 218.964C823.75 224.105 819.29 230.509 811.7 230.527L811.72 230.5Z" fill="#181F2B"/>
<path d="M862.05 225.278C863.37 225.278 864.43 224.31 864.43 223.116C864.43 221.922 863.37 220.954 862.05 220.954C860.74 220.954 859.67 221.922 859.67 223.116C859.67 224.31 860.74 225.278 862.05 225.278Z" fill="white" stroke="#61656D" stroke-miterlimit="10"/>
<path d="M875.87 200.761H847.6C847.13 200.761 846.68 200.932 846.34 201.235C846.01 201.539 845.82 201.949 845.82 202.378V214.858C845.82 215.287 846.01 215.699 846.34 216.002C846.68 216.305 847.13 216.475 847.6 216.475H860.29L861.29 217.983C861.34 218.067 861.41 218.138 861.5 218.187C861.59 218.236 861.69 218.263 861.79 218.263C861.89 218.263 862 218.236 862.08 218.187C862.17 218.138 862.24 218.067 862.29 217.983L863.29 216.475H875.98C876.45 216.473 876.9 216.302 877.23 215.998C877.56 215.696 877.75 215.286 877.75 214.858V202.378C877.75 202.158 877.7 201.94 877.61 201.737C877.51 201.536 877.37 201.353 877.19 201.202C877.02 201.05 876.81 200.933 876.58 200.857C876.35 200.782 876.11 200.749 875.87 200.761Z" fill="#61656D"/>
<path d="M870.97 203.787H852.5C852.18 203.787 851.93 204.018 851.93 204.304V206.993C851.93 207.278 852.18 207.511 852.5 207.511H870.97C871.28 207.511 871.54 207.278 871.54 206.993V204.304C871.54 204.018 871.28 203.787 870.97 203.787Z" fill="#181F2B"/>
<path d="M866.1 210.563H857.36C857.04 210.563 856.79 210.794 856.79 211.081V212.216C856.79 212.501 857.04 212.733 857.36 212.733H866.1C866.41 212.733 866.67 212.501 866.67 212.216V211.081C866.67 210.794 866.41 210.563 866.1 210.563Z" fill="#181F2B"/>
<path opacity="0.5" d="M870.97 203.787H852.5C852.18 203.787 851.93 204.018 851.93 204.304V206.993C851.93 207.278 852.18 207.511 852.5 207.511H870.97C871.28 207.511 871.54 207.278 871.54 206.993V204.304C871.54 204.018 871.28 203.787 870.97 203.787Z" fill="white"/>
<path opacity="0.5" d="M866.1 210.563H857.36C857.04 210.563 856.79 210.794 856.79 211.081V212.216C856.79 212.501 857.04 212.733 857.36 212.733H866.1C866.41 212.733 866.67 212.501 866.67 212.216V211.081C866.67 210.794 866.41 210.563 866.1 210.563Z" fill="white"/>
<g opacity="0.2">
<path opacity="0.2" d="M932.19 193.958H791.906V194.413H932.19V193.958Z" fill="#181F2B"/>
</g>
<path d="M935.58 301.777H788.58C786.012 301.777 783.93 303.668 783.93 306.001V463.833C783.93 466.166 786.012 468.056 788.58 468.056H935.58C938.15 468.056 940.23 466.166 940.23 463.833V306.001C940.23 303.668 938.15 301.777 935.58 301.777Z" fill="#181F2B"/>
<path opacity="0.85" d="M935.58 301.777H788.58C786.012 301.777 783.93 303.668 783.93 306.001V463.833C783.93 466.166 786.012 468.056 788.58 468.056H935.58C938.15 468.056 940.23 466.166 940.23 463.833V306.001C940.23 303.668 938.15 301.777 935.58 301.777Z" fill="white"/>
<path d="M859.12 312.713H796.622C795.506 312.713 794.602 313.535 794.602 314.548V320.888C794.602 321.902 795.506 322.723 796.622 322.723H859.12C860.24 322.723 861.14 321.902 861.14 320.888V314.548C861.14 313.535 860.24 312.713 859.12 312.713Z" fill="#858990"/>
<path d="M823.342 340.99H795.972C795.215 340.99 794.602 341.547 794.602 342.234V344.005C794.602 344.693 795.215 345.25 795.972 345.25H823.342C824.098 345.25 824.712 344.693 824.712 344.005V342.234C824.712 341.547 824.098 340.99 823.342 340.99Z" fill="#181F2B"/>
<path d="M917.67 349.7H796.642C795.515 349.7 794.602 350.528 794.602 351.549C794.602 352.57 795.515 353.397 796.642 353.397H917.67C918.8 353.397 919.71 352.57 919.71 351.549C919.71 350.528 918.8 349.7 917.67 349.7Z" fill="#181F2B"/>
<path opacity="0.5" d="M917.67 349.7H796.642C795.515 349.7 794.602 350.528 794.602 351.549C794.602 352.57 795.515 353.397 796.642 353.397H917.67C918.8 353.397 919.71 352.57 919.71 351.549C919.71 350.528 918.8 349.7 917.67 349.7Z" fill="white"/>
<path d="M835.92 349.7H796.642C795.515 349.7 794.602 350.528 794.602 351.549C794.602 352.57 795.515 353.397 796.642 353.397H835.92C837.05 353.397 837.96 352.57 837.96 351.549C837.96 350.528 837.05 349.7 835.92 349.7Z" fill="#61656D"/>
<path d="M823.342 379.067H795.972C795.215 379.067 794.602 379.625 794.602 380.311V382.082C794.602 382.77 795.215 383.327 795.972 383.327H823.342C824.098 383.327 824.712 382.77 824.712 382.082V380.311C824.712 379.625 824.098 379.067 823.342 379.067Z" fill="#181F2B"/>
<path d="M917.67 387.769H796.642C795.515 387.769 794.602 388.596 794.602 389.617C794.602 390.638 795.515 391.466 796.642 391.466H917.67C918.8 391.466 919.71 390.638 919.71 389.617C919.71 388.596 918.8 387.769 917.67 387.769Z" fill="#181F2B"/>
<path opacity="0.5" d="M917.67 387.769H796.642C795.515 387.769 794.602 388.596 794.602 389.617C794.602 390.638 795.515 391.466 796.642 391.466H917.67C918.8 391.466 919.71 390.638 919.71 389.617C919.71 388.596 918.8 387.769 917.67 387.769Z" fill="white"/>
<path d="M876.9 387.769H796.642C795.515 387.769 794.602 388.596 794.602 389.617C794.602 390.638 795.515 391.466 796.642 391.466H876.9C878.03 391.466 878.94 390.638 878.94 389.617C878.94 388.596 878.03 387.769 876.9 387.769Z" fill="#61656D"/>
<path d="M823.342 417.135H795.972C795.215 417.135 794.602 417.693 794.602 418.379V420.151C794.602 420.838 795.215 421.395 795.972 421.395H823.342C824.098 421.395 824.712 420.838 824.712 420.151V418.379C824.712 417.693 824.098 417.135 823.342 417.135Z" fill="#181F2B"/>
<path d="M917.67 425.838H796.642C795.515 425.838 794.602 426.665 794.602 427.685C794.602 428.706 795.515 429.535 796.642 429.535H917.67C918.8 429.535 919.71 428.706 919.71 427.685C919.71 426.665 918.8 425.838 917.67 425.838Z" fill="#181F2B"/>
<path opacity="0.5" d="M917.67 425.838H796.642C795.515 425.838 794.602 426.665 794.602 427.685C794.602 428.706 795.515 429.535 796.642 429.535H917.67C918.8 429.535 919.71 428.706 919.71 427.685C919.71 426.665 918.8 425.838 917.67 425.838Z" fill="white"/>
<path d="M853.78 425.838H796.642C795.515 425.838 794.602 426.665 794.602 427.685C794.602 428.706 795.515 429.535 796.642 429.535H853.78C854.91 429.535 855.82 428.706 855.82 427.685C855.82 426.665 854.91 425.838 853.78 425.838Z" fill="#61656D"/>
<path d="M755.49 64.0841H324.63C320.278 64.0841 316.75 67.2887 316.75 71.2418V113.007C316.75 116.96 320.278 120.165 324.63 120.165H755.49C759.842 120.165 763.37 116.96 763.37 113.007V71.2418C763.37 67.2887 759.842 64.0841 755.49 64.0841Z" fill="#181F2B"/>
<path opacity="0.85" d="M755.49 64.0841H324.63C320.278 64.0841 316.75 67.2887 316.75 71.2418V113.007C316.75 116.96 320.278 120.165 324.63 120.165H755.49C759.842 120.165 763.37 116.96 763.37 113.007V71.2418C763.37 67.2887 759.842 64.0841 755.49 64.0841Z" fill="white"/>
<path d="M344.822 96.0483C351.156 96.0483 356.292 91.3831 356.292 85.6298C356.292 79.8755 351.156 75.2112 344.822 75.2112C338.487 75.2112 333.352 79.8755 333.352 85.6298C333.352 91.3831 338.487 96.0483 344.822 96.0483Z" fill="#858990"/>
<path d="M352.341 104.114H337.291C335.905 104.114 334.781 105.135 334.781 106.394C334.781 107.653 335.905 108.674 337.291 108.674H352.341C353.728 108.674 354.851 107.653 354.851 106.394C354.851 105.135 353.728 104.114 352.341 104.114Z" fill="#181F2B"/>
<path d="M409.751 96.0483C416.086 96.0483 421.221 91.3831 421.221 85.6298C421.221 79.8755 416.086 75.2112 409.751 75.2112C403.417 75.2112 398.281 79.8755 398.281 85.6298C398.281 91.3831 403.417 96.0483 409.751 96.0483Z" fill="#858990"/>
<path d="M417.279 104.114H402.229C400.843 104.114 399.719 105.135 399.719 106.394C399.719 107.653 400.843 108.674 402.229 108.674H417.279C418.665 108.674 419.789 107.653 419.789 106.394C419.789 105.135 418.665 104.114 417.279 104.114Z" fill="#181F2B"/>
<path d="M474.689 96.0483C481.023 96.0483 486.159 91.3831 486.159 85.6298C486.159 79.8755 481.023 75.2112 474.689 75.2112C468.354 75.2112 463.219 79.8755 463.219 85.6298C463.219 91.3831 468.354 96.0483 474.689 96.0483Z" fill="#858990"/>
<path d="M482.208 104.114H467.158C465.772 104.114 464.648 105.135 464.648 106.394C464.648 107.653 465.772 108.674 467.158 108.674H482.208C483.595 108.674 484.718 107.653 484.718 106.394C484.718 105.135 483.595 104.114 482.208 104.114Z" fill="#181F2B"/>
<path d="M539.618 96.0483C545.953 96.0483 551.088 91.3831 551.088 85.6298C551.088 79.8755 545.953 75.2112 539.618 75.2112C533.284 75.2112 528.148 79.8755 528.148 85.6298C528.148 91.3831 533.284 96.0483 539.618 96.0483Z" fill="#858990"/>
<path d="M547.154 104.114H532.104C530.717 104.114 529.594 105.135 529.594 106.394C529.594 107.653 530.717 108.674 532.104 108.674H547.154C548.54 108.674 549.664 107.653 549.664 106.394C549.664 105.135 548.54 104.114 547.154 104.114Z" fill="#181F2B"/>
<path d="M604.548 96.0483C610.883 96.0483 616.018 91.3831 616.018 85.6298C616.018 79.8755 610.883 75.2112 604.548 75.2112C598.213 75.2112 593.078 79.8755 593.078 85.6298C593.078 91.3831 598.213 96.0483 604.548 96.0483Z" fill="#858990"/>
<path d="M612.083 104.114H597.033C595.647 104.114 594.523 105.135 594.523 106.394C594.523 107.653 595.647 108.674 597.033 108.674H612.083C613.47 108.674 614.593 107.653 614.593 106.394C614.593 105.135 613.47 104.114 612.083 104.114Z" fill="#181F2B"/>
<path d="M669.493 96.0483C675.828 96.0483 680.963 91.3831 680.963 85.6298C680.963 79.8755 675.828 75.2112 669.493 75.2112C663.159 75.2112 658.023 79.8755 658.023 85.6298C658.023 91.3831 663.159 96.0483 669.493 96.0483Z" fill="#858990"/>
<path d="M677.021 104.114H661.971C660.585 104.114 659.461 105.135 659.461 106.394C659.461 107.653 660.585 108.674 661.971 108.674H677.021C678.407 108.674 679.531 107.653 679.531 106.394C679.531 105.135 678.407 104.114 677.021 104.114Z" fill="#181F2B"/>
<path d="M734.423 96.0483C740.758 96.0483 745.893 91.3831 745.893 85.6298C745.893 79.8755 740.758 75.2112 734.423 75.2112C728.088 75.2112 722.953 79.8755 722.953 85.6298C722.953 91.3831 728.088 96.0483 734.423 96.0483Z" fill="#858990"/>
<path d="M741.951 104.114H726.901C725.514 104.114 724.391 105.135 724.391 106.394C724.391 107.653 725.514 108.674 726.901 108.674H741.951C743.337 108.674 744.461 107.653 744.461 106.394C744.461 105.135 743.337 104.114 741.951 104.114Z" fill="#181F2B"/>
<path d="M758.385 147.024L527.416 147.39C524.847 147.395 522.769 149.289 522.774 151.621L523.374 464.115C523.379 466.448 525.464 468.335 528.032 468.332L759.002 467.965C761.57 467.961 763.648 466.067 763.644 463.734L763.043 151.241C763.039 148.908 760.953 147.02 758.385 147.024Z" fill="#181F2B"/>
<path opacity="0.85" d="M758.385 147.024L527.416 147.39C524.847 147.395 522.769 149.289 522.774 151.621L523.374 464.115C523.379 466.448 525.464 468.335 528.032 468.332L759.002 467.965C761.57 467.961 763.648 466.067 763.644 463.734L763.043 151.241C763.039 148.908 760.953 147.02 758.385 147.024Z" fill="white"/>
<path d="M771.764 181.832H514.474C512.469 181.832 510.844 183.308 510.844 185.13V219.519C510.844 221.339 512.469 222.816 514.474 222.816H771.764C773.769 222.816 775.394 221.339 775.394 219.519V185.13C775.394 183.308 773.769 181.832 771.764 181.832Z" fill="#181F2B"/>
<path opacity="0.5" d="M771.764 181.832H514.474C512.469 181.832 510.844 183.308 510.844 185.13V219.519C510.844 221.339 512.469 222.816 514.474 222.816H771.764C773.769 222.816 775.394 221.339 775.394 219.519V185.13C775.394 183.308 773.769 181.832 771.764 181.832Z" fill="white" stroke="white" stroke-width="2" stroke-miterlimit="10"/>
<path d="M734.481 195.366H701.701C700.011 195.366 698.641 196.611 698.641 198.146V198.709C698.641 200.244 700.011 201.489 701.701 201.489H734.481C736.171 201.489 737.541 200.244 737.541 198.709V198.146C737.541 196.611 736.171 195.366 734.481 195.366Z" fill="#858990"/>
<path d="M725.894 233.607H696.654C694.964 233.607 693.594 234.852 693.594 236.387V236.396C693.594 237.931 694.964 239.175 696.654 239.175H725.894C727.584 239.175 728.954 237.931 728.954 236.396V236.387C728.954 234.852 727.584 233.607 725.894 233.607Z" fill="#858990"/>
<path d="M725.894 271.656H696.654C694.964 271.656 693.594 272.901 693.594 274.436V274.445C693.594 275.98 694.964 277.224 696.654 277.224H725.894C727.584 277.224 728.954 275.98 728.954 274.445V274.436C728.954 272.901 727.584 271.656 725.894 271.656Z" fill="#858990"/>
<path d="M725.894 309.717H696.654C694.964 309.717 693.594 310.961 693.594 312.496V312.505C693.594 314.04 694.964 315.285 696.654 315.285H725.894C727.584 315.285 728.954 314.04 728.954 312.505V312.496C728.954 310.961 727.584 309.717 725.894 309.717Z" fill="#858990"/>
<path d="M725.894 346.857H696.654C694.964 346.857 693.594 348.102 693.594 349.637V349.646C693.594 351.181 694.964 352.425 696.654 352.425H725.894C727.584 352.425 728.954 351.181 728.954 349.646V349.637C728.954 348.102 727.584 346.857 725.894 346.857Z" fill="#858990"/>
<path d="M725.894 384.917H696.654C694.964 384.917 693.594 386.162 693.594 387.697V387.706C693.594 389.241 694.964 390.485 696.654 390.485H725.894C727.584 390.485 728.954 389.241 728.954 387.706V387.697C728.954 386.162 727.584 384.917 725.894 384.917Z" fill="#858990"/>
<path d="M725.894 422.977H696.654C694.964 422.977 693.594 424.221 693.594 425.756V425.765C693.594 427.3 694.964 428.545 696.654 428.545H725.894C727.584 428.545 728.954 427.3 728.954 425.765V425.756C728.954 424.221 727.584 422.977 725.894 422.977Z" fill="#858990"/>
<path d="M636.295 195.365H574.715C573.6 195.365 572.695 196.187 572.695 197.2V198.681C572.695 199.695 573.6 200.516 574.715 200.516H636.295C637.411 200.516 638.315 199.695 638.315 198.681V197.2C638.315 196.187 637.411 195.365 636.295 195.365Z" fill="#181F2B"/>
<path opacity="0.2" d="M636.295 195.365H574.715C573.6 195.365 572.695 196.187 572.695 197.2V198.681C572.695 199.695 573.6 200.516 574.715 200.516H636.295C637.411 200.516 638.315 199.695 638.315 198.681V197.2C638.315 196.187 637.411 195.365 636.295 195.365Z" fill="white"/>
<path d="M637.367 234.051H581.747C580.631 234.051 579.727 234.873 579.727 235.886V236.895C579.727 237.908 580.631 238.729 581.747 238.729H637.367C638.482 238.729 639.387 237.908 639.387 236.895V235.886C639.387 234.873 638.482 234.051 637.367 234.051Z" fill="#181F2B"/>
<path opacity="0.3" d="M637.367 234.051H581.747C580.631 234.051 579.727 234.873 579.727 235.886V236.895C579.727 237.908 580.631 238.729 581.747 238.729H637.367C638.482 238.729 639.387 237.908 639.387 236.895V235.886C639.387 234.873 638.482 234.051 637.367 234.051Z" fill="white"/>
<path d="M611.257 245.705H581.747C580.631 245.705 579.727 246.526 579.727 247.54V248.548C579.727 249.562 580.631 250.383 581.747 250.383H611.257C612.372 250.383 613.277 249.562 613.277 248.548V247.54C613.277 246.526 612.372 245.705 611.257 245.705Z" fill="#181F2B"/>
<path opacity="0.3" d="M611.257 245.705H581.747C580.631 245.705 579.727 246.526 579.727 247.54V248.548C579.727 249.562 580.631 250.383 581.747 250.383H611.257C612.372 250.383 613.277 249.562 613.277 248.548V247.54C613.277 246.526 612.372 245.705 611.257 245.705Z" fill="white"/>
<path d="M607.585 208.182H574.715C573.6 208.182 572.695 209.004 572.695 210.017V211.498C572.695 212.511 573.6 213.332 574.715 213.332H607.585C608.701 213.332 609.605 212.511 609.605 211.498V210.017C609.605 209.004 608.701 208.182 607.585 208.182Z" fill="#181F2B"/>
<path d="M647.732 272.102H582.372C581.256 272.102 580.352 272.924 580.352 273.936V274.946C580.352 275.958 581.256 276.779 582.372 276.779H647.732C648.847 276.779 649.752 275.958 649.752 274.946V273.936C649.752 272.924 648.847 272.102 647.732 272.102Z" fill="#181F2B"/>
<path opacity="0.3" d="M647.732 272.102H582.372C581.256 272.102 580.352 272.924 580.352 273.936V274.946C580.352 275.958 581.256 276.779 582.372 276.779H647.732C648.847 276.779 649.752 275.958 649.752 274.946V273.936C649.752 272.924 648.847 272.102 647.732 272.102Z" fill="white"/>
<path d="M611.882 283.755H582.372C581.256 283.755 580.352 284.577 580.352 285.59V286.598C580.352 287.611 581.256 288.433 582.372 288.433H611.882C612.997 288.433 613.902 287.611 613.902 286.598V285.59C613.902 284.577 612.997 283.755 611.882 283.755Z" fill="#181F2B"/>
<path opacity="0.3" d="M611.882 283.755H582.372C581.256 283.755 580.352 284.577 580.352 285.59V286.598C580.352 287.611 581.256 288.433 582.372 288.433H611.882C612.997 288.433 613.902 287.611 613.902 286.598V285.59C613.902 284.577 612.997 283.755 611.882 283.755Z" fill="white"/>
<path d="M613.942 309.934H582.372C581.256 309.934 580.352 310.755 580.352 311.768V312.777C580.352 313.79 581.256 314.612 582.372 314.612H613.942C615.057 314.612 615.962 313.79 615.962 312.777V311.768C615.962 310.755 615.057 309.934 613.942 309.934Z" fill="#181F2B"/>
<path opacity="0.3" d="M613.942 309.934H582.372C581.256 309.934 580.352 310.755 580.352 311.768V312.777C580.352 313.79 581.256 314.612 582.372 314.612H613.942C615.057 314.612 615.962 313.79 615.962 312.777V311.768C615.962 310.755 615.057 309.934 613.942 309.934Z" fill="white"/>
<path d="M632.422 347.775H582.372C581.256 347.775 580.352 348.596 580.352 349.61V350.618C580.352 351.632 581.256 352.453 582.372 352.453H632.422C633.537 352.453 634.442 351.632 634.442 350.618V349.61C634.442 348.596 633.537 347.775 632.422 347.775Z" fill="#181F2B"/>
<path opacity="0.3" d="M632.422 347.775H582.372C581.256 347.775 580.352 348.596 580.352 349.61V350.618C580.352 351.632 581.256 352.453 582.372 352.453H632.422C633.537 352.453 634.442 351.632 634.442 350.618V349.61C634.442 348.596 633.537 347.775 632.422 347.775Z" fill="white"/>
<path d="M613.942 385.607H582.372C581.256 385.607 580.352 386.429 580.352 387.442V388.45C580.352 389.464 581.256 390.285 582.372 390.285H613.942C615.057 390.285 615.962 389.464 615.962 388.45V387.442C615.962 386.429 615.057 385.607 613.942 385.607Z" fill="#181F2B"/>
<path opacity="0.3" d="M613.942 385.607H582.372C581.256 385.607 580.352 386.429 580.352 387.442V388.45C580.352 389.464 581.256 390.285 582.372 390.285H613.942C615.057 390.285 615.962 389.464 615.962 388.45V387.442C615.962 386.429 615.057 385.607 613.942 385.607Z" fill="white"/>
<path d="M632.422 423.439H582.372C581.256 423.439 580.352 424.26 580.352 425.274V426.282C580.352 427.296 581.256 428.117 582.372 428.117H632.422C633.537 428.117 634.442 427.296 634.442 426.282V425.274C634.442 424.26 633.537 423.439 632.422 423.439Z" fill="#181F2B"/>
<path opacity="0.3" d="M632.422 423.439H582.372C581.256 423.439 580.352 424.26 580.352 425.274V426.282C580.352 427.296 581.256 428.117 582.372 428.117H632.422C633.537 428.117 634.442 427.296 634.442 426.282V425.274C634.442 424.26 633.537 423.439 632.422 423.439Z" fill="white"/>
<path d="M607.585 208.182H574.715C573.6 208.182 572.695 209.004 572.695 210.017V211.498C572.695 212.511 573.6 213.332 574.715 213.332H607.585C608.701 213.332 609.605 212.511 609.605 211.498V210.017C609.605 209.004 608.701 208.182 607.585 208.182Z" fill="#181F2B"/>
<path opacity="0.3" d="M607.585 208.182H574.715C573.6 208.182 572.695 209.004 572.695 210.017V211.498C572.695 212.511 573.6 213.332 574.715 213.332H607.585C608.701 213.332 609.605 212.511 609.605 211.498V210.017C609.605 209.004 608.701 208.182 607.585 208.182Z" fill="white"/>
<path d="M611.882 321.587H582.372C581.256 321.587 580.352 322.409 580.352 323.422V324.431C580.352 325.444 581.256 326.265 582.372 326.265H611.882C612.997 326.265 613.902 325.444 613.902 324.431V323.422C613.902 322.409 612.997 321.587 611.882 321.587Z" fill="#181F2B"/>
<path opacity="0.3" d="M611.882 321.587H582.372C581.256 321.587 580.352 322.409 580.352 323.422V324.431C580.352 325.444 581.256 326.265 582.372 326.265H611.882C612.997 326.265 613.902 325.444 613.902 324.431V323.422C613.902 322.409 612.997 321.587 611.882 321.587Z" fill="white"/>
<path d="M611.882 359.429H582.372C581.256 359.429 580.352 360.251 580.352 361.263V362.272C580.352 363.285 581.256 364.107 582.372 364.107H611.882C612.997 364.107 613.902 363.285 613.902 362.272V361.263C613.902 360.251 612.997 359.429 611.882 359.429Z" fill="#181F2B"/>
<path opacity="0.3" d="M611.882 359.429H582.372C581.256 359.429 580.352 360.251 580.352 361.263V362.272C580.352 363.285 581.256 364.107 582.372 364.107H611.882C612.997 364.107 613.902 363.285 613.902 362.272V361.263C613.902 360.251 612.997 359.429 611.882 359.429Z" fill="white"/>
<path d="M611.882 397.262H582.372C581.256 397.262 580.352 398.083 580.352 399.096V400.105C580.352 401.118 581.256 401.94 582.372 401.94H611.882C612.997 401.94 613.902 401.118 613.902 400.105V399.096C613.902 398.083 612.997 397.262 611.882 397.262Z" fill="#181F2B"/>
<path opacity="0.3" d="M611.882 397.262H582.372C581.256 397.262 580.352 398.083 580.352 399.096V400.105C580.352 401.118 581.256 401.94 582.372 401.94H611.882C612.997 401.94 613.902 401.118 613.902 400.105V399.096C613.902 398.083 612.997 397.262 611.882 397.262Z" fill="white"/>
<path d="M611.882 435.093H582.372C581.256 435.093 580.352 435.914 580.352 436.928V437.936C580.352 438.95 581.256 439.771 582.372 439.771H611.882C612.997 439.771 613.902 438.95 613.902 437.936V436.928C613.902 435.914 612.997 435.093 611.882 435.093Z" fill="#181F2B"/>
<path opacity="0.3" d="M611.882 435.093H582.372C581.256 435.093 580.352 435.914 580.352 436.928V437.936C580.352 438.95 581.256 439.771 582.372 439.771H611.882C612.997 439.771 613.902 438.95 613.902 437.936V436.928C613.902 435.914 612.997 435.093 611.882 435.093Z" fill="white"/>
<path d="M547.845 214.967C554.218 214.967 559.385 210.274 559.385 204.485C559.385 198.696 554.218 194.003 547.845 194.003C541.471 194.003 536.305 198.696 536.305 204.485C536.305 210.274 541.471 214.967 547.845 214.967Z" fill="white"/>
<path d="M556.506 251.719C562.299 251.719 566.996 247.452 566.996 242.19C566.996 236.927 562.299 232.662 556.506 232.662C550.712 232.662 546.016 236.927 546.016 242.19C546.016 247.452 550.712 251.719 556.506 251.719Z" fill="white"/>
<path d="M556.506 289.632C562.299 289.632 566.996 285.366 566.996 280.104C566.996 274.841 562.299 270.576 556.506 270.576C550.712 270.576 546.016 274.841 546.016 280.104C546.016 285.366 550.712 289.632 556.506 289.632Z" fill="white"/>
<path d="M556.506 327.546C562.299 327.546 566.996 323.281 566.996 318.018C566.996 312.756 562.299 308.489 556.506 308.489C550.712 308.489 546.016 312.756 546.016 318.018C546.016 323.281 550.712 327.546 556.506 327.546Z" fill="white"/>
<path d="M556.506 365.452C562.299 365.452 566.996 361.185 566.996 355.923C566.996 350.661 562.299 346.395 556.506 346.395C550.712 346.395 546.016 350.661 546.016 355.923C546.016 361.185 550.712 365.452 556.506 365.452Z" fill="white"/>
<path d="M556.506 403.365C562.299 403.365 566.996 399.098 566.996 393.836C566.996 388.573 562.299 384.308 556.506 384.308C550.712 384.308 546.016 388.573 546.016 393.836C546.016 399.098 550.712 403.365 556.506 403.365Z" fill="white"/>
<path d="M556.506 441.27C562.299 441.27 566.996 437.004 566.996 431.741C566.996 426.479 562.299 422.213 556.506 422.213C550.712 422.213 546.016 426.479 546.016 431.741C546.016 437.004 550.712 441.27 556.506 441.27Z" fill="white"/>
<path d="M631.275 163.666H547.075C545.959 163.666 545.055 164.487 545.055 165.5V170.115C545.055 171.128 545.959 171.95 547.075 171.95H631.275C632.39 171.95 633.295 171.128 633.295 170.115V165.5C633.295 164.487 632.39 163.666 631.275 163.666Z" fill="#858990"/>
<path d="M59.557 246.332H181.047V105.804H59.557V246.332Z" fill="white"/>
<path d="M75.762 232.198H164.852V119.938H75.762V232.198Z" fill="#DDDDDD"/>
<path d="M184.577 105.813H181.047V246.341H184.577V105.813Z" fill="#DADDDF"/>
<path d="M105.542 191.487C116.201 191.487 124.842 183.638 124.842 173.956C124.842 164.274 116.201 156.425 105.542 156.425C94.8829 156.425 86.2419 164.274 86.2419 173.956C86.2419 183.638 94.8829 191.487 105.542 191.487Z" fill="#181F2B"/>
<path d="M153.77 220.053L133.67 191.487L113.57 219.745L153.77 220.053Z" fill="#868A91"/>
<path opacity="0.2" d="M109.963 170.068H151.703V132.155H109.963V170.068Z" fill="black"/>
<path d="M397.471 125.16C397.011 125.224 396.851 125.669 396.911 126.069C396.971 126.468 397.471 126.632 397.911 126.577L401.561 125.887C401.993 125.789 402.399 125.615 402.757 125.375C403.115 125.134 403.418 124.832 403.647 124.485C403.876 124.138 404.028 123.754 404.094 123.355C404.16 122.954 404.138 122.546 404.031 122.154C403.882 121.652 403.601 121.191 403.213 120.809C402.824 120.428 402.34 120.138 401.801 119.965C401.115 119.732 400.52 119.321 400.09 118.783C399.659 118.245 399.413 117.604 399.381 116.94C399.367 116.536 399.33 116.132 399.271 115.732C397.321 108.847 397.471 125.16 397.471 125.16Z" fill="#C46F69"/>
<g opacity="0.15">
<path opacity="0.15" d="M404.051 122.209C403.806 121.408 403.234 120.722 402.451 120.293C402.451 120.383 402.521 120.474 402.551 120.574C402.658 120.965 402.68 121.372 402.615 121.771C402.55 122.17 402.398 122.554 402.17 122.899C401.942 123.245 401.64 123.546 401.284 123.786C400.927 124.027 400.521 124.2 400.091 124.298L397.471 124.798V125.198C397.011 125.261 396.851 125.706 396.911 126.106C396.971 126.506 397.471 126.669 397.911 126.615L401.561 125.924C402.433 125.73 403.184 125.23 403.651 124.534C404.118 123.838 404.262 123.001 404.051 122.209Z" fill="black"/>
</g>
<path d="M317.195 669.543H342.585L347.275 630.53L317.565 630.612L317.195 669.543Z" fill="#C46F69"/>
<path d="M319.813 654.746L320.583 654.137C326.333 649.596 336.243 649.659 341.833 654.346L342.263 654.737C342.935 655.273 343.477 655.927 343.856 656.663C344.235 657.398 344.441 658.198 344.463 659.006V661.549C344.453 663.03 344.737 664.493 345.303 665.882L347.923 672.758C348.589 674.402 348.928 676.146 348.923 677.9V678.808C348.923 680.152 347.403 681.215 345.623 681.215H315.253C313.383 681.215 311.953 680.134 311.953 678.808V678.481C311.955 676.446 312.387 674.421 313.223 672.531L316.223 665.8C316.93 664.274 317.303 662.649 317.323 660.995L317.413 659.061C317.481 658.234 317.728 657.426 318.14 656.69C318.552 655.945 319.12 655.282 319.813 654.746Z" fill="#25282F"/>
<path opacity="0.2" d="M317.359 642.847V646.017H337.289C337.952 646.017 338.607 646.144 339.212 646.389C339.817 646.635 340.359 646.998 340.801 647.443C341.243 647.888 341.577 648.415 341.78 648.987C341.983 649.559 342.051 650.168 341.979 650.768L340.309 664.629H343.419L346.039 642.829L317.359 642.847Z" fill="black"/>
<path d="M410.742 640.503L412.502 664.202L464.222 666.391L447.002 650.631C443.732 648.488 441.712 643.791 441.052 640.222L410.742 640.503Z" fill="#C46F69"/>
<path opacity="0.2" d="M429.903 646.317C432.292 646.317 434.638 646.907 436.684 648.024C438.731 649.141 440.401 650.749 441.513 652.675C442.366 654.228 443.597 655.582 445.112 656.644L457.552 667.935L465.242 668.253L448.682 652.275C445.022 649.623 442.456 645.917 441.403 641.775H410.812L411.182 646.435L429.903 646.317Z" fill="black"/>
<path d="M411.451 654.183C411.451 654.183 423.171 660.823 436.331 655.091C436.067 653.856 436.172 652.575 436.637 651.394C437.101 650.204 437.907 649.16 438.971 648.351C441.161 646.798 445.601 646.28 446.791 647.725C447.981 649.169 449.871 651.54 453.011 654.991C457.381 659.778 463.291 665.292 467.861 666.164C476.241 667.753 493.161 659.987 494.331 676.246C494.331 676.246 477.801 681.896 462.411 680.479C452.382 679.425 442.526 677.291 433.051 674.121V680.652H409.101C409.101 680.652 403.671 662.322 411.451 654.183Z" fill="#25282F"/>
<path d="M407.352 670.278C407.584 673.794 408.173 677.273 409.112 680.688H433.062V674.157C442.536 677.327 452.392 679.462 462.422 680.515C477.812 681.932 494.332 676.292 494.332 676.292C494.255 675.038 494.04 673.785 493.692 672.567C481.661 678.117 467.747 679.262 454.812 675.783C446.022 673.458 438.942 671.859 432.732 670.242C432.732 670.224 412.142 669.824 407.352 670.278Z" fill="black"/>
<path d="M465.724 666.881C465.724 666.881 453.524 670.16 444.394 663.811C437.634 659.115 434.194 656.372 436.924 650.749C437.431 649.65 438.273 648.715 439.351 648.042C440.428 647.361 441.696 646.989 443.004 646.943C443.004 646.943 451.514 665.046 465.724 666.881Z" fill="black"/>
<path d="M442.325 332.633V641.839H410.815L383.375 389.74C383.307 388.944 382.909 388.201 382.261 387.661C381.613 387.122 380.764 386.826 379.885 386.833C379.019 386.84 378.187 387.143 377.555 387.681C376.924 388.22 376.538 388.955 376.475 389.74L345.945 642.683H317.195L326.685 334.404L442.325 332.651V332.633Z" fill="#181F2B"/>
<path d="M443.362 641.793H409.772L409.102 635.526H443.282L443.362 641.793Z" fill="#181F2B"/>
<path opacity="0.2" d="M443.362 641.839L409.772 641.793L409.102 635.526H443.282L443.362 641.839Z" fill="white"/>
<path opacity="0.2" d="M443.359 641.839H428.859V635.489L443.279 635.526L443.359 641.839Z" fill="black"/>
<path opacity="0.2" d="M331.695 642.374L359.585 399.949C360.074 396.308 362.015 392.955 365.04 390.526C368.066 388.095 371.967 386.756 376.005 386.76H379.915C379.056 386.762 378.228 387.057 377.596 387.587C376.965 388.117 376.575 388.843 376.505 389.622L345.945 642.683L331.695 642.374Z" fill="black"/>
<path opacity="0.2" d="M442.364 334.85V635.507H428.904L425.094 334.85H442.364Z" fill="black"/>
<path d="M397.588 97.0294L401.348 137.432C401.566 139.837 400.862 142.236 399.355 144.223C397.847 146.209 395.63 147.662 393.078 148.332L390.698 148.95L392.698 164.782L375.818 162.711L356.398 164.101L358.538 122.208L380.098 103.451L397.588 97.0294Z" fill="#C46F69"/>
<path d="M595.493 227.294C595.493 227.294 598.063 230.755 590.703 234.788C583.343 238.821 562.773 239.275 562.773 239.275L574.773 219.074L595.493 227.294Z" fill="#C46F69"/>
<path d="M555.589 219.01L561.289 213.297C563.797 210.784 566.789 208.708 570.119 207.175L579.859 202.688C580.211 202.465 580.644 202.377 581.067 202.441C581.489 202.506 581.867 202.718 582.119 203.033C582.817 203.901 583.166 204.961 583.108 206.036C583.049 207.11 582.588 208.134 581.799 208.937L574.999 213.479C574.832 213.588 574.717 213.751 574.678 213.935C574.639 214.12 574.679 214.31 574.789 214.469C574.889 214.618 575.045 214.731 575.228 214.786C575.412 214.841 575.611 214.835 575.789 214.768L606.959 203.868C607.266 203.762 607.592 203.713 607.919 203.725C608.247 203.737 608.568 203.808 608.864 203.936C609.16 204.063 609.425 204.243 609.642 204.465C609.86 204.688 610.026 204.948 610.129 205.231C610.33 205.741 610.317 206.302 610.092 206.804C609.867 207.307 609.446 207.717 608.909 207.956L595.089 214.151C595.089 214.151 600.819 215.686 596.529 220.509C596.529 220.509 599.839 225.423 592.529 229.456C585.219 233.489 562.799 239.357 562.799 239.357L540.999 252.846L529.109 232.681L555.589 219.01Z" fill="#C46F69"/>
<path opacity="0.3" d="M596.552 220.426L586.352 223.978" stroke="black" stroke-width="1.03569" stroke-linecap="round" stroke-linejoin="round"/>
<path opacity="0.3" d="M595.362 227.176L585.172 230.728" stroke="black" stroke-width="1.03569" stroke-linecap="round" stroke-linejoin="round"/>
<path opacity="0.3" d="M595.294 214.259L585.094 217.81" stroke="black" stroke-width="1.03569" stroke-linecap="round" stroke-linejoin="round"/>
<path opacity="0.2" d="M590.701 234.787C583.341 238.82 562.771 239.274 562.771 239.274L550.001 247.213L548.531 243.444L561.121 235.605C561.9 235.121 562.828 234.876 563.771 234.905L572.121 235.169C579.651 235.514 588.761 234.733 595.121 231.09C595.181 231.09 594.761 232.326 590.701 234.787Z" fill="black"/>
<path d="M352.376 141.81C358.496 145.979 359.846 146.352 365.586 144.998C367.557 144.542 369.407 143.729 371.026 142.609C376.656 138.622 382.306 130.274 382.686 121.037L386.306 119.293C387.306 117.912 387.226 107.13 385.396 102.57C389.396 99.7816 393.926 98.3736 396.506 98.6007C397.256 99.718 397.186 100.772 398.176 103.26C403.906 92.9418 390.546 87.51 387.766 86.1293C382.226 83.4043 370.366 83.0046 363.636 84.1037C348.316 86.6289 339.556 95.1309 339.876 110.246C340.146 123.117 344.356 134.834 352.376 141.81Z" fill="black"/>
<path d="M382.68 121.037C385.12 130.756 387.34 145.834 390.68 149.513C393.49 151.33 399.79 148.95 400.8 142.991C401.8 137.178 402.31 131.737 400.44 127.549C400.27 130.729 394.21 134.362 391.99 130.901L386.31 119.265L382.68 121.037Z" fill="black"/>
<path opacity="0.15" d="M374.375 124.516L376.685 126.423C378.327 126.864 379.996 127.212 381.685 127.468L375.825 130.065L374.375 124.516Z" fill="black"/>
<path d="M383.004 122.381C384.004 125.442 385.074 127.686 380.584 127.704C372.054 127.704 370.344 117.503 375.094 115.151C375.592 114.849 376.158 114.65 376.75 114.57C377.343 114.49 377.947 114.53 378.521 114.687C379.094 114.844 379.623 115.115 380.068 115.479C380.512 115.844 380.863 116.293 381.094 116.795L383.004 122.381Z" fill="#C46F69"/>
<path opacity="0.3" d="M380.533 121.182C380.408 120.188 380.024 119.235 379.413 118.402C378.917 117.802 378.213 117.37 377.413 117.176C376.991 117.14 376.565 117.182 376.162 117.303C375.759 117.423 375.388 117.618 375.073 117.876C374.973 117.99 374.911 118.127 374.895 118.272C374.879 118.418 374.909 118.564 374.983 118.694C375.153 118.957 375.453 118.939 375.743 118.785C375.947 118.59 376.198 118.443 376.475 118.353C376.753 118.263 377.05 118.233 377.343 118.266C377.793 118.266 378.123 118.629 378.613 119.174C379.134 119.839 379.455 120.616 379.543 121.428L379.763 122.336C379.763 122.609 380.093 122.718 380.393 122.7C380.693 122.682 380.823 122.399 380.793 122.127L380.573 121.218" fill="black"/>
<path d="M403.049 120.747C402.846 120.747 402.649 120.683 402.491 120.568C402.332 120.453 402.222 120.291 402.179 120.111L399.239 108.303C399.214 108.198 399.212 108.09 399.233 107.985C399.255 107.88 399.299 107.779 399.363 107.69C399.427 107.6 399.51 107.523 399.607 107.463C399.704 107.403 399.814 107.361 399.929 107.34C400.044 107.315 400.163 107.313 400.279 107.332C400.395 107.351 400.506 107.391 400.605 107.449C400.704 107.507 400.789 107.583 400.855 107.672C400.921 107.761 400.966 107.861 400.989 107.967L403.929 119.775C403.976 119.984 403.93 120.202 403.801 120.381C403.672 120.56 403.469 120.684 403.239 120.729C403.177 120.743 403.113 120.749 403.049 120.747Z" fill="#21252B"/>
<path d="M401.223 112.565L381.133 116.618L381.521 118.204L401.611 114.152L401.223 112.565Z" fill="#21252B"/>
<path opacity="0.15" d="M348.251 642.665H331.211L332.241 636.398H348.921L348.251 642.665Z" fill="black"/>
<path d="M348.252 642.665H314.742L315.242 636.398H348.922L348.252 642.665Z" fill="#181F2B"/>
<path opacity="0.2" d="M348.119 642.665H314.609L315.099 636.398H348.779L348.119 642.665Z" fill="white"/>
<path opacity="0.2" d="M348.105 642.665H331.695L332.395 636.398H348.785L348.105 642.665Z" fill="black"/>
<path d="M396.703 169.351H360.703" stroke="#21252B" stroke-width="1.33952" stroke-miterlimit="10"/>
<path opacity="0.15" d="M390.705 148.986L383.295 148.85C382.784 148.836 382.278 148.938 381.82 149.144C381.362 149.35 380.968 149.656 380.671 150.034C380.374 150.413 380.185 150.851 380.119 151.311C380.054 151.772 380.114 152.24 380.295 152.674L382.995 159.15H391.995L390.705 148.986Z" fill="black"/>
<path d="M348.625 161.403L351.755 155.045C352.459 153.622 353.575 152.4 354.984 151.509C356.393 150.618 358.042 150.091 359.755 149.985C372.425 149.222 383.475 151.012 393.025 157.361C393.698 157.816 394.23 158.422 394.568 159.119C394.906 159.816 395.04 160.581 394.955 161.339L394.255 168.097L348.625 161.403Z" fill="#F2F8FC"/>
<path d="M325.891 176.826L337.501 165.445C342.081 160.903 349.261 158.26 356.951 158.178L380.181 157.851C389.291 157.724 397.701 161.485 401.751 167.407L408.171 176.854L325.891 176.826Z" fill="#3F4249"/>
<path d="M312.594 364.343L319.684 376.978L329.784 349.364L312.594 364.343Z" fill="#C46F69"/>
<path d="M336.642 351.817L310.532 298.534L275.602 279.35L272.512 291.385C271.983 293.468 272.193 295.649 273.112 297.617L310.202 359.965L336.642 351.817Z" fill="#3F4249"/>
<path d="M293.052 189.343L273.812 286.48L310.533 298.534L328.443 168.824L302.163 178.97C299.815 179.876 297.752 181.298 296.162 183.109C294.571 184.921 293.503 187.063 293.052 189.343Z" fill="#3F4249"/>
<path opacity="0.15" d="M310.53 298.534L328.44 168.824L324.22 170.45L304.43 298.534L328.44 348.111L334.64 347.202L310.53 298.534Z" fill="black"/>
<path d="M309.281 358.457L312.591 364.343L336.211 343.76L332.891 337.147L309.281 358.457Z" fill="#F4F4F4"/>
<path d="M340.076 163.61C340.076 163.61 317.076 174.328 301.926 179.288C299.584 180.062 297.59 181.52 296.259 183.434C294.927 185.347 294.331 187.607 294.566 189.861C296.766 211.543 311.906 248.176 311.906 248.176C311.906 248.176 322.086 288.669 322.086 295.173C322.086 301.677 319.636 378.567 319.636 378.567H436.236L453.236 372.618C453.236 372.618 442.916 301.677 440.816 281.784C438.716 261.892 441.816 238.239 441.816 238.239L440.006 202.042L447.486 182.158L396.706 162.438L340.076 163.61Z" fill="#3F4249"/>
<path d="M494.104 247.622L504.884 281.23L496.724 286.244C493.278 288.356 489.074 289.196 484.97 288.592C480.866 287.988 477.17 285.985 474.634 282.992L433.004 233.824L422.664 173.075C422.664 173.021 422.664 172.975 422.754 172.993C423.394 173.248 431.944 175.564 439.164 177.535C445.682 179.293 451.244 183.196 454.764 188.48C466.644 206.347 493.804 247.195 494.104 247.622Z" fill="#3F4249"/>
<path opacity="0.15" d="M442.366 295.982C439.826 279.632 439.876 259.821 440.206 259.412L441.836 238.52C442.426 232.162 431.176 231.708 431.556 237.439C431.556 237.439 429.716 279.532 431.826 296.408C433.936 313.285 444.606 375.633 444.606 375.633L453.246 372.618C453.246 372.618 445.006 312.804 442.366 295.982Z" fill="black"/>
<path d="M539.49 225.568L486.75 250.783L503.23 282.311L554.2 247.131L539.49 225.568Z" fill="#3F4249"/>
<path d="M539.529 225.495L532.969 228.683L548.479 250.956L554.779 247.313L539.529 225.495Z" fill="#F4F4F4"/>
<path opacity="0.15" d="M325.319 378.458C326.119 373.381 328.019 300.741 328.019 294.583C328.019 288.224 313.129 247.268 313.129 247.268C313.129 247.268 299.179 211.107 297.029 189.834C296.569 185.292 303.519 181.014 308.249 179.461C323.119 174.592 339.689 164.073 339.689 164.073C339.689 164.073 317.119 174.592 302.249 179.433C299.936 180.183 297.966 181.614 296.652 183.499C295.338 185.384 294.756 187.614 294.999 189.834C297.149 211.107 311.869 248.339 311.869 248.339C311.869 248.339 322.049 288.788 322.049 295.173C322.049 301.559 319.599 378.567 319.599 378.567L325.319 378.458Z" fill="black"/>
<path opacity="0.15" d="M365.155 378.286L369.525 345.586C369.537 345.527 369.571 345.475 369.622 345.438C369.672 345.399 369.735 345.379 369.8 345.379C369.865 345.379 369.928 345.399 369.978 345.438C370.029 345.475 370.063 345.527 370.075 345.586L378.285 378.286C378.294 378.322 378.294 378.36 378.284 378.397C378.275 378.434 378.257 378.468 378.231 378.498C378.205 378.527 378.172 378.552 378.135 378.568C378.097 378.585 378.057 378.594 378.015 378.595H365.425C365.383 378.594 365.342 378.585 365.305 378.568C365.268 378.552 365.235 378.527 365.209 378.498C365.183 378.468 365.165 378.434 365.156 378.397C365.146 378.36 365.146 378.322 365.155 378.286Z" fill="black"/>
</svg>
