<svg width="184" height="177" viewBox="0 0 184 177" fill="none" xmlns="http://www.w3.org/2000/svg">
<g id="1 1" clip-path="url(#clip0)">
<path id="Vector" d="M6.83318 143.266H177.309C177.309 143.266 183.677 142.93 183.677 135.51V120.881H0.117584V138.722C0.563775 140.099 1.45146 141.29 2.64324 142.112C3.83502 142.933 5.26443 143.339 6.71008 143.266" fill="#BAC5F4"/>
<path id="Vector_2" d="M0.117576 10.0734L0.00567627 126.477L183.677 124.798V6.71559C183.677 6.71559 184.796 0 177.644 0H7.04583C7.04583 0 -0.665911 -4.26966e-06 0.117576 10.1741" fill="#BAC5F4"/>
<path id="Vector_3" d="M77.3469 174.494V142.147L104.209 143.266V171.695L77.3469 174.494Z" fill="#BAC5F4"/>
<path id="Vector_4" d="M34.7029 171.248L146.327 171.281L146.394 176.844H34.7029V171.248Z" fill="#BAC5F4"/>
<path id="Vector_5" d="M90.2521 128.827C91.3147 128.827 92.3534 129.143 93.2369 129.733C94.1204 130.323 94.8089 131.162 95.2156 132.144C95.6222 133.126 95.7286 134.206 95.5213 135.248C95.314 136.29 94.8023 137.248 94.0509 137.999C93.2996 138.75 92.3423 139.262 91.3002 139.469C90.258 139.676 89.1778 139.57 88.1961 139.163C87.2144 138.757 86.3753 138.068 85.785 137.185C85.1947 136.301 84.8796 135.263 84.8796 134.2C84.8796 132.775 85.4456 131.409 86.4531 130.401C87.4607 129.394 88.8272 128.827 90.2521 128.827" fill="white"/>
<path id="Vector_6" d="M178.081 5.59633H5.71393V118.642H178.081V5.59633Z" fill="#F8F8FF"/>
<path id="Vector_7" d="M14.3658 11.4165C14.8971 11.4165 15.4165 11.5741 15.8582 11.8692C16.3 12.1644 16.6442 12.5839 16.8476 13.0748C17.0509 13.5656 17.1041 14.1057 17.0004 14.6268C16.8968 15.1479 16.6409 15.6265 16.2652 16.0022C15.8896 16.3779 15.411 16.6337 14.8899 16.7374C14.3689 16.841 13.8287 16.7878 13.3379 16.5845C12.847 16.3812 12.4275 16.0369 12.1323 15.5952C11.8372 15.1534 11.6796 14.6341 11.6796 14.1028C11.6796 13.3903 11.9626 12.7071 12.4664 12.2033C12.9702 11.6995 13.6534 11.4165 14.3658 11.4165" fill="#FA5F5D"/>
<path id="Vector_8" d="M23.5439 11.4165C24.0752 11.4165 24.5945 11.5741 25.0363 11.8692C25.478 12.1644 25.8223 12.5839 26.0256 13.0748C26.2289 13.5656 26.2821 14.1057 26.1785 14.6268C26.0748 15.1479 25.819 15.6265 25.4433 16.0022C25.0676 16.3779 24.5889 16.6337 24.0678 16.7374C23.5468 16.841 23.0067 16.7878 22.5159 16.5845C22.025 16.3812 21.6054 16.0369 21.3103 15.5952C21.0151 15.1534 20.8576 14.6341 20.8576 14.1028C20.8576 13.75 20.927 13.4007 21.062 13.0748C21.197 12.7489 21.3949 12.4528 21.6443 12.2033C21.8938 11.9539 22.19 11.756 22.5159 11.621C22.8418 11.486 23.1911 11.4165 23.5439 11.4165" fill="#FDBC4E"/>
<path id="Vector_9" d="M33.1695 11.4165C33.7008 11.4165 34.2202 11.5741 34.6619 11.8692C35.1037 12.1644 35.448 12.5839 35.6513 13.0748C35.8546 13.5656 35.9078 14.1057 35.8042 14.6268C35.7005 15.1479 35.4446 15.6265 35.069 16.0022C34.6933 16.3779 34.2146 16.6337 33.6935 16.7374C33.1724 16.841 32.6324 16.7878 32.1415 16.5845C31.6507 16.3812 31.2311 16.0369 30.9359 15.5952C30.6408 15.1534 30.4833 14.6341 30.4833 14.1028C30.4833 13.3903 30.7662 12.7071 31.27 12.2033C31.7738 11.6995 32.4571 11.4165 33.1695 11.4165" fill="#37CD58"/>
<path id="Vector_10" d="M70.6313 31.0596C70.5908 31.7634 70.2742 32.4228 69.7502 32.8943C69.2262 33.3659 68.5373 33.6116 67.8332 33.578H34.8148C33.1135 33.578 31.457 32.4587 31.457 31.0596V26.0341C31.457 24.6351 33.08 23.5046 34.8148 23.5046H67.7659C68.4718 23.4455 69.1725 23.6675 69.7154 24.1224C70.2583 24.5773 70.5995 25.2282 70.6649 25.9334C70.6649 25.9334 70.6649 26.0006 70.6649 26.0341L70.6313 31.0596Z" fill="url(#paint0_linear)"/>
<path id="Vector_11" d="M150.099 64.4921C150.075 64.8662 149.977 65.2319 149.812 65.5682C149.646 65.9045 149.416 66.205 149.134 66.4524C148.853 66.6997 148.525 66.8892 148.17 67.0099C147.815 67.1306 147.44 67.1803 147.066 67.156H34.8148C33.0912 67.156 31.457 65.9695 31.457 64.4921V39.5996C31.457 38.1222 33.1024 36.9358 34.8148 36.9358H147.055C147.429 36.9099 147.804 36.958 148.16 37.0773C148.515 37.1967 148.844 37.3849 149.127 37.6313C149.409 37.8776 149.641 38.1772 149.808 38.5131C149.975 38.8489 150.074 39.2143 150.099 39.5884V39.5884V64.4921Z" fill="url(#paint1_linear)"/>
<path id="Vector_12" d="M68.3928 85.7022C68.3928 86.0618 68.3218 86.4178 68.1839 86.7499C68.046 87.082 67.8438 87.3835 67.589 87.6373C67.3342 87.891 67.0318 88.092 66.6991 88.2286C66.3665 88.3651 66.0102 88.4347 65.6507 88.4332H34.8148C33.08 88.4332 31.457 87.2132 31.457 85.7134V72.1031C31.457 70.6145 33.1135 69.3945 34.8148 69.3945H65.4603C65.8186 69.3702 66.178 69.4171 66.518 69.5325C66.858 69.6478 67.1718 69.8294 67.4413 70.0666C67.7108 70.3039 67.9307 70.5921 68.0883 70.9147C68.2458 71.2374 68.3379 71.588 68.3592 71.9464C68.3592 71.9464 68.3592 72.0472 68.3592 72.1031L68.3928 85.7022Z" fill="url(#paint2_linear)"/>
<path id="Vector_13" d="M108.686 85.7022C108.689 86.0588 108.622 86.4126 108.488 86.743C108.354 87.0735 108.156 87.3742 107.905 87.628C107.654 87.8817 107.356 88.0835 107.027 88.2217C106.698 88.3599 106.346 88.4318 105.989 88.4332H75.1084C73.3624 88.4332 71.7506 87.2132 71.7506 85.7134V72.1031C71.7506 70.6145 73.4295 69.3945 75.1084 69.3945H105.788C106.504 69.3516 107.209 69.5952 107.746 70.0717C108.283 70.5481 108.61 71.2184 108.653 71.9352C108.653 71.9912 108.653 72.0472 108.653 72.1031L108.686 85.7022Z" fill="url(#paint3_linear)"/>
<path id="Vector_14" d="M150.099 85.7022C150.053 86.4695 149.704 87.1871 149.129 87.6971C148.554 88.2072 147.8 88.4679 147.032 88.422H116.387C115.601 88.4783 114.824 88.2255 114.222 87.7174C113.62 87.2094 113.24 86.4863 113.163 85.7022V72.1031C113.243 71.3211 113.624 70.6008 114.226 70.0951C114.828 69.5894 115.603 69.3381 116.387 69.3945H147.021C147.401 69.3702 147.782 69.421 148.143 69.544C148.503 69.6669 148.835 69.8597 149.121 70.1112C149.407 70.3628 149.641 70.6681 149.808 71.0099C149.976 71.3517 150.075 71.7232 150.099 72.1031V72.1031V85.7022Z" fill="url(#paint4_linear)"/>
<path id="Vector_15" d="M108.686 93.4587C108.581 93.7074 108.418 93.928 108.212 94.1029C108.006 94.2778 107.762 94.4021 107.5 94.466C107.433 94.466 107.366 94.466 107.298 94.0183H73.4518C72.7579 94.466 71.7282 94.0743 71.7505 93.4587V93.0222C71.7505 92.4066 72.7579 91.9029 73.4518 91.7798H107.298C107.558 91.8283 107.797 91.955 107.983 92.143C108.17 92.3311 108.294 92.5714 108.339 92.8319C108.339 92.8991 108.339 92.955 108.686 93.0222V93.4587Z" fill="#E9EDFB"/>
<path id="Vector_16" d="M108.686 97.8686C108.587 98.1409 108.423 98.3849 108.209 98.5799C107.994 98.7749 107.736 98.9149 107.455 98.9879C107.455 98.9879 107.354 98.9879 107.298 98.5066H73.4518C72.7579 98.9991 71.7282 98.5066 71.7505 97.8798V97.3761C71.7505 96.7717 72.7579 96.4248 73.4518 96.2569H107.298C107.594 96.3384 107.87 96.4798 108.109 96.6724C108.347 96.8649 108.544 97.1044 108.686 97.3761V97.8686Z" fill="#E9EDFB"/>
<path id="Vector_17" d="M108.686 102.29C108.58 102.592 108.397 102.863 108.156 103.074C107.915 103.286 107.624 103.432 107.31 103.499C107.292 103.324 107.292 103.147 107.31 102.972H73.4631C73.3125 103.071 73.1403 103.131 72.9613 103.149C72.7823 103.166 72.6018 103.141 72.4348 103.074C72.2679 103.007 72.1196 102.9 72.0024 102.764C71.8853 102.628 71.8027 102.465 71.7618 102.29V101.853C71.7618 101.249 72.7692 101.003 73.4631 100.734H107.31C107.605 100.815 107.881 100.957 108.12 101.149C108.359 101.342 108.555 101.581 108.698 101.853L108.686 102.29Z" fill="#E9EDFB"/>
<path id="Vector_18" d="M108.686 106.7C108.358 107.412 107.885 108.048 107.298 108.569H73.4518C72.7579 108.009 71.7282 107.315 71.7505 106.7V106.263C71.7505 105.648 72.7579 104.998 73.4518 105.211H107.298C107.436 105.178 107.58 105.179 107.717 105.215C107.855 105.251 107.981 105.32 108.085 105.417C108.189 105.513 108.268 105.633 108.314 105.767C108.36 105.901 108.373 106.045 108.35 106.185C108.35 106.185 108.351 106.185 108.686 106.263V106.7Z" fill="#E9EDFB"/>
<path id="Vector_19" d="M89.9051 111.11C89.9051 111.658 89.5357 111.927 88.8977 111.927H73.3176C72.6908 111.927 71.7618 111.658 71.7618 111.11V110.707C71.7618 110.158 72.6908 109.699 73.3176 109.699H88.9089C89.0412 109.699 89.1723 109.725 89.2945 109.776C89.4167 109.827 89.5277 109.901 89.6213 109.994C89.7148 110.088 89.789 110.199 89.8396 110.321C89.8902 110.443 89.9163 110.574 89.9163 110.707L89.9051 111.11Z" fill="#E9EDFB"/>
<path id="Vector_20" d="M150.099 93.4587C149.461 94.0743 149.573 94.466 148.879 94.0183H115.021C114.451 94.5108 113.902 94.0967 113.902 93.5259C113.902 93.5259 113.902 93.5259 114.283 93.4587V93.0222C113.936 92.429 114.428 91.9029 115.021 91.7798H148.879C149.573 91.9589 149.461 92.4066 150.099 93.0222V93.4587Z" fill="#E9EDFB"/>
<path id="Vector_21" d="M150.099 97.8686C149.461 98.4842 149.573 98.9879 148.879 98.4954H115.022C114.406 98.9879 113.902 98.4954 114.283 97.8686V97.3761C113.902 96.7717 114.372 96.4248 115.022 96.2569H148.879C149.573 96.4807 149.461 96.8277 150.099 97.3761V97.8686Z" fill="#E9EDFB"/>
<path id="Vector_22" d="M150.099 102.29C149.461 102.894 149.573 103.499 148.879 102.972H115.022C114.384 103.454 113.902 102.972 114.283 102.29V101.853C113.902 101.249 114.372 101.003 115.022 100.734H148.879C149.573 100.991 149.461 101.238 150.099 101.853V102.29Z" fill="#E9EDFB"/>
<path id="Vector_23" d="M150.099 106.7C149.461 107.315 149.573 108.009 148.879 108.569H115.021C114.361 107.931 113.902 107.36 114.283 106.7V106.263C114.184 106.152 114.125 106.011 114.117 105.862C114.108 105.713 114.15 105.566 114.236 105.445C114.321 105.323 114.445 105.233 114.588 105.191C114.73 105.149 114.883 105.156 115.021 105.211H148.879C149.573 104.998 149.461 105.648 150.099 106.263V106.7Z" fill="#E9EDFB"/>
<path id="Vector_24" d="M131.486 111.11C131.486 111.658 131.486 111.927 130.893 111.927H115.29C114.663 111.927 114.283 111.658 114.283 111.11V110.707C114.283 110.439 114.389 110.183 114.578 109.994C114.767 109.805 115.023 109.699 115.29 109.699H130.87C131.497 109.699 131.463 110.192 131.463 110.707L131.486 111.11Z" fill="#E9EDFB"/>
<path id="Vector_25" d="M67.2735 93.4587C67.7101 94.0743 67.4639 94.466 66.7699 94.0183H32.9121C32.7887 94.1157 32.6419 94.1792 32.4864 94.2028C32.3309 94.2263 32.172 94.209 32.0253 94.1526C31.8785 94.0961 31.749 94.0025 31.6494 93.8808C31.5498 93.7592 31.4834 93.6137 31.457 93.4587V93.0222C31.5692 92.7056 31.7628 92.4242 32.0182 92.2061C32.2736 91.988 32.5819 91.841 32.9121 91.7798H66.7699C67.4639 91.9589 67.7101 92.4066 67.2735 93.0222V93.4587Z" fill="#E9EDFB"/>
<path id="Vector_26" d="M67.2735 97.8686C67.7101 98.4842 67.4639 98.9879 66.7699 98.4954H32.9121C32.2406 99.0215 31.6697 98.4954 31.457 97.8686V97.3761C31.6025 96.7717 32.2182 96.4248 32.9121 96.2569H66.7699C67.4639 96.4807 67.7101 96.8277 67.2735 97.3761V97.8686Z" fill="#E9EDFB"/>
<path id="Vector_27" d="M67.2735 102.29C67.7101 102.894 67.4639 103.499 66.7699 102.972H32.9121C32.2294 103.487 31.6697 102.972 31.457 102.29V101.853C31.6025 101.249 32.2182 101.003 32.9121 100.734H66.7699C67.4639 100.991 67.7101 101.238 67.2735 101.853V102.29Z" fill="#E9EDFB"/>
<path id="Vector_28" d="M57.2001 105.211H66.7699C67.4639 104.998 67.7101 105.648 67.2735 106.263V106.7C67.7101 107.315 67.4639 108.009 66.7699 108.569H32.9121C32.2559 108.1 31.7503 107.451 31.457 106.7V106.263C31.4814 106.098 31.5388 105.939 31.6256 105.795C31.7125 105.652 31.8271 105.528 31.9627 105.43C32.0983 105.332 32.2522 105.262 32.4152 105.225C32.5783 105.187 32.7473 105.182 32.9121 105.211H57.2001Z" fill="#E9EDFB"/>
<path id="Vector_29" d="M50.4845 111.11C50.4845 111.658 50.1711 111.927 49.4884 111.927H32.6994C32.0278 111.927 31.4234 111.658 31.4234 111.11V110.707C31.4751 110.411 31.6339 110.145 31.8692 109.959C32.1046 109.774 32.4001 109.681 32.6994 109.699H49.4884C49.6157 109.695 49.7427 109.716 49.8619 109.761C49.9811 109.806 50.0902 109.874 50.1829 109.961C50.2755 110.049 50.35 110.154 50.4017 110.27C50.4535 110.386 50.4817 110.512 50.4845 110.639C50.4845 110.639 50.4845 110.639 50.4845 110.718V111.11Z" fill="#E9EDFB"/>
</g>
<defs>
<linearGradient id="paint0_linear" x1="31.457" y1="28.5413" x2="70.6314" y2="28.5413" gradientUnits="userSpaceOnUse">
<stop stop-color="#F71D69"/>
<stop offset="1" stop-color="#F8C648"/>
</linearGradient>
<linearGradient id="paint1_linear" x1="31.457" y1="52.0459" x2="150.099" y2="52.0459" gradientUnits="userSpaceOnUse">
<stop stop-color="#E5A4ED"/>
<stop offset="1" stop-color="#7A5BF5"/>
</linearGradient>
<linearGradient id="paint2_linear" x1="31.457" y1="7811.17" x2="39589.7" y2="7811.17" gradientUnits="userSpaceOnUse">
<stop stop-color="#E5A4ED"/>
<stop offset="1" stop-color="#7A5BF5"/>
</linearGradient>
<linearGradient id="paint3_linear" x1="39740.9" y1="7810.59" x2="40959.8" y2="7810.59" gradientUnits="userSpaceOnUse">
<stop stop-color="#E5A4ED"/>
<stop offset="1" stop-color="#7A5BF5"/>
</linearGradient>
<linearGradient id="paint4_linear" x1="41148.8" y1="7810.39" x2="150.098" y2="7810.39" gradientUnits="userSpaceOnUse">
<stop stop-color="#E5A4ED"/>
<stop offset="1" stop-color="#7A5BF5"/>
</linearGradient>
<clipPath id="clip0">
<rect width="183.75" height="176.844" fill="white"/>
</clipPath>
</defs>
</svg>
