<svg width="132" height="120" viewBox="0 0 132 120" fill="none" xmlns="http://www.w3.org/2000/svg">
<g id="2 1" clip-path="url(#clip0)">
<path id="Vector" d="M101.463 40.2288L53.559 0.302305C53.007 -0.157802 52.1865 -0.0832637 51.7264 0.468778L0.302565 62.1676C-0.157547 62.7197 -0.0830176 63.5402 0.469024 64.0003L48.3732 103.927C48.9253 104.387 49.7458 104.312 50.2059 103.76L101.63 42.0614C102.09 41.5094 102.015 40.6889 101.463 40.2288Z" fill="#F9F9F9"/>
<path id="Vector_2" d="M46.9773 100.68L98.8408 39.0922C99.0183 38.8792 99.2681 38.7391 99.5424 38.699C99.8167 38.6588 100.096 38.7213 100.327 38.8745C103.059 40.7268 111.547 47.1171 112.941 56.749C113.867 63.0745 115.169 66.3576 102.541 78.4344C102.42 78.5479 102.326 78.6863 102.264 78.84C102.203 78.9936 102.176 79.1589 102.184 79.3241C102.193 79.4894 102.238 79.6508 102.316 79.797C102.393 79.9433 102.502 80.0709 102.633 80.1709L122.832 95.1558C126.383 97.7574 128.995 101.439 130.278 105.649C132.418 112.822 132.395 122.319 115.414 119.036C112.441 118.441 109.725 116.94 107.639 114.739L89.6814 95.9893C89.574 95.8766 89.4445 95.7873 89.301 95.727C89.1575 95.6666 89.0031 95.6366 88.8474 95.6388C88.6918 95.641 88.5382 95.6753 88.3965 95.7396C88.2547 95.8039 88.1277 95.8968 88.0236 96.0125L79.5355 105.38L79.48 105.441C77.5351 107.293 73.5481 111.02 68.3339 111.368C62.3141 111.766 53.1962 111.368 46.8985 102.046C46.7619 101.841 46.6957 101.596 46.7099 101.35C46.7241 101.104 46.8179 100.869 46.9773 100.68Z" fill="url(#paint0_linear)"/>
<path id="Vector_3" d="M6.8895 54.2484L40.3276 14.1606L67.5421 36.3879C68.4312 37.1149 70.7095 39.3376 71.1124 40.4166C72.0385 42.894 73.3397 46.066 70.1862 49.2148C65.8241 53.6001 60.2581 52.9194 57.6834 51.0069C55.5116 49.3815 43.1292 40.5879 39.3042 37.8743C38.2743 37.1204 37.0419 36.6929 35.7664 36.6472C33.8287 36.5798 31.9418 37.2748 30.5106 38.5828C26.6162 42.0697 27.672 47.5802 31.3163 51.8636C34.9607 56.147 34.5346 61.5093 31.96 63.8709C29.3853 66.2326 25.528 68.798 19.5266 64.7276C13.5253 60.6572 6.8895 54.2484 6.8895 54.2484Z" fill="url(#paint1_linear)"/>
</g>
<defs>
<linearGradient id="paint0_linear" x1="46.7087" y1="79.1892" x2="131.246" y2="79.1892" gradientUnits="userSpaceOnUse">
<stop stop-color="#E5A4ED"/>
<stop offset="1" stop-color="#7A5BF5"/>
</linearGradient>
<linearGradient id="paint1_linear" x1="46.7087" y1="79.1892" x2="131.246" y2="79.1892" gradientUnits="userSpaceOnUse">
<stop stop-color="#E5A4ED"/>
<stop offset="1" stop-color="#7A5BF5"/>
</linearGradient>
<clipPath id="clip0">
<rect width="131.25" height="119.703" fill="white"/>
</clipPath>
</defs>
</svg>
