<svg id="visual" viewBox="0 0 900 600" width="900" height="600" xmlns="http://www.w3.org/2000/svg" xmlns:xlink="http://www.w3.org/1999/xlink" version="1.1"><path d="M0 43L82 43L82 55L164 55L164 121L245 121L245 67L327 67L327 103L409 103L409 91L491 91L491 91L573 91L573 61L655 61L655 127L736 127L736 133L818 133L818 109L900 109L900 121L900 0L900 0L818 0L818 0L736 0L736 0L655 0L655 0L573 0L573 0L491 0L491 0L409 0L409 0L327 0L327 0L245 0L245 0L164 0L164 0L82 0L82 0L0 0Z" fill="#181f2b"></path><path d="M0 79L82 79L82 115L164 115L164 181L245 181L245 151L327 151L327 199L409 199L409 193L491 193L491 169L573 169L573 127L655 127L655 193L736 193L736 169L818 169L818 199L900 199L900 175L900 119L900 107L818 107L818 131L736 131L736 125L655 125L655 59L573 59L573 89L491 89L491 89L409 89L409 101L327 101L327 65L245 65L245 119L164 119L164 53L82 53L82 41L0 41Z" fill="#212b49"></path><path d="M0 193L82 193L82 187L164 187L164 283L245 283L245 205L327 205L327 313L409 313L409 241L491 241L491 283L573 283L573 241L655 241L655 337L736 337L736 307L818 307L818 277L900 277L900 301L900 173L900 197L818 197L818 167L736 167L736 191L655 191L655 125L573 125L573 167L491 167L491 191L409 191L409 197L327 197L327 149L245 149L245 179L164 179L164 113L82 113L82 77L0 77Z" fill="#373465"></path><path d="M0 409L82 409L82 487L164 487L164 427L245 427L245 337L327 337L327 427L409 427L409 361L491 361L491 457L573 457L573 445L655 445L655 523L736 523L736 529L818 529L818 379L900 379L900 457L900 299L900 275L818 275L818 305L736 305L736 335L655 335L655 239L573 239L573 281L491 281L491 239L409 239L409 311L327 311L327 203L245 203L245 281L164 281L164 185L82 185L82 191L0 191Z" fill="#58397d"></path><path d="M0 601L82 601L82 601L164 601L164 601L245 601L245 601L327 601L327 601L409 601L409 601L491 601L491 601L573 601L573 601L655 601L655 601L736 601L736 601L818 601L818 601L900 601L900 601L900 455L900 377L818 377L818 527L736 527L736 521L655 521L655 443L573 443L573 455L491 455L491 359L409 359L409 425L327 425L327 335L245 335L245 425L164 425L164 485L82 485L82 407L0 407Z" fill="#82388f"></path></svg>