<svg id="visual" viewBox="0 0 900 600" width="900" height="600" xmlns="http://www.w3.org/2000/svg" xmlns:xlink="http://www.w3.org/1999/xlink" version="1.1"><rect x="0" y="0" width="900" height="600" fill="#181f2b"></rect><path d="M0 351L129 351L129 268L257 268L257 276L386 276L386 359L514 359L514 294L643 294L643 368L771 368L771 322L900 322L900 278L900 601L900 601L771 601L771 601L643 601L643 601L514 601L514 601L386 601L386 601L257 601L257 601L129 601L129 601L0 601Z" fill="#9900ff"></path><path d="M0 349L129 349L129 392L257 392L257 347L386 347L386 358L514 358L514 357L643 357L643 417L771 417L771 352L900 352L900 426L900 601L900 601L771 601L771 601L643 601L643 601L514 601L514 601L386 601L386 601L257 601L257 601L129 601L129 601L0 601Z" fill="#7700c6"></path><path d="M0 465L129 465L129 509L257 509L257 521L386 521L386 478L514 478L514 511L643 511L643 458L771 458L771 490L900 490L900 510L900 601L900 601L771 601L771 601L643 601L643 601L514 601L514 601L386 601L386 601L257 601L257 601L129 601L129 601L0 601Z" fill="#560090"></path></svg>